<?xml version="1.0" encoding="utf-8"?>
<!-- Generator: Adobe Illustrator 25.4.1, SVG Export Plug-In . SVG Version: 6.00 Build 0)  -->
<svg version="1.1" id="Layer_1" xmlns="http://www.w3.org/2000/svg" xmlns:xlink="http://www.w3.org/1999/xlink" x="0px" y="0px"
	 viewBox="0 0 276 102" style="enable-background:new 0 0 276 102;" xml:space="preserve">
<style type="text/css">
	.st0{fill:#CED5E8;}
	.st1{font-family:'Quicksand-Medium';}
	.st2{font-size:6.9878px;}
	.st3{fill:#CFD6E8;}
</style>
<g>
	<g>
		<text transform="matrix(1 0 0 1 0.4722 69.2855)" class="st0 st1 st2">Serial number:</text>
	</g>
	<g>
		<path class="st0" d="M214.16,40.01c0.27-0.28,0.54-0.56,0.81-0.84c0-0.16,0-0.31,0-0.47c-0.13,0.13-0.26,0.26-0.39,0.39
			c-0.39,0.41-0.79,0.82-1.18,1.23c-0.38,0.39-0.76,0.79-1.13,1.18c-0.02,0.02-0.04,0.03-0.05,0.05c-0.1,0.16-0.25,0.18-0.42,0.16
			c-0.04-0.01-0.09,0-0.14,0c0.01-0.18,0.02-0.35,0.04-0.53c0.09,0,0.17-0.01,0.26,0.04c0.24,0.14,0.56,0.06,0.69-0.17
			c0.15-0.25,0.08-0.56-0.16-0.71c-0.16-0.1-0.4-0.1-0.57,0.01c-0.02,0.02-0.04,0.03-0.07,0.05c-0.54-0.37-1.14-0.57-1.79-0.67
			c0-0.05,0-0.09-0.01-0.15c-0.58,0-1.16,0-1.74,0c0,0.03,0,0.06-0.01,0.09c-0.32,0.05-0.63,0.09-0.95,0.14
			c0-0.03-0.01-0.07-0.01-0.12c-0.22,0-0.44,0-0.67,0c0,0.09,0,0.19,0,0.28c0,0.05-0.01,0.07-0.06,0.09
			c-0.18,0.1-0.36,0.21-0.53,0.32c-0.09,0.06-0.16,0.14-0.14,0.27c0,0.01,0,0.03,0,0.04c0,0.01,0,0.01-0.01,0.02
			c-0.14,0-0.29,0-0.43,0c0,0.16,0,0.3,0,0.46c0.21,0,0.42,0,0.63,0c0.02,0.33,0.05,0.65,0.07,0.98c-0.01,0-0.01,0.01-0.02,0.01
			c-1.1-1.19-2.21-2.38-3.31-3.57c-0.01,0.01-0.02,0.02-0.02,0.03c0,0.16,0,0.32,0,0.48c0.23,0.25,0.47,0.5,0.7,0.76
			c0.47,0.51,0.94,1.01,1.4,1.52c0.42,0.45,0.83,0.9,1.24,1.35c0.02,0.02,0.04,0.05,0.05,0.08c0.02,0.23,0.04,0.46,0.05,0.7
			c0.02,0.34,0.05,0.68,0.07,1.02c0.03,0.36,0.05,0.72,0.08,1.08c0.02,0.27,0.04,0.55,0.06,0.82c0.02,0.32,0.05,0.64,0.07,0.95
			c0,0.02-0.02,0.05-0.03,0.07c-0.12,0.13-0.25,0.26-0.37,0.39c-0.47,0.49-0.95,0.99-1.42,1.48c-0.56,0.58-1.11,1.16-1.67,1.74
			c-0.03,0.03-0.05,0.06-0.09,0.09c0.09,0.08,0.18,0.16,0.27,0.24c1.12-1.17,2.23-2.33,3.36-3.5c0.04,0.61,0.09,1.21,0.13,1.8
			c0.04,0,0.07,0.01,0.11,0.01c0,0.18,0,0.36,0,0.54c0.24,0,0.47,0,0.7,0c0-0.18,0-0.36,0-0.54c0.02-0.01,0.02-0.01,0.03-0.01
			c0.77,0,1.54,0,2.3,0c0.02,0,0.06,0.03,0.07,0.05c0.21,0.49,0.71,0.74,1.23,0.61c0.44-0.11,0.76-0.53,0.76-0.98
			c0-0.25-0.08-0.48-0.23-0.68c0.84,0.91,1.69,1.83,2.54,2.75c0.1-0.1,0.19-0.19,0.28-0.29c-0.02-0.02-0.03-0.03-0.04-0.05
			c-0.32-0.35-0.65-0.69-0.97-1.04c-0.35-0.37-0.69-0.75-1.04-1.12c-0.4-0.43-0.8-0.86-1.19-1.29c-0.02-0.02-0.03-0.07-0.03-0.1
			c0-0.1,0.01-0.2,0.02-0.31c0.05-0.71,0.1-1.41,0.15-2.12c0.05-0.68,0.09-1.35,0.14-2.03c0.01-0.09,0.02-0.18,0.03-0.28
			c0.35,0,0.7,0,1.05,0c0-0.38,0-0.75,0-1.12c-0.03,0-0.06-0.01-0.09-0.01c0.24-0.25,0.47-0.49,0.7-0.74
			C213.55,40.65,213.86,40.33,214.16,40.01z M208.56,39.81c0.42,0,0.84,0,1.27,0c0,0.07,0,0.13,0,0.2c-0.42,0-0.84,0-1.27,0
			C208.56,39.95,208.56,39.89,208.56,39.81z M206.93,39.92c0.07,0,0.13,0,0.2,0c0,0.24,0,0.47,0,0.71c-0.07,0-0.13,0-0.2,0
			C206.93,40.39,206.93,40.16,206.93,39.92z M206.17,40.71c0.03-0.06,0.05-0.12,0.09-0.14c0.13-0.1,0.28-0.19,0.43-0.29
			c0,0.16,0,0.3,0,0.43C206.52,40.71,206.36,40.71,206.17,40.71z M206.51,43.06c0.7,0.76,1.39,1.51,2.09,2.27
			c-0.59,0.62-1.19,1.24-1.79,1.87C206.71,45.8,206.61,44.44,206.51,43.06z M207.32,50.02c-0.08,0-0.14,0-0.22,0
			c0-0.08,0-0.16,0-0.25c0.07,0,0.14,0,0.22,0C207.32,49.85,207.32,49.93,207.32,50.02z M209.88,49.46c-0.97,0-1.93,0-2.9,0
			c-0.01-0.13-0.02-0.25-0.03-0.38c-0.03-0.45-0.06-0.91-0.09-1.36c0-0.03,0.01-0.08,0.04-0.1c0.45-0.47,0.89-0.93,1.34-1.4
			c0.18-0.19,0.36-0.38,0.55-0.57c0.02-0.02,0.04-0.05,0.06-0.08c0.07,0.07,0.13,0.14,0.19,0.2c0.37,0.4,0.74,0.8,1.1,1.2
			c0.28,0.3,0.56,0.6,0.83,0.91c0.02,0.02,0.03,0.07,0.03,0.1c0,0.12-0.01,0.24-0.02,0.35C210.32,48.35,209.86,48.81,209.88,49.46z
			 M211.75,49.38c0.01,0.44-0.38,0.85-0.87,0.83c-0.45-0.02-0.82-0.4-0.8-0.87c0.02-0.43,0.4-0.8,0.84-0.8
			C211.38,48.55,211.76,48.93,211.75,49.38z M211.62,48.6c-0.14-0.08-0.27-0.15-0.42-0.23c0.01-0.05,0.01-0.11,0.02-0.2
			C211.36,48.32,211.49,48.46,211.62,48.6z M211.03,47.39c-0.65-0.7-1.29-1.39-1.93-2.08c0.75-0.78,1.49-1.56,2.24-2.34
			C211.24,44.44,211.14,45.9,211.03,47.39z M211.43,41.67c-0.04,0.14-0.02,0.27-0.03,0.41c-0.01,0.11-0.01,0.22-0.02,0.32
			c0,0.02-0.02,0.05-0.03,0.07c-0.29,0.31-0.59,0.61-0.88,0.91c0,0,0,0-0.02,0c0-0.17,0-0.34,0-0.52c-0.74,0-1.47,0-2.21,0
			c0,0.26,0,0.51,0,0.77c0.66,0,1.32,0,1.99,0c-0.46,0.48-0.91,0.95-1.37,1.42c-0.15-0.16-0.3-0.32-0.45-0.48
			c-0.27-0.29-0.53-0.58-0.8-0.87c-0.37-0.4-0.74-0.8-1.11-1.2c-0.02-0.02-0.04-0.06-0.04-0.1c-0.02-0.26-0.04-0.51-0.06-0.77
			c-0.01-0.14-0.02-0.29-0.03-0.44c1.69,0,3.39,0,5.09,0C211.46,41.35,211.47,41.52,211.43,41.67z M207.37,40.71
			c0-0.16,0-0.32,0-0.47c0-0.18,0-0.19,0.17-0.22c0.26-0.05,0.51-0.08,0.78-0.12c0,0.13,0,0.24,0,0.35c0.59,0,1.16,0,1.75,0
			c0-0.1,0-0.19,0-0.29c0.18,0.04,0.34,0.07,0.51,0.11c0.36,0.1,0.71,0.24,1.03,0.44c0.02,0.01,0.03,0.02,0.05,0.03
			c0.08,0.04,0.09,0.09,0.05,0.17C210.26,40.71,208.82,40.71,207.37,40.71z M212.41,42.6c-0.26,0-0.51,0-0.77,0
			c0-0.21,0-0.42,0-0.64c0.02,0,0.04-0.01,0.07-0.01c0.21,0,0.42,0,0.63,0c0.02,0,0.07,0.03,0.07,0.04
			C212.41,42.19,212.41,42.39,212.41,42.6z"/>
		<path class="st0" d="M204.06,54.02c0,0.04,0,0.07,0,0.1c0,0.6,0,1.2,0,1.8c0,0.17,0,0.34,0,0.52c3.26,0,6.51,0,9.77,0
			c0-0.02,0-0.03,0-0.05c0-0.75,0-1.51,0-2.26c0-0.03,0-0.06,0-0.09C210.57,54.02,207.32,54.02,204.06,54.02z"/>
		<path class="st0" d="M210.92,48.96c-0.23,0-0.42,0.19-0.42,0.41c0,0.24,0.18,0.42,0.41,0.42c0.24,0,0.42-0.17,0.42-0.41
			C211.33,49.15,211.15,48.96,210.92,48.96z"/>
		<path class="st0" d="M192.37,40.56c-0.61-0.03-1.23,0.02-1.84,0.16c-3.5,0.77-5.87,4.12-5.4,7.63c0.31,2.27,1.49,4.02,3.5,5.19
			c1.04,0.61,2.18,0.91,3.4,0.91c0.23,0,0.47-0.01,0.7-0.03l0.13-0.01v-2.35l-0.16,0.02c-2.79,0.39-4.75-1.72-5.12-3.41h3.89v-2.32
			h-3.91c0.45-1.82,2.12-3.26,3.98-3.43c0.26-0.02,0.54-0.02,0.8-0.01c0.13,0,0.25,0.01,0.38,0.01l0.14,0v-2.34l-0.25,0
			C192.53,40.57,192.45,40.57,192.37,40.56z M192.57,42.63c-0.08,0-0.15,0-0.23-0.01c-0.27-0.01-0.56-0.02-0.84,0.01
			c-1.98,0.19-3.76,1.73-4.24,3.67c-0.01,0.04-0.01,0.08-0.01,0.12c0,0.02,0,0.04,0,0.06l-0.01,0.15h3.94v1.75h-3.94l0.03,0.16
			c0.32,1.94,2.31,3.86,4.79,3.86c0.17,0,0.34-0.01,0.52-0.03v1.77c-1.38,0.11-2.66-0.18-3.8-0.85c-1.93-1.13-3.06-2.8-3.36-4.98
			c-0.45-3.31,1.87-6.59,5.18-7.32c0.48-0.11,0.97-0.16,1.46-0.16c0.1,0,0.21,0,0.31,0.01c0.07,0,0.15,0,0.22,0.01V42.63z"/>
		<path class="st0" d="M177.44,51.09c-0.97-0.79-1.6-1.94-1.71-3.16c-0.12-1.33,0.27-2.5,1.14-3.47c1.08-1.2,2.47-1.72,4.12-1.55
			l0.16,0.02V40.6l-0.13-0.01c-0.49-0.04-1.12-0.07-1.77,0.06c-2.39,0.47-4.11,1.74-5.11,3.75l-0.01,0.02
			c-0.2,0.41-0.37,0.85-0.52,1.32l-0.02,0.08c-0.11,0.38-0.17,0.76-0.2,1.11c-0.01,0.07-0.01,0.15-0.01,0.22c0,0.1,0,0.2,0,0.3
			c0.01,0.22,0.02,0.49,0.04,0.72c0.06,0.77,0.17,1.22,0.51,1.98c0,0,0,0.01,0,0.01c0.08,0.19,0.17,0.37,0.26,0.55l0,0
			c0,0,0,0,0,0.01l0.03,0.07l0.01,0.02c1.08,2.03,2.87,3.25,5.32,3.62c0.26,0.04,0.51,0.06,0.77,0.06c0.24,0,0.47-0.02,0.71-0.05
			l0.12-0.02v-2.33l-0.16,0.02C179.7,52.25,178.44,51.9,177.44,51.09z M180.87,54.15c-0.42,0.05-0.84,0.04-1.27-0.02
			c-2.35-0.36-4.06-1.52-5.1-3.46l0-0.02l-0.03-0.03l-0.02-0.05c-0.03-0.05-0.05-0.11-0.08-0.16c-0.07-0.14-0.13-0.26-0.18-0.38
			l-0.01-0.01c-0.32-0.71-0.43-1.13-0.48-1.87c-0.02-0.23-0.03-0.49-0.03-0.71c0-0.09,0-0.19,0-0.28c0-0.07,0.01-0.14,0.01-0.21
			c0.03-0.34,0.09-0.69,0.19-1.05l0.02-0.08c0.14-0.45,0.31-0.89,0.5-1.28l-0.13-0.06l0.14,0.05c0.95-1.93,2.61-3.15,4.91-3.6
			c0.55-0.11,1.11-0.1,1.56-0.07v1.76c-1.68-0.13-3.09,0.43-4.2,1.66c-0.93,1.03-1.34,2.27-1.21,3.68c0.12,1.29,0.78,2.52,1.81,3.35
			c1.02,0.82,2.29,1.2,3.61,1.08V54.15z"/>
		<path class="st0" d="M153.87,48.67c-0.08,0.09-0.16,0.18-0.24,0.27c-0.06-0.21-0.15-0.44-0.27-0.66c-0.06-0.1-0.14-0.24-0.28-0.33
			c-0.19-0.14-0.42-0.18-0.63-0.09c-0.21,0.08-0.36,0.27-0.4,0.48c-0.03,0.15-0.01,0.31,0.06,0.5c0.17,0.45,0.35,0.91,0.53,1.36
			l0.02,0.06c0.04,0.11,0.09,0.23,0.16,0.34c0.1,0.15,0.24,0.24,0.41,0.26c0.03,0,0.06,0.01,0.09,0.01c0.16,0,0.32-0.05,0.46-0.16
			c0.16-0.12,0.28-0.29,0.38-0.44c0.72-1.09,1.53-2.12,2.41-3.06l0.05-0.05c0.14-0.14,0.28-0.29,0.42-0.43
			c0.12-0.1,0.06-0.2,0.05-0.22c-0.02-0.03-0.08-0.1-0.21-0.07l-0.03,0.01c-0.06,0.02-0.13,0.03-0.19,0.05
			c-0.34,0.1-0.68,0.28-1.04,0.55C155.04,47.47,154.46,48.01,153.87,48.67z M156.54,46.83c-0.04,0.04-0.08,0.08-0.11,0.12
			l-0.05,0.05c-0.9,0.95-1.72,1.99-2.44,3.1c-0.09,0.14-0.19,0.28-0.31,0.37c-0.12,0.09-0.23,0.12-0.35,0.1
			c-0.09-0.01-0.15-0.06-0.21-0.14c-0.06-0.08-0.09-0.18-0.13-0.28l-0.03-0.07c-0.18-0.45-0.35-0.91-0.53-1.36
			c-0.05-0.13-0.07-0.24-0.05-0.34c0.02-0.12,0.11-0.22,0.23-0.27c0.04-0.02,0.08-0.02,0.12-0.02c0.08,0,0.16,0.03,0.23,0.08
			c0.09,0.07,0.15,0.16,0.2,0.25c0.15,0.27,0.24,0.57,0.3,0.79c0,0,0,0.01,0,0.01l0.01,0.04h0l0,0.01l0,0l0.01,0.04l0.06,0.22
			l0.31-0.36c0.09-0.11,0.18-0.21,0.28-0.32c0.58-0.64,1.14-1.17,1.72-1.6C156.05,47.06,156.29,46.92,156.54,46.83z"/>
		<path class="st0" d="M154.6,42.96c-0.22-0.26-0.54-0.42-0.88-0.42c-0.34,0-0.67,0.15-0.88,0.41l-7.1,8.49
			c-0.29,0.35-0.35,0.82-0.16,1.23c0.19,0.41,0.59,0.66,1.04,0.67l14.18,0.02c0.45,0,0.85-0.25,1.04-0.66
			c0.19-0.41,0.13-0.88-0.16-1.23L154.6,42.96z M161.57,52.58c-0.15,0.31-0.45,0.5-0.79,0.5l-14.18-0.02c-0.34,0-0.64-0.19-0.79-0.5
			c-0.14-0.31-0.1-0.66,0.12-0.92l7.1-8.49c0.17-0.2,0.41-0.31,0.67-0.31c0.26,0,0.5,0.11,0.67,0.31l7.08,8.51
			C161.67,51.91,161.72,52.27,161.57,52.58z"/>
		<path class="st0" d="M154.69,41.17c-0.24-0.29-0.6-0.46-0.98-0.46c-0.38,0-0.74,0.17-0.98,0.46l-8.24,9.86
			c-0.5,0.6-0.61,1.41-0.28,2.11c0.33,0.71,1.02,1.15,1.8,1.15l15.35,0.02c0.78,0,1.47-0.44,1.8-1.14c0.33-0.71,0.23-1.52-0.27-2.12
			L154.69,41.17z M162.92,53.04c-0.28,0.61-0.88,0.98-1.54,0.98L146.02,54c-0.67,0-1.26-0.38-1.54-0.98
			c-0.28-0.61-0.19-1.3,0.24-1.81l8.24-9.85c0.19-0.23,0.47-0.36,0.76-0.36c0.29,0,0.57,0.13,0.76,0.36l8.21,9.88
			C163.11,51.75,163.2,52.44,162.92,53.04z"/>
		<path class="st0" d="M156.99,47.07l-0.27,0.32c-0.13,0.15-0.25,0.3-0.38,0.45c-0.07,0.08-0.04,0.17-0.03,0.21
			c0.17,0.53,0.2,1.07,0.07,1.62c-0.36,1.51-1.94,2.5-3.46,2.15c-0.79-0.18-1.45-0.66-1.87-1.34c-0.41-0.69-0.52-1.49-0.31-2.27
			c0.41-1.54,2-2.46,3.54-2.06c0.42,0.11,0.79,0.3,1.13,0.58c0.12,0.1,0.22,0.03,0.24,0c0.17-0.15,0.36-0.3,0.55-0.44l0.13-0.1
			l-0.12-0.12c-1.13-1.09-3.27-1.55-5.01-0.26c-1.72,1.28-2.1,3.74-0.84,5.47c0.77,1.06,1.98,1.62,3.2,1.62
			c0.79,0,1.58-0.23,2.26-0.71c1.81-1.28,2.01-3.5,1.28-4.94L156.99,47.07z M155.64,51.96c-1.62,1.15-3.89,0.77-5.06-0.85
			c-1.17-1.61-0.82-3.89,0.78-5.08c0.69-0.51,1.45-0.73,2.18-0.73c0.9,0,1.75,0.34,2.34,0.85c-0.13,0.1-0.25,0.2-0.36,0.3
			c-0.35-0.27-0.74-0.47-1.18-0.58c-1.69-0.44-3.43,0.57-3.88,2.26c-0.23,0.85-0.11,1.74,0.35,2.49c0.45,0.75,1.18,1.28,2.05,1.48
			c1.7,0.39,3.4-0.67,3.8-2.36c0.14-0.59,0.12-1.17-0.06-1.74c0.11-0.13,0.23-0.27,0.34-0.4C157.49,48.91,157.24,50.83,155.64,51.96
			z"/>
		<path class="st0" d="M117.1,47.69c0.39-0.46,0.59-1.1,0.59-1.88c0-0.78-0.2-1.42-0.58-1.88c-0.41-0.49-0.93-0.73-1.56-0.73
			l-3.58-0.01l-0.01,8.36v0.14l1.71,0l0-3.31l1.25,0l1.35,3.31l1.86,0l-1.53-3.61C116.8,47.99,116.97,47.86,117.1,47.69z
			 M117.71,51.42l-1.26,0l-1.35-3.31l-1.71,0l0,3.31l-1.16,0l0.01-7.94l3.3,0c0.54,0,1,0.21,1.35,0.64
			c0.35,0.41,0.52,0.99,0.52,1.71c0,0.72-0.18,1.29-0.53,1.7c-0.14,0.16-0.31,0.28-0.53,0.37l-0.13,0.05L117.71,51.42z"/>
		<path class="st0" d="M115.36,44.61l-1.96,0l0,2.35l2.07,0c0.21,0,0.38-0.09,0.53-0.26c0.15-0.18,0.23-0.49,0.23-0.89
			c0-0.38-0.09-0.68-0.27-0.89C115.78,44.71,115.59,44.61,115.36,44.61z M115.78,46.52c-0.1,0.11-0.19,0.16-0.32,0.16l-1.8,0l0-1.8
			l1.68,0c0.15,0,0.27,0.06,0.39,0.21c0.13,0.16,0.2,0.4,0.2,0.71C115.95,46.14,115.89,46.4,115.78,46.52z"/>
		<path class="st0" d="M119.98,47.17L119.98,47.17c-0.26,0-0.47,0.1-0.64,0.31c-0.28,0.33-0.42,0.78-0.42,1.34
			c0,0.56,0.13,0.99,0.38,1.29c0.2,0.24,0.42,0.35,0.68,0.35c0.26,0,0.48-0.11,0.68-0.35c0.25-0.3,0.38-0.73,0.38-1.29
			c0-0.56-0.14-1.01-0.42-1.34C120.45,47.27,120.25,47.17,119.98,47.17z M120.45,49.93c-0.14,0.17-0.3,0.25-0.47,0.25
			c-0.17,0-0.32-0.08-0.47-0.25c-0.21-0.25-0.31-0.62-0.31-1.12c0-0.49,0.12-0.88,0.35-1.16c0.12-0.15,0.25-0.21,0.43-0.21
			c0.18,0,0.31,0.06,0.43,0.21c0.23,0.28,0.35,0.67,0.35,1.16C120.76,49.31,120.66,49.68,120.45,49.93z"/>
		<path class="st0" d="M119.99,45.8L119.99,45.8c-0.68,0-1.26,0.28-1.71,0.82c-0.49,0.58-0.74,1.32-0.74,2.19
			c0,0.87,0.25,1.61,0.73,2.2c0.46,0.55,1.03,0.82,1.72,0.82c0.68,0,1.25-0.28,1.71-0.82c0.49-0.58,0.74-1.32,0.74-2.19
			c0-0.87-0.25-1.61-0.73-2.2C121.24,46.07,120.67,45.8,119.99,45.8z M121.48,50.83c-0.4,0.48-0.91,0.72-1.5,0.72
			c-0.59,0-1.1-0.24-1.5-0.73c-0.45-0.53-0.67-1.21-0.67-2.02c0-0.81,0.23-1.49,0.68-2.02c0.4-0.48,0.91-0.72,1.5-0.72
			c0.59,0,1.1,0.24,1.5,0.73c0.45,0.53,0.67,1.21,0.67,2.02C122.16,49.62,121.93,50.3,121.48,50.83z"/>
		<path class="st0" d="M126.56,46.48l-2.24,0l0-3.22l-1.71,0l-0.01,8.36v0.14l1.71,0l0.01-3.58l2.24,0l-0.01,3.58l1.71,0l0.01-8.36
			v-0.14l-1.71,0L126.56,46.48z M126.84,43.53l1.16,0l-0.01,7.94l-1.16,0l0.01-3.58l-2.79,0l-0.01,3.58l-1.16,0l0.01-7.94l1.16,0
			l0,3.22l2.79,0L126.84,43.53z"/>
		<path class="st0" d="M133.7,47.8c-0.21-0.25-0.45-0.44-0.7-0.55c-0.75-0.4-1.39-0.74-1.97-1.04c-0.35-0.16-0.48-0.28-0.53-0.34
			c0,0-0.05-0.07-0.05-0.31c0-0.17,0.05-0.31,0.17-0.45c0.11-0.13,0.39-0.21,0.77-0.21c0.35,0,0.59,0.08,0.73,0.25
			c0.14,0.16,0.2,0.37,0.2,0.63l0,0.42l1.71,0l0-0.42c0-0.67-0.21-1.25-0.62-1.75c-0.48-0.58-1.19-0.87-2.09-0.87
			c-0.85,0-1.5,0.26-1.93,0.77c-0.42,0.49-0.63,1.08-0.63,1.75c0,0.55,0.15,1,0.43,1.35c0.19,0.22,0.41,0.4,0.66,0.51
			c0.27,0.15,0.63,0.34,1.09,0.58c0.39,0.21,0.72,0.39,0.97,0.54c0.23,0.12,0.39,0.24,0.48,0.35c0.09,0.1,0.13,0.23,0.13,0.4
			c0,0.14-0.07,0.28-0.2,0.45c-0.17,0.2-0.44,0.3-0.84,0.3c-0.45,0-0.76-0.11-0.96-0.34c-0.13-0.16-0.2-0.47-0.2-0.89l0-0.42
			l-1.71,0l0,0.42c0,0.84,0.2,1.51,0.58,1.97c0.53,0.63,1.28,0.96,2.25,0.96c0.97,0,1.7-0.28,2.16-0.82
			c0.42-0.49,0.63-1.1,0.63-1.79C134.22,48.69,134.04,48.21,133.7,47.8L133.7,47.8z M133.38,50.85c-0.4,0.48-1.06,0.72-1.95,0.72
			c-0.87,0-1.55-0.29-2.03-0.86c-0.35-0.41-0.52-1.02-0.52-1.8l0-0.15l1.16,0l0,0.15c0,0.49,0.09,0.86,0.26,1.07
			c0.25,0.3,0.63,0.44,1.17,0.44c0.48,0,0.83-0.13,1.05-0.39c0.18-0.21,0.27-0.42,0.27-0.62c0-0.24-0.06-0.42-0.19-0.58
			c-0.11-0.13-0.3-0.27-0.55-0.41c-0.25-0.15-0.58-0.33-0.98-0.54c-0.46-0.24-0.81-0.43-1.09-0.58c-0.22-0.1-0.41-0.25-0.57-0.44
			c-0.25-0.29-0.37-0.69-0.37-1.17c0-0.6,0.19-1.13,0.56-1.57c0.38-0.45,0.96-0.68,1.73-0.68c0.82,0,1.45,0.26,1.88,0.77
			c0.37,0.44,0.56,0.97,0.56,1.57l0,0.15l-1.16,0l0-0.15c0-0.33-0.09-0.59-0.27-0.8c-0.2-0.24-0.51-0.35-0.94-0.35
			c-0.47,0-0.81,0.11-0.97,0.3c-0.15,0.18-0.23,0.39-0.23,0.62c0,0.29,0.06,0.42,0.11,0.49c0.11,0.13,0.32,0.27,0.62,0.41
			c0.57,0.3,1.21,0.64,1.97,1.04c0.22,0.1,0.42,0.26,0.61,0.48c0.3,0.36,0.45,0.78,0.45,1.26
			C133.94,49.87,133.75,50.41,133.38,50.85z"/>
		<path class="st0" d="M77.5,44.73c-0.63-0.93-1.47-1.66-2.57-2.23c-1.29-0.67-2.69-1.01-4.28-1.04l-0.01,0
			c-0.13,0.01-0.26,0.02-0.39,0.03c-0.28,0.02-0.57,0.04-0.86,0.07c-0.86,0.1-1.71,0.32-2.52,0.68c-1.24,0.54-2.19,1.27-2.91,2.23
			c-0.81,1.08-1.15,2.28-1.02,3.57c0.05,0.5,0.19,1,0.41,1.48c0.49,1.07,1.27,1.93,2.38,2.64c1.21,0.78,2.58,1.22,4.16,1.35
			c0.25,0.02,0.5,0.03,0.75,0.03c0.61,0,1.22-0.06,1.83-0.18c1.23-0.24,2.33-0.69,3.28-1.34c0.91-0.63,1.59-1.37,2.06-2.26
			c0.47-0.89,0.64-1.86,0.52-2.86C78.25,46.15,77.96,45.42,77.5,44.73z M77.58,49.65c-0.45,0.85-1.09,1.56-1.97,2.17
			c-0.93,0.64-1.97,1.07-3.18,1.3c-0.84,0.16-1.68,0.21-2.51,0.14c-1.54-0.13-2.87-0.55-4.04-1.31c-1.07-0.69-1.82-1.52-2.29-2.53
			c-0.21-0.46-0.34-0.93-0.39-1.4c-0.13-1.22,0.2-2.36,0.97-3.39c0.69-0.92,1.61-1.62,2.81-2.15c0.79-0.35,1.61-0.57,2.45-0.66
			c0.28-0.03,0.57-0.05,0.85-0.07l0.06,0c0.11-0.01,0.22-0.02,0.32-0.02c1.55,0.03,2.91,0.35,4.16,1.01
			c1.06,0.55,1.87,1.25,2.47,2.15c0.44,0.65,0.71,1.35,0.8,2.07C78.19,47.9,78.03,48.81,77.58,49.65z"/>
		<path class="st0" d="M75.94,42.04c-1.58-0.96-3.31-1.41-5.46-1.43c-0.05,0-0.11,0.01-0.18,0.01l-0.02,0
			c-0.21,0.01-0.46,0.03-0.72,0.05c-1.09,0.1-2.14,0.37-3.12,0.8c-1.45,0.64-2.56,1.51-3.37,2.65c-0.81,1.14-1.19,2.4-1.11,3.74
			c0.06,0.96,0.36,1.88,0.9,2.73c0.75,1.18,1.8,2.09,3.19,2.78c1.41,0.69,2.95,1.04,4.59,1.04c0.27,0,0.54-0.01,0.81-0.03
			c1.07-0.07,2.1-0.3,3.06-0.68c1.48-0.58,2.63-1.41,3.52-2.52c0.79-0.99,1.23-2.09,1.32-3.28c0.07-1.04-0.13-2.04-0.62-2.98
			C78.1,43.75,77.19,42.8,75.94,42.04z M79.05,47.89c-0.08,1.13-0.5,2.18-1.26,3.13c-0.85,1.07-1.97,1.86-3.4,2.43
			c-0.93,0.37-1.93,0.59-2.98,0.66c-1.89,0.13-3.66-0.2-5.26-0.99c-1.35-0.66-2.36-1.54-3.08-2.68c-0.52-0.81-0.81-1.69-0.86-2.6
			c-0.07-1.28,0.28-2.48,1.06-3.56c0.79-1.1,1.85-1.94,3.26-2.56c0.96-0.42,1.98-0.68,3.04-0.78c0.26-0.02,0.53-0.04,0.72-0.05
			l0.02,0c0.07,0,0.13-0.01,0.17-0.01c2.09,0.02,3.77,0.46,5.31,1.39c1.21,0.74,2.09,1.65,2.67,2.78
			C78.93,45.95,79.12,46.9,79.05,47.89z"/>
		<path class="st0" d="M72.47,47.67c-0.05-0.62,0.11-1.19,0.47-1.68c0.44-0.6,1.02-0.92,1.75-0.95l0.13-0.01l0-1.41l-0.19,0
			c-0.04,0-0.08,0-0.11,0l-0.11,0.01c-0.11,0.01-0.22,0.02-0.33,0.04c-0.82,0.17-1.49,0.55-2.02,1.13l0-1.21l-0.15,0.01
			c-0.05,0-0.09,0.01-0.14,0.01c-0.1,0.01-0.19,0.01-0.28,0.02c-0.87,0.13-1.6,0.52-2.18,1.16l0-1.22l-0.15,0.02
			c-0.06,0.01-0.12,0.01-0.19,0.02c-0.13,0.01-0.27,0.02-0.4,0.05c-0.92,0.18-1.67,0.66-2.23,1.4c-0.73,0.99-0.97,2.08-0.7,3.25
			c0.37,1.6,1.36,2.59,2.94,2.94c0.15,0.03,0.3,0.05,0.45,0.06c0.07,0.01,0.13,0.01,0.2,0.02l0.15,0.02l0-1.14
			c0.1,0.1,0.2,0.19,0.3,0.28c0.52,0.44,1.14,0.71,1.83,0.81c0.11,0.01,0.21,0.02,0.32,0.03l0.02,0c0.04,0,0.08,0,0.13,0.01
			l0.15,0.01l0-1.12c0.5,0.52,1.13,0.87,1.82,1.03c0.18,0.04,0.35,0.06,0.53,0.08c0.08,0.01,0.16,0.02,0.23,0.03l0.16,0.02l0-1.46
			l-0.14,0C73.55,49.92,72.57,48.95,72.47,47.67z M69.12,51.06c-0.02,0-0.04,0-0.06,0c-0.14-0.01-0.28-0.02-0.41-0.05
			c-1.47-0.33-2.38-1.25-2.73-2.74c-0.25-1.09-0.03-2.11,0.65-3.02c0.52-0.69,1.21-1.13,2.06-1.3c0.12-0.02,0.24-0.03,0.37-0.05
			c0.01,0,0.03,0,0.04,0l0,0.88c-0.72,0.06-1.32,0.39-1.79,1c-0.43,0.56-0.62,1.24-0.55,2c0.1,1.14,1.03,2.34,2.4,2.42L69.12,51.06z
			 M66.99,47.75c-0.06-0.69,0.1-1.3,0.49-1.81c0.43-0.56,0.99-0.86,1.65-0.9c-0.77,1-1.01,2.14-0.71,3.4
			c0.13,0.55,0.36,1.04,0.7,1.47C67.9,49.84,67.08,48.77,66.99,47.75z M71.86,51.06L71.86,51.06c-0.11-0.01-0.21-0.01-0.3-0.02
			c-0.64-0.09-1.21-0.34-1.69-0.75c-0.61-0.51-1-1.15-1.18-1.91c-0.29-1.22-0.04-2.32,0.75-3.27c0.54-0.66,1.25-1.06,2.11-1.18
			c0.08-0.01,0.16-0.02,0.25-0.02l0,0.87c-0.69,0.06-1.27,0.37-1.73,0.93c-0.45,0.56-0.66,1.23-0.61,1.99
			c0.07,1.17,0.99,2.41,2.41,2.49L71.86,51.06z M69.73,47.68c-0.04-0.69,0.14-1.3,0.55-1.8c0.42-0.52,0.96-0.8,1.6-0.84
			c-0.14,0.18-0.26,0.37-0.37,0.58c-0.44,0.82-0.56,1.72-0.37,2.69c0.12,0.58,0.37,1.14,0.73,1.6
			C70.61,49.83,69.8,48.74,69.73,47.68z M74.61,51.07c-0.03,0-0.06-0.01-0.09-0.01c-0.17-0.02-0.33-0.03-0.49-0.07
			c-1.32-0.3-2.34-1.37-2.62-2.73c-0.18-0.9-0.07-1.75,0.34-2.51c0.52-0.98,1.33-1.59,2.4-1.81c0.1-0.02,0.2-0.03,0.3-0.04
			l0.11-0.01c0,0,0,0,0,0l0,0.88c-0.75,0.06-1.37,0.42-1.83,1.05c-0.4,0.55-0.58,1.18-0.52,1.87c0.11,1.37,1.14,2.43,2.41,2.5
			L74.61,51.07z"/>
		<path class="st0" d="M95.95,42.32c-0.04-0.07-0.12-0.11-0.19-0.11c-0.08-0.01-0.16,0.03-0.2,0.11l-0.95,1.64l2.29,0L95.95,42.32z
			 M95.76,42.52l0.67,1.16l-1.34,0L95.76,42.52z"/>
		<path class="st0" d="M93.16,45.54c0.12,0.07,0.26,0.11,0.4,0.11c0.24,0,0.47-0.11,0.62-0.31l0.13-0.22l2.9,0l0.13,0.22l0.01,0.01
			c0.15,0.19,0.37,0.3,0.62,0.3c0,0,0,0,0,0c0.14,0,0.28-0.04,0.4-0.11c0.25-0.15,0.41-0.42,0.41-0.72c0-0.15-0.04-0.29-0.11-0.42
			l-2-3.47c-0.07-0.12-0.16-0.23-0.27-0.31c-0.18-0.14-0.4-0.21-0.63-0.21c-0.23,0-0.44,0.08-0.62,0.21
			c-0.11,0.08-0.2,0.19-0.27,0.31l-2.01,3.46C92.63,44.8,92.76,45.31,93.16,45.54z M93.1,44.54l2.01-3.46
			c0.05-0.09,0.12-0.17,0.2-0.23c0.13-0.1,0.29-0.16,0.46-0.16c0.17,0,0.33,0.06,0.46,0.16c0.08,0.06,0.15,0.14,0.2,0.23l2,3.47
			c0.05,0.09,0.08,0.18,0.08,0.28c0,0.2-0.11,0.38-0.28,0.48c-0.22,0.13-0.5,0.08-0.65-0.11l-0.2-0.35l-3.21,0l-0.19,0.34
			c-0.1,0.12-0.24,0.19-0.4,0.19c-0.09,0-0.18-0.02-0.26-0.07C93.03,45.15,92.94,44.81,93.1,44.54z"/>
		<path class="st0" d="M91.03,50.08C91.01,50.12,91,50.16,91,50.2l0,0.05l0.04,0.04c0.04,0.04,0.1,0.06,0.15,0.06l1.86,0l-1.09-1.88
			L91.03,50.08z M92.58,50.07l-1.23,0l0.61-1.06L92.58,50.07z"/>
		<path class="st0" d="M94.26,50.12l-1.02-1.77l-0.48-0.83c0.06-0.11,0.09-0.24,0.09-0.37c0-0.14-0.04-0.28-0.11-0.41
			c-0.07-0.12-0.18-0.22-0.3-0.29c-0.12-0.07-0.26-0.1-0.39-0.09c-0.21,0.01-0.41,0.11-0.55,0.28l-0.98,1.68l-1.01,1.76
			c-0.06,0.1-0.1,0.2-0.12,0.31c-0.05,0.23-0.02,0.48,0.1,0.7l0.07,0.11l0.02,0.03h0c0.04,0.06,0.09,0.11,0.14,0.16
			c0.04,0.03,0.08,0.06,0.11,0.09c0.01,0.01,0.03,0.02,0.05,0.03l0.02,0.01c0.07,0.04,0.13,0.06,0.19,0.08
			c0.1,0.03,0.21,0.05,0.33,0.05l1.24,0l2.75-0.01l0.02,0c0.14-0.03,0.27-0.1,0.37-0.2c0.05-0.05,0.09-0.1,0.12-0.15
			c0.07-0.11,0.11-0.24,0.11-0.37c0-0.14-0.03-0.27-0.09-0.39C94.8,50.29,94.54,50.13,94.26,50.12z M94.68,51.16L94.68,51.16
			c-0.02,0.03-0.04,0.07-0.08,0.1c-0.06,0.06-0.14,0.1-0.22,0.12l-2.73,0.01l-1.24,0c-0.08,0-0.17-0.01-0.24-0.04
			c-0.04-0.01-0.09-0.03-0.13-0.06l-0.02-0.01c-0.01-0.01-0.02-0.01-0.03-0.02c-0.03-0.02-0.06-0.04-0.08-0.06
			c-0.05-0.05-0.1-0.1-0.14-0.16l-0.04-0.06c-0.08-0.16-0.11-0.34-0.07-0.51c0.02-0.08,0.04-0.15,0.09-0.23l1.01-1.76l0.96-1.66
			c0.09-0.1,0.21-0.16,0.35-0.17c0.01,0,0.02,0,0.03,0c0.08,0,0.15,0.02,0.22,0.06c0.08,0.04,0.15,0.11,0.2,0.2
			c0.04,0.08,0.07,0.16,0.07,0.25c0,0.09-0.02,0.18-0.07,0.25l-0.07,0.12l1.66,2.88l0.13,0c0.19,0,0.36,0.11,0.45,0.27
			c0.04,0.08,0.06,0.16,0.06,0.25C94.75,51.01,94.72,51.09,94.68,51.16z"/>
		<path class="st0" d="M101.95,50.11l-1-1.76l-0.97-1.68l-0.01-0.01c-0.13-0.17-0.33-0.27-0.55-0.28c-0.14-0.01-0.27,0.02-0.39,0.09
			c-0.12,0.07-0.23,0.17-0.3,0.29l-0.01,0.01c-0.07,0.12-0.11,0.26-0.11,0.4c0,0.13,0.03,0.25,0.09,0.37l-1.51,2.6
			c-0.28,0.01-0.54,0.17-0.67,0.42c-0.06,0.12-0.1,0.25-0.09,0.39c0,0.13,0.04,0.26,0.11,0.37c0.03,0.05,0.07,0.11,0.12,0.15
			c0.1,0.1,0.23,0.17,0.39,0.2l2.76,0.02l1.24,0c0.11,0,0.22-0.02,0.32-0.05c0.06-0.02,0.12-0.05,0.19-0.08l0.01-0.01
			c0.02-0.01,0.03-0.02,0.04-0.03c0.04-0.03,0.08-0.06,0.12-0.09c0.06-0.06,0.12-0.12,0.16-0.19l0.07-0.12
			c0.11-0.21,0.15-0.46,0.1-0.69C102.04,50.31,102,50.21,101.95,50.11z M101.72,50.98l-0.04,0.07c-0.04,0.06-0.08,0.11-0.14,0.16
			c-0.03,0.02-0.06,0.05-0.09,0.07c-0.01,0.01-0.01,0.01-0.03,0.02l-0.01,0.01c-0.05,0.03-0.09,0.05-0.14,0.06
			c-0.08,0.02-0.16,0.04-0.24,0.04l-3.97-0.02c-0.09-0.02-0.16-0.06-0.22-0.12c-0.03-0.03-0.05-0.06-0.08-0.1
			c-0.04-0.07-0.07-0.15-0.07-0.23c0-0.09,0.02-0.18,0.06-0.25c0.09-0.17,0.26-0.27,0.45-0.27l0.13,0l1.1-1.9l0.57-0.97l-0.07-0.12
			c-0.04-0.08-0.07-0.16-0.07-0.25c0-0.09,0.02-0.18,0.07-0.26c0.05-0.08,0.12-0.15,0.2-0.19c0.08-0.04,0.16-0.06,0.25-0.06
			c0.13,0.01,0.26,0.07,0.34,0.16l0.96,1.67l1,1.76c0.04,0.07,0.07,0.15,0.09,0.23C101.83,50.65,101.8,50.82,101.72,50.98z"/>
		<path class="st0" d="M99.5,48.47l-1.1,1.88l1.86,0.01c0.06,0,0.11-0.02,0.15-0.06l0.04-0.04l0-0.05c0-0.04-0.01-0.08-0.03-0.12
			L99.5,48.47z M98.88,50.08l0.62-1.06l0.61,1.06L98.88,50.08z"/>
		<path class="st0" d="M92.74,52.39C92.74,52.39,92.74,52.39,92.74,52.39c-0.22,0-0.39,0.09-0.5,0.26
			c-0.11,0.17-0.17,0.43-0.17,0.78c0,0.69,0.23,1.04,0.67,1.04c0,0,0,0,0,0c0.22,0,0.39-0.09,0.5-0.26
			c0.11-0.17,0.17-0.43,0.17-0.78c0-0.34-0.06-0.6-0.17-0.78C93.14,52.48,92.96,52.39,92.74,52.39z M93.01,54.05
			c-0.06,0.12-0.15,0.18-0.27,0.18c0,0,0,0,0,0c-0.08,0-0.15-0.03-0.2-0.08c-0.05-0.05-0.1-0.14-0.13-0.25
			c-0.03-0.11-0.04-0.27-0.04-0.46c0-0.28,0.03-0.49,0.1-0.61c0.06-0.12,0.15-0.18,0.27-0.18c0,0,0,0,0,0c0.08,0,0.15,0.03,0.2,0.08
			c0.06,0.05,0.1,0.14,0.13,0.25c0.03,0.11,0.04,0.27,0.04,0.47C93.11,53.72,93.08,53.92,93.01,54.05z"/>
		<path class="st0" d="M94.3,52.39C94.3,52.39,94.3,52.39,94.3,52.39c-0.22,0-0.39,0.09-0.5,0.26c-0.11,0.17-0.17,0.43-0.17,0.78
			c0,0.69,0.23,1.04,0.67,1.04c0,0,0,0,0,0c0.22,0,0.39-0.09,0.5-0.26c0.11-0.17,0.17-0.43,0.17-0.78c0-0.34-0.06-0.6-0.17-0.78
			C94.7,52.48,94.53,52.39,94.3,52.39z M94.57,54.05c-0.06,0.12-0.15,0.18-0.27,0.18c0,0,0,0,0,0c-0.08,0-0.15-0.03-0.2-0.08
			c-0.05-0.05-0.1-0.14-0.13-0.25c-0.03-0.11-0.04-0.27-0.04-0.46c0-0.28,0.03-0.49,0.1-0.61c0.06-0.12,0.15-0.18,0.27-0.18
			c0,0,0,0,0,0c0.08,0,0.15,0.03,0.2,0.08c0.06,0.05,0.1,0.14,0.13,0.25c0.03,0.11,0.04,0.27,0.04,0.47
			C94.67,53.72,94.64,53.93,94.57,54.05z"/>
		<path class="st0" d="M95.91,53.07C95.91,53.07,95.91,53.07,95.91,53.07c-0.12,0-0.23,0.03-0.34,0.1l0.09-0.45l0.8,0l0-0.29
			l-1.04,0l-0.2,1.07l0.28,0.03l0.01-0.01c0.08-0.12,0.19-0.18,0.34-0.18c0,0,0,0,0,0c0.12,0,0.21,0.04,0.28,0.11
			c0.07,0.08,0.11,0.18,0.11,0.31c0,0.13-0.04,0.24-0.11,0.33c-0.07,0.09-0.16,0.13-0.28,0.13c0,0,0,0,0,0
			c-0.09,0-0.17-0.03-0.23-0.09c-0.06-0.06-0.1-0.15-0.12-0.27l0-0.02l-0.31,0.02l0,0.03c0.02,0.19,0.09,0.34,0.22,0.43
			c0.13,0.1,0.28,0.15,0.45,0.15c0,0,0,0,0,0c0.21,0,0.38-0.07,0.51-0.21c0.13-0.14,0.19-0.32,0.19-0.52c0-0.2-0.06-0.37-0.19-0.49
			C96.23,53.14,96.08,53.07,95.91,53.07z"/>
		<path class="st0" d="M99.09,52.41c-0.1,0.19-0.29,0.36-0.56,0.49l-0.02,0.01l0,0.29l0.04-0.01c0.18-0.07,0.34-0.16,0.45-0.26
			l0,1.52l0.3,0l0-2.05l-0.2,0L99.09,52.41z"/>
		<path class="st0" d="M100.61,53.08C100.61,53.08,100.61,53.08,100.61,53.08c-0.12,0-0.23,0.03-0.34,0.1l0.09-0.45l0.8,0l0-0.29
			l-1.04,0l-0.2,1.07l0.28,0.03l0.01-0.01c0.08-0.12,0.19-0.18,0.34-0.18c0,0,0,0,0,0c0.12,0,0.21,0.04,0.28,0.11
			c0.07,0.08,0.11,0.18,0.11,0.31c0,0.13-0.04,0.24-0.11,0.33c-0.07,0.09-0.16,0.13-0.28,0.13c0,0,0,0,0,0
			c-0.09,0-0.17-0.03-0.23-0.09c-0.06-0.06-0.1-0.15-0.12-0.27l0-0.02l-0.31,0.02l0,0.03c0.02,0.19,0.09,0.34,0.22,0.43
			c0.13,0.1,0.28,0.15,0.45,0.15c0,0,0,0,0,0c0.21,0,0.38-0.07,0.51-0.21c0.13-0.14,0.19-0.32,0.19-0.52c0-0.2-0.06-0.37-0.19-0.49
			C100.93,53.14,100.78,53.08,100.61,53.08z"/>
		<path class="st0" d="M91.14,52.62l0.03,0.01c0.07,0.02,0.1,0.03,0.11,0.04c0.01,0.01,0.02,0.03,0.03,0.05c0,0.01,0,0.02,0.01,0.04
			h0l0,0.03c0,0.02,0,0.05,0,0.08l0,0.14l-0.69,0.64l0-0.78c0-0.05,0-0.08,0-0.11c0-0.01,0-0.01,0-0.02
			c0.01-0.03,0.01-0.04,0.02-0.05c0.01-0.01,0.02-0.02,0.03-0.03c0.01-0.01,0.03-0.01,0.08-0.03l0.03-0.01l0-0.14l-0.65,0l0,0.14
			l0.03,0.01c0.05,0.01,0.07,0.02,0.08,0.03c0.01,0.01,0.02,0.01,0.03,0.03c0.01,0.01,0.01,0.02,0.02,0.05
			c0,0.03,0.01,0.07,0.01,0.13l0,1.17c0,0.06,0,0.11-0.01,0.14c0,0.02-0.01,0.04-0.03,0.05c-0.01,0.01-0.03,0.02-0.1,0.04
			l-0.03,0.01l0,0.14l0.65,0l0-0.14l-0.03-0.01c-0.05-0.01-0.07-0.02-0.08-0.03c-0.01-0.01-0.02-0.02-0.03-0.03
			c0-0.01-0.01-0.02-0.02-0.05c0-0.03-0.01-0.07-0.01-0.13l0-0.13l0.69-0.64l0,0.76c0,0.03,0,0.06,0,0.08v0
			c0,0.03-0.01,0.05-0.01,0.07c-0.01,0.02-0.02,0.04-0.03,0.05c-0.01,0.01-0.04,0.02-0.11,0.04l-0.04,0.01l0,0.14l0.77,0l0-0.14
			l-0.04-0.01c-0.05-0.01-0.07-0.02-0.08-0.02c-0.02-0.01-0.03-0.01-0.03-0.02c-0.01-0.01-0.01-0.01-0.02-0.03
			c0-0.01-0.01-0.03-0.01-0.05c0-0.03,0-0.06,0-0.11l0-1.17c0-0.07,0-0.12,0.01-0.15c0.01-0.02,0.02-0.04,0.03-0.05
			c0.01-0.01,0.04-0.02,0.11-0.04l0.04-0.01l0-0.14l-0.77,0L91.14,52.62z"/>
	</g>
	<g>
		<rect x="39.23" y="28.53" class="st0" width="6.37" height="0.72"/>
		<rect x="39.23" y="29.74" class="st0" width="1.59" height="0.72"/>
		<rect x="41.62" y="29.74" class="st0" width="1.59" height="0.72"/>
		<rect x="44.01" y="29.74" class="st0" width="1.59" height="0.72"/>
	</g>
	<g>
		<text transform="matrix(1 0 0 1 0 22.888)" class="st0 st1 st2">Designed by Qbits Technologies. All rights reserved. Assembled in Bangladesh.</text>
	</g>
	<g>
		<text transform="matrix(1 0 0 1 0.1172 31.3568)" class="st0 st1 st2">Input: +19V    3.42A, 65W</text>
	</g>
	<text transform="matrix(1 0 0 1 220.2959 8.6771)" class="st0 st1 st2">Model: S15-613G</text>
	<g>
		<path class="st0" d="M79.76,3.82c-0.03-0.13-0.12-0.2-0.27-0.2h-3.16c-0.04,0-0.07-0.04-0.06-0.07l0.06-0.17l0.05-0.14
			c0.03-0.11,0.03-0.23,0-0.36c-0.02-0.1-0.06-0.17-0.1-0.23l-0.08-0.1l-1.47-1.8c-0.04-0.05-0.09-0.08-0.14-0.08
			c-0.09,0-0.16,0.07-0.21,0.22l-0.58,1.66l-0.37,1.07l-0.14,0.4L72,7.67c-0.02,0.07-0.03,0.14-0.01,0.2
			c0.03,0.14,0.12,0.2,0.28,0.2h5.67c0.11,0,0.21-0.04,0.32-0.12c0.11-0.08,0.18-0.17,0.22-0.29l1.28-3.64
			C79.77,3.95,79.77,3.88,79.76,3.82z M76.77,4.43l-1,2.86l-0.13,0.38h-0.82l1.27-3.64h0.82L76.77,4.43z"/>
		<path class="st0" d="M72.6,3.82c-0.03-0.14-0.13-0.2-0.28-0.2h-5.67c-0.11,0-0.21,0.04-0.32,0.12c-0.11,0.08-0.18,0.17-0.22,0.29
			l-1.28,3.64c-0.02,0.07-0.03,0.14-0.01,0.2c0.03,0.13,0.12,0.2,0.27,0.2h3.16c0.04,0,0.07,0.04,0.06,0.07l-0.06,0.17L68.2,8.46
			c-0.03,0.11-0.03,0.23,0,0.36c0.02,0.1,0.06,0.17,0.1,0.23l0.08,0.1l1.47,1.8c0.05,0.05,0.09,0.08,0.14,0.08
			c0.09,0,0.16-0.07,0.21-0.22l0.58-1.66l0.37-1.07l0.14-0.4l1.27-3.64C72.61,3.95,72.61,3.88,72.6,3.82z M68.49,7.67h-0.82
			l0.14-0.4l1-2.86l0.13-0.38h0.82L68.49,7.67z"/>
	</g>
	<text transform="matrix(1 0 0 1 115.9014 8.6732)" class="st0 st1 st2">Series: Sigma 15 </text>
	<g>
		<g>
			<polygon class="st0" points="24.77,2.84 24.91,2.84 24.91,3.27 25.01,3.27 25.01,2.84 25.15,2.84 25.15,2.75 24.77,2.75 			"/>
			<polygon class="st0" points="25.67,2.75 25.51,3.14 25.34,2.75 25.22,2.75 25.22,3.27 25.33,3.27 25.33,2.93 25.47,3.27 
				25.55,3.27 25.69,2.93 25.69,3.27 25.79,3.27 25.79,2.75 			"/>
		</g>
		<g>
			<path class="st3" d="M9.25,3.96l0.07-0.21c0.03-0.08,0.03-0.16,0.01-0.23C9.3,3.36,9.19,3.29,9.01,3.29H2.54
				c-0.12,0-0.25,0.04-0.37,0.13c-0.12,0.09-0.21,0.2-0.25,0.33L1.85,3.96h0L0.57,7.61C0.54,7.69,0.54,7.77,0.56,7.84
				C0.59,8,0.7,8.07,0.87,8.07h3.61c0.04,0,0.08,0.05,0.07,0.08l-0.07,0.2L4.42,8.51c-0.04,0.12-0.04,0.26,0,0.41
				c0.02,0.11,0.06,0.2,0.12,0.26l0.1,0.12l1.68,2.06c0.05,0.06,0.11,0.09,0.16,0.09c0.1,0,0.18-0.08,0.24-0.25l0.66-1.9l0.43-1.22
				l0.16-0.46L9.25,3.96L9.25,3.96z M4.82,7.39H3.89l0.08-0.24l1.11-3.19h0.93L4.82,7.39z"/>
			<path class="st3" d="M14.46,3.7l0.04-0.13c0.02-0.05,0.02-0.1,0.01-0.14c-0.02-0.1-0.09-0.14-0.2-0.14h-2.25
				c-0.03,0-0.05-0.03-0.04-0.05l0.04-0.12l0.04-0.1c0.02-0.08,0.02-0.16,0-0.25c-0.02-0.07-0.04-0.12-0.07-0.16l-0.06-0.07
				l-1.05-1.29c-0.03-0.04-0.07-0.05-0.1-0.05c-0.06,0-0.11,0.05-0.15,0.16l-0.41,1.18L9.98,3.29l-0.1,0.29L9.84,3.7h0L9.08,5.87
				c-0.02,0.05-0.02,0.1-0.01,0.14c0.02,0.1,0.09,0.14,0.2,0.14h4.04c0.08,0,0.15-0.03,0.23-0.08c0.08-0.06,0.13-0.12,0.15-0.2
				L14.46,3.7L14.46,3.7z M11.77,5.6l-0.05,0.14h-0.58l0.71-2.04h0.58L11.77,5.6z"/>
			<path class="st3" d="M24.58,3.43c-0.02-0.1-0.09-0.14-0.2-0.14h-4.04c-0.08,0-0.16,0.03-0.23,0.08c-0.08,0.06-0.13,0.12-0.16,0.2
				L19.9,3.71h0l-0.18,0.53l-0.01,0.04L19.6,4.58l0,0.01c0,0,0,0.01,0,0.01l-0.01,0.04c0,0.01,0,0.01-0.01,0.02
				c-0.01,0.04-0.02,0.09-0.01,0.12c0.02,0.1,0.09,0.14,0.2,0.14h1.21v0h1.1L22.05,5l-0.01,0.03l-0.01,0.03l-0.24,0.67h-0.58
				l0.09-0.25c0.01-0.04,0.01-0.08,0-0.11c-0.02-0.1-0.09-0.14-0.2-0.14h-1.44c-0.08,0-0.16,0.03-0.23,0.08
				c-0.08,0.06-0.13,0.12-0.16,0.2l-0.08,0.22h0l-0.04,0.13c-0.02,0.05-0.02,0.1-0.01,0.14c0.02,0.1,0.09,0.14,0.2,0.14h4.04
				c0.08,0,0.16-0.03,0.24-0.08c0.08-0.06,0.13-0.12,0.15-0.2l0.04-0.13h0l0.21-0.61h0l0.07-0.2c0,0,0,0,0-0.01l0.02-0.05
				c0,0,0,0,0,0c0,0,0-0.01,0.01-0.02c0,0,0-0.01,0-0.01c0.01-0.02,0.01-0.04,0.02-0.06c0,0,0,0,0,0c0,0,0,0,0-0.01
				c0.01-0.04,0.01-0.08,0-0.11c-0.02-0.1-0.09-0.14-0.2-0.14h-2.31l0.04-0.11h0l0.02-0.06l0.22-0.64h0.58l-0.09,0.25
				c-0.01,0.04-0.01,0.08,0,0.12c0.02,0.1,0.09,0.14,0.2,0.14h1.44c0.08,0,0.16-0.03,0.24-0.08c0.08-0.06,0.13-0.12,0.15-0.2
				l0.08-0.22h0l0.04-0.13C24.59,3.53,24.59,3.48,24.58,3.43z"/>
			<path class="st3" d="M16.99,3.58c0.02-0.05,0.02-0.1,0.01-0.14c-0.02-0.1-0.09-0.14-0.2-0.14h-1.44c-0.08,0-0.15,0.03-0.23,0.08
				C15.05,3.43,15,3.5,14.97,3.58L14.93,3.7h0l-0.76,2.17c-0.02,0.05-0.02,0.1-0.01,0.14c0.02,0.1,0.09,0.14,0.2,0.14h1.44
				c0.08,0,0.15-0.03,0.23-0.08c0.08-0.06,0.13-0.12,0.15-0.2l0.76-2.17L16.99,3.58z"/>
			<path class="st3" d="M19.19,4.43l0.55-1.59h2.47c0.01,0,0.02,0,0.03,0c0.03,0,0.06-0.02,0.08-0.05c0.01-0.02,0.03-0.03,0.03-0.05
				l0.12-0.33c0.04-0.1-0.04-0.2-0.14-0.2h-2.38l0.01-0.03L20,2.07c0.02-0.08,0.02-0.16,0-0.25c-0.02-0.07-0.04-0.12-0.07-0.16
				l-0.06-0.07L18.82,0.3c-0.03-0.04-0.07-0.05-0.1-0.05c-0.06,0-0.11,0.05-0.15,0.16l-0.41,1.18l-0.22,0.62h-2.38
				c-0.07,0-0.12,0.04-0.14,0.1L15.3,2.64c-0.04,0.1,0.04,0.2,0.14,0.2h2.28l-0.55,1.59h0l-0.68,1.95c-0.04,0.1-0.04,0.21-0.02,0.33
				c0.01,0.06,0.04,0.11,0.07,0.15l1.1,1.35c0.03,0.04,0.07,0.06,0.1,0.06c0.07,0,0.12-0.05,0.16-0.16l0.29-0.83c0,0,0,0,0,0
				c0-0.01,0.01-0.02,0.01-0.04L19.19,4.43L19.19,4.43z"/>
			<polygon class="st3" points="24.14,4.78 24.14,4.77 24.14,4.78 			"/>
		</g>
	</g>
</g>
</svg>
