<?xml version="1.0" encoding="utf-8"?>
<!-- Generator: Adobe Illustrator 24.2.0, SVG Export Plug-In . SVG Version: 6.00 Build 0)  -->
<svg version="1.1" id="Layer_1" xmlns="http://www.w3.org/2000/svg" xmlns:xlink="http://www.w3.org/1999/xlink" x="0px" y="0px"
	 viewBox="0 0 64 18.8" style="enable-background:new 0 0 64 18.8;" xml:space="preserve">
<style type="text/css">
	.st0{fill:#010101;}
</style>
<desc>BarCode licensed to MEM:TEC-IT Datenverarbeitung GmbH Internal License</desc>
<desc>BarCode licensed to MEM:TEC-IT Datenverarbeitung GmbH Internal License</desc>
<rect x="1.4" y="1.7" class="st0" width="0.6" height="15.8"/>
<rect x="2.7" y="1.7" class="st0" width="0.6" height="15.8"/>
<rect x="3.9" y="1.7" class="st0" width="2" height="12.2"/>
<rect x="6.5" y="1.7" class="st0" width="1.3" height="12.2"/>
<rect x="9.7" y="1.7" class="st0" width="0.6" height="12.2"/>
<rect x="11" y="1.7" class="st0" width="1.3" height="12.2"/>
<rect x="12.9" y="1.7" class="st0" width="0.6" height="12.2"/>
<rect x="16.1" y="1.7" class="st0" width="0.6" height="12.2"/>
<rect x="19.3" y="1.7" class="st0" width="0.6" height="12.2"/>
<rect x="20.6" y="1.7" class="st0" width="0.6" height="12.2"/>
<rect x="22.5" y="1.7" class="st0" width="1.3" height="12.2"/>
<rect x="24.4" y="1.7" class="st0" width="1.3" height="12.2"/>
<rect x="26.4" y="1.7" class="st0" width="0.6" height="12.2"/>
<rect x="29" y="1.7" class="st0" width="1.3" height="12.2"/>
<rect x="30.9" y="1.7" class="st0" width="0.6" height="15.8"/>
<rect x="32.2" y="1.7" class="st0" width="0.6" height="15.8"/>
<rect x="33.5" y="1.7" class="st0" width="1.3" height="12.2"/>
<rect x="36" y="1.7" class="st0" width="1.3" height="12.2"/>
<rect x="38" y="1.7" class="st0" width="0.6" height="12.2"/>
<rect x="39.9" y="1.7" class="st0" width="0.6" height="12.2"/>
<rect x="42.4" y="1.7" class="st0" width="1.3" height="12.2"/>
<rect x="44.4" y="1.7" class="st0" width="1.3" height="12.2"/>
<rect x="46.9" y="1.7" class="st0" width="0.6" height="12.2"/>
<rect x="48.2" y="1.7" class="st0" width="1.9" height="12.2"/>
<rect x="51.4" y="1.7" class="st0" width="0.6" height="12.2"/>
<rect x="53.4" y="1.7" class="st0" width="0.6" height="12.2"/>
<rect x="55.9" y="1.7" class="st0" width="0.6" height="12.2"/>
<rect x="58.5" y="1.7" class="st0" width="0.6" height="12.2"/>
<rect x="60.4" y="1.7" class="st0" width="0.6" height="15.8"/>
<rect x="61.7" y="1.7" class="st0" width="0.6" height="15.8"/>
</svg>
