<?xml version="1.0" encoding="utf-8"?>
<!-- Generator: Adobe Illustrator 24.2.0, SVG Export Plug-In . SVG Version: 6.00 Build 0)  -->
<svg version="1.1" id="Layer_1" xmlns="http://www.w3.org/2000/svg" xmlns:xlink="http://www.w3.org/1999/xlink" x="0px" y="0px"
	 viewBox="0 0 64.2 18.1" style="enable-background:new 0 0 64.2 18.1;" xml:space="preserve">
<style type="text/css">
	.st0{fill:#010101;}
</style>
<desc>BarCode licensed to MEM:TEC-IT Datenverarbeitung GmbH Internal License</desc>
<desc>BarCode licensed to MEM:TEC-IT Datenverarbeitung GmbH Internal License</desc>
<g>
	<rect x="1.3" y="1.1" class="st0" width="0.6" height="15.9"/>
	<rect x="2.6" y="1.1" class="st0" width="0.6" height="15.9"/>
	<rect x="3.9" y="1.1" class="st0" width="2" height="12.3"/>
	<rect x="6.5" y="1.1" class="st0" width="1.3" height="12.3"/>
	<rect x="9.7" y="1.1" class="st0" width="0.6" height="12.3"/>
	<rect x="11" y="1.1" class="st0" width="1.3" height="12.3"/>
	<rect x="13" y="1.1" class="st0" width="0.6" height="12.3"/>
	<rect x="16.2" y="1.1" class="st0" width="0.6" height="12.3"/>
	<rect x="19.5" y="1.1" class="st0" width="0.6" height="12.3"/>
	<rect x="20.8" y="1.1" class="st0" width="0.6" height="12.3"/>
	<rect x="22" y="1.1" class="st0" width="0.6" height="12.3"/>
	<rect x="25.3" y="1.1" class="st0" width="0.6" height="12.3"/>
	<rect x="26.6" y="1.1" class="st0" width="0.6" height="12.3"/>
	<rect x="29.2" y="1.1" class="st0" width="1.3" height="12.3"/>
	<rect x="31.1" y="1.1" class="st0" width="0.6" height="15.9"/>
	<rect x="32.4" y="1.1" class="st0" width="0.6" height="15.9"/>
	<rect x="33.7" y="1.1" class="st0" width="1.3" height="12.3"/>
	<rect x="36.3" y="1.1" class="st0" width="1.3" height="12.3"/>
	<rect x="38.2" y="1.1" class="st0" width="1.9" height="12.3"/>
	<rect x="41.5" y="1.1" class="st0" width="0.6" height="12.3"/>
	<rect x="42.8" y="1.1" class="st0" width="1.3" height="12.3"/>
	<rect x="44.7" y="1.1" class="st0" width="1.3" height="12.3"/>
	<rect x="47.3" y="1.1" class="st0" width="0.6" height="12.3"/>
	<rect x="49.2" y="1.1" class="st0" width="1.9" height="12.3"/>
	<rect x="51.8" y="1.1" class="st0" width="1.3" height="12.3"/>
	<rect x="53.8" y="1.1" class="st0" width="1.3" height="12.3"/>
	<rect x="56.4" y="1.1" class="st0" width="1.9" height="12.3"/>
	<rect x="59" y="1.1" class="st0" width="0.6" height="12.3"/>
	<rect x="60.9" y="1.1" class="st0" width="0.6" height="15.9"/>
	<rect x="62.2" y="1.1" class="st0" width="0.6" height="15.9"/>
</g>
</svg>
