<?xml version="1.0" encoding="utf-8"?>
<!-- Generator: Adobe Illustrator 25.4.1, SVG Export Plug-In . SVG Version: 6.00 Build 0)  -->
<svg version="1.1" xmlns="http://www.w3.org/2000/svg" xmlns:xlink="http://www.w3.org/1999/xlink" x="0px" y="0px"
	 viewBox="0 0 2069.29 731.81" style="enable-background:new 0 0 2069.29 731.81;" xml:space="preserve">
<style type="text/css">
	.st0{display:none;fill:#FFFFFF;}
	.st1{display:none;fill:none;stroke:#6C7077;stroke-miterlimit:10;}
	.st2{display:none;fill:none;stroke:#D22333;stroke-miterlimit:10;}
	.st3{fill:#D0D6E8;}
	.st4{font-family:'Quicksand-Medium';}
	.st5{font-size:52.5106px;}
	.st6{letter-spacing:1;}
	.st7{fill:#D1D6E8;}
	.st8{display:none;}
	.st9{display:inline;}
	.st10{fill:#F04D23;}
	.st11{font-family:'ArialMT';}
	.st12{font-size:56.2443px;}
</style>
<g id="Layer_1">
	<rect id="bg" x="-56.52" y="-48.54" class="st0" width="2203.34" height="566.93"/>
	<rect x="-53.07" y="11.75" class="st1" width="2161.9" height="48.01"/>
	<rect x="-48.08" y="-42.27" class="st2" width="2194.75" height="480.67"/>
	<g>
		<text transform="matrix(1 0 0 1 1.524 521.1056)" class="st3 st4 st5 st6">Serial number:</text>
	</g>
	<g>
		<path class="st3" d="M1607.34,301.13c2.03-2.12,4.07-4.22,6.11-6.34c0-1.17,0-2.33,0-3.5c-0.97,0.97-1.95,1.92-2.9,2.91
			c-2.97,3.07-5.93,6.14-8.88,9.22c-2.84,2.96-5.68,5.92-8.52,8.89c-0.13,0.14-0.29,0.25-0.39,0.4c-0.76,1.19-1.89,1.34-3.15,1.17
			c-0.32-0.04-0.65-0.01-1.03-0.01c0.09-1.38,0.18-2.66,0.27-3.96c0.7-0.01,1.31-0.09,1.95,0.3c1.79,1.08,4.19,0.45,5.21-1.27
			c1.13-1.91,0.6-4.2-1.23-5.37c-1.22-0.78-3.03-0.74-4.25,0.09c-0.17,0.12-0.33,0.24-0.52,0.39c-4.04-2.8-8.58-4.25-13.44-5.06
			c-0.02-0.34-0.04-0.71-0.06-1.13c-4.36,0-8.7,0-13.08,0c-0.02,0.22-0.03,0.44-0.05,0.66c-2.37,0.35-4.72,0.7-7.11,1.05
			c-0.02-0.26-0.05-0.54-0.07-0.87c-1.68,0-3.33,0-5.05,0c0,0.71-0.01,1.41,0.01,2.11c0.01,0.36-0.11,0.52-0.44,0.7
			c-1.36,0.76-2.7,1.56-4,2.4c-0.7,0.45-1.24,1.07-1.07,2.02c0.02,0.1-0.02,0.21-0.03,0.31c-0.01,0.04-0.03,0.07-0.08,0.18
			c-1.06,0-2.15,0-3.27,0c0,1.17,0,2.27,0,3.44c1.6,0,3.15,0,4.74,0c0.18,2.5,0.36,4.92,0.54,7.34c-0.04,0.02-0.08,0.05-0.12,0.07
			c-8.3-8.95-16.6-17.9-24.9-26.85c-0.04,0.08-0.12,0.17-0.12,0.25c-0.01,1.21-0.01,2.42-0.01,3.63c1.75,1.89,3.51,3.79,5.26,5.68
			c3.52,3.81,7.03,7.62,10.55,11.43c3.12,3.38,6.24,6.77,9.35,10.16c0.16,0.17,0.33,0.41,0.35,0.63c0.15,1.74,0.27,3.49,0.39,5.23
			c0.18,2.56,0.34,5.11,0.53,7.67c0.19,2.7,0.4,5.4,0.6,8.1c0.15,2.06,0.29,4.11,0.44,6.17c0.17,2.39,0.35,4.78,0.51,7.17
			c0.01,0.17-0.12,0.39-0.25,0.53c-0.92,0.99-1.86,1.97-2.8,2.94c-3.56,3.71-7.12,7.42-10.69,11.12
			c-4.18,4.35-8.37,8.71-12.55,13.06c-0.21,0.22-0.41,0.45-0.64,0.7c0.69,0.64,1.33,1.22,1.99,1.83
			c8.42-8.79,16.77-17.51,25.21-26.32c0.33,4.62,0.65,9.08,0.98,13.55c0.28,0.03,0.51,0.05,0.79,0.07c0,1.35,0,2.69,0,4.07
			c1.78,0,3.5,0,5.29,0c0-1.38,0-2.72,0-4.03c0.11-0.05,0.15-0.08,0.19-0.08c5.77-0.01,11.55-0.01,17.32,0
			c0.17,0,0.43,0.21,0.51,0.38c1.57,3.72,5.33,5.6,9.25,4.6c3.27-0.84,5.71-3.96,5.72-7.33c0.01-1.91-0.6-3.61-1.74-5.14
			c6.34,6.87,12.68,13.74,19.06,20.65c0.74-0.75,1.42-1.44,2.11-2.15c-0.11-0.13-0.21-0.24-0.31-0.35
			c-2.42-2.61-4.85-5.21-7.27-7.83c-2.6-2.81-5.19-5.64-7.79-8.45c-2.98-3.23-5.98-6.44-8.95-9.67c-0.17-0.18-0.26-0.5-0.26-0.76
			c0.01-0.77,0.09-1.54,0.14-2.31c0.37-5.32,0.74-10.63,1.11-15.95c0.35-5.09,0.68-10.18,1.03-15.27c0.05-0.68,0.14-1.35,0.21-2.09
			c2.65,0,5.24,0,7.85,0c0-2.84,0-5.62,0-8.4c-0.24-0.03-0.43-0.05-0.68-0.08c1.8-1.89,3.53-3.71,5.27-5.52
			C1602.76,305.91,1605.04,303.52,1607.34,301.13z M1565.22,299.62c3.15,0,6.3,0,9.53,0c0,0.52,0,1.01,0,1.54c-3.18,0-6.34,0-9.53,0
			C1565.22,300.66,1565.22,300.17,1565.22,299.62z M1552.95,300.45c0.49,0,0.96,0,1.47,0c0,1.78,0,3.54,0,5.32
			c-0.49,0-0.96,0-1.47,0C1552.95,304,1552.95,302.24,1552.95,300.45z M1547.23,306.39c0.25-0.44,0.36-0.87,0.64-1.07
			c1.01-0.74,2.08-1.41,3.25-2.2c0,1.22,0,2.22,0,3.27C1549.88,306.39,1548.67,306.39,1547.23,306.39z M1549.81,324
			c5.28,5.72,10.46,11.34,15.71,17.03c-4.47,4.66-8.91,9.28-13.48,14.04C1551.3,344.63,1550.56,334.39,1549.81,324z M1555.9,376.31
			c-0.57,0-1.09,0-1.65,0c0-0.61,0-1.2,0-1.85c0.52,0,1.07,0,1.65,0C1555.9,375.05,1555.9,375.65,1555.9,376.31z M1575.13,372.14
			c-7.26,0-14.52,0-21.83,0c-0.09-0.98-0.19-1.9-0.25-2.83c-0.24-3.41-0.48-6.81-0.7-10.22c-0.02-0.25,0.09-0.58,0.26-0.76
			c3.35-3.51,6.71-7.01,10.07-10.5c1.37-1.43,2.73-2.86,4.1-4.29c0.16-0.16,0.29-0.35,0.48-0.59c0.53,0.56,0.99,1.03,1.44,1.52
			c2.77,3,5.53,6,8.29,9.01c2.09,2.27,4.18,4.53,6.25,6.81c0.17,0.18,0.26,0.51,0.25,0.77c-0.02,0.89-0.1,1.78-0.16,2.66
			C1578.48,363.8,1575,367.24,1575.13,372.14z M1589.21,371.51c0.09,3.31-2.83,6.38-6.54,6.23c-3.36-0.14-6.13-3.03-6.01-6.53
			c0.12-3.22,3.02-6.02,6.34-5.98C1586.44,365.28,1589.24,368.11,1589.21,371.51z M1588.2,365.65c-1.05-0.58-2.04-1.13-3.15-1.74
			c0.04-0.39,0.09-0.86,0.16-1.48C1586.25,363.55,1587.21,364.58,1588.2,365.65z M1583.82,356.56c-4.91-5.29-9.7-10.46-14.52-15.65
			c5.6-5.86,11.19-11.7,16.85-17.62C1585.37,334.41,1584.6,345.39,1583.82,356.56z M1586.77,313.55c-0.26,1.04-0.13,2.04-0.21,3.05
			c-0.06,0.81-0.08,1.62-0.15,2.43c-0.02,0.19-0.12,0.4-0.25,0.54c-2.21,2.3-4.42,4.59-6.64,6.87c-0.01,0.01-0.04,0-0.12-0.01
			c0-1.29,0-2.58,0-3.92c-5.57,0-11.08,0-16.62,0c0,1.93,0,3.82,0,5.77c4.97,0,9.89,0,14.98,0c-3.49,3.63-6.85,7.13-10.27,10.68
			c-1.15-1.24-2.26-2.44-3.37-3.64c-2.01-2.17-4.01-4.34-6.02-6.51c-2.78-3.01-5.58-6.02-8.35-9.04c-0.17-0.18-0.27-0.47-0.29-0.72
			c-0.16-1.93-0.3-3.86-0.44-5.79c-0.08-1.08-0.15-2.15-0.22-3.28c12.74,0,25.45,0,38.26,0
			C1586.99,311.21,1587.06,312.43,1586.77,313.55z M1556.24,306.4c0-1.2,0-2.37,0-3.55c0-1.36-0.01-1.4,1.29-1.63
			c1.92-0.34,3.85-0.61,5.86-0.93c0,0.96,0,1.78,0,2.66c4.4,0,8.74,0,13.16,0c0-0.75,0-1.41,0-2.2c1.32,0.29,2.58,0.51,3.81,0.85
			c2.72,0.75,5.33,1.77,7.71,3.3c0.12,0.08,0.24,0.16,0.37,0.23c0.58,0.28,0.67,0.71,0.35,1.28
			C1577.98,306.4,1567.15,306.4,1556.24,306.4z M1594.15,320.54c-1.96,0-3.84,0-5.78,0c0-1.59,0-3.18,0-4.83
			c0.16-0.01,0.33-0.05,0.51-0.05c1.58-0.01,3.16-0.02,4.74,0c0.18,0,0.51,0.2,0.51,0.31C1594.16,317.49,1594.15,319,1594.15,320.54
			z"/>
		<path class="st3" d="M1531.39,406.42c0,0.26,0,0.49,0,0.71c-0.01,4.5-0.02,9-0.02,13.5c0,1.29,0.02,2.58,0.03,3.87
			c24.47,0,48.95,0,73.42,0c0.01-0.12,0.02-0.25,0.02-0.37c0.01-5.67,0.02-11.33,0.02-17c0-0.22-0.02-0.45-0.03-0.71
			C1580.33,406.42,1555.89,406.42,1531.39,406.42z"/>
		<path class="st3" d="M1582.97,368.35c-1.72-0.02-3.16,1.4-3.16,3.12c0,1.77,1.35,3.13,3.11,3.13c1.8,0,3.14-1.31,3.15-3.08
			C1586.07,369.76,1584.71,368.37,1582.97,368.35z"/>
		<path class="st3" d="M1443.53,305.26c-4.58-0.22-9.23,0.18-13.83,1.2c-26.33,5.8-44.14,30.98-40.55,57.34
			c2.32,17.05,11.17,30.17,26.29,39c7.8,4.55,16.36,6.84,25.52,6.84c1.74,0,3.51-0.08,5.29-0.25l0.97-0.09v-17.68l-1.21,0.17
			c-20.94,2.94-35.69-12.91-38.51-25.63h29.22v-17.42h-29.38c3.4-13.65,15.97-24.49,29.93-25.8c1.97-0.18,4.02-0.12,6.01-0.06
			c0.96,0.03,1.91,0.06,2.87,0.06l1.07,0v-17.6l-1.89-0.03C1444.73,305.3,1444.13,305.29,1443.53,305.26z M1445.09,320.79
			c-0.58-0.01-1.16-0.03-1.74-0.05c-2.06-0.06-4.18-0.13-6.28,0.07c-14.89,1.39-28.28,12.98-31.84,27.55
			c-0.08,0.32-0.09,0.61-0.11,0.91c-0.01,0.13-0.01,0.27-0.03,0.42l-0.11,1.16h29.6v13.16h-29.63l0.2,1.24
			c2.38,14.6,17.34,28.99,36.03,28.99c1.29,0,2.59-0.07,3.91-0.21v13.31c-10.34,0.79-19.96-1.36-28.58-6.39
			c-14.53-8.48-23.02-21.08-25.25-37.45c-3.38-24.85,14.07-49.51,38.9-54.98c3.64-0.8,7.31-1.21,10.95-1.21
			c0.78,0,1.55,0.02,2.32,0.06c0.55,0.03,1.1,0.03,1.65,0.04V320.79z"/>
		<path class="st3" d="M1331.36,384.37c-7.33-5.92-12-14.56-12.81-23.71c-0.89-9.98,1.99-18.75,8.57-26.06
			c8.12-9.03,18.54-12.96,30.96-11.68l1.17,0.12v-17.53l-0.98-0.08c-3.65-0.29-8.45-0.51-13.28,0.45
			c-17.99,3.56-30.9,13.05-38.39,28.22l-0.06,0.11c-1.51,3.08-2.81,6.42-3.88,9.96l-0.17,0.58c-0.8,2.89-1.31,5.7-1.52,8.35
			c-0.04,0.55-0.07,1.1-0.09,1.65c-0.03,0.74-0.03,1.5,0,2.24c0.06,1.69,0.14,3.65,0.27,5.39c0.41,5.82,1.27,9.13,3.84,14.85
			c0.01,0.02,0.02,0.04,0.03,0.07c0.6,1.4,1.25,2.78,1.93,4.1l0,0c0.01,0.02,0.01,0.03,0.02,0.04l0.26,0.49l0.08,0.14
			c8.15,15.28,21.59,24.44,39.96,27.23c1.92,0.29,3.84,0.44,5.75,0.44c1.79,0,3.57-0.13,5.33-0.38l0.91-0.13v-17.48l-1.2,0.15
			C1348.34,393.1,1338.86,390.43,1331.36,384.37z M1357.13,407.37c-3.14,0.37-6.34,0.32-9.54-0.17
			c-17.62-2.68-30.52-11.44-38.35-26.04l0-0.18l-0.2-0.2l-0.19-0.35c-0.2-0.41-0.39-0.81-0.57-1.19c-0.49-1.03-0.94-1.99-1.35-2.88
			l-0.04-0.09c-2.41-5.36-3.22-8.51-3.62-14.04c-0.12-1.71-0.2-3.65-0.26-5.31c-0.02-0.7-0.02-1.4,0-2.09
			c0.02-0.52,0.05-1.04,0.09-1.56c0.2-2.52,0.69-5.2,1.43-7.9l0.17-0.59c1.03-3.42,2.3-6.66,3.75-9.63l-0.96-0.47l1.02,0.35
			c7.17-14.53,19.58-23.64,36.89-27.06c4.16-0.82,8.35-0.73,11.72-0.49v13.22c-12.63-0.99-23.25,3.2-31.59,12.48
			c-6.99,7.77-10.06,17.08-9.11,27.67c0.87,9.72,5.83,18.9,13.6,25.18c7.64,6.17,17.23,9.03,27.11,8.11V407.37z"/>
		<path class="st3" d="M1154.23,366.15c-0.6,0.67-1.19,1.34-1.78,2.03c-0.46-1.56-1.09-3.31-2.05-4.99
			c-0.45-0.78-1.09-1.77-2.07-2.5c-1.44-1.06-3.16-1.32-4.71-0.71c-1.56,0.61-2.71,2-3.02,3.62c-0.22,1.16-0.08,2.35,0.45,3.72
			c1.31,3.41,2.64,6.82,3.96,10.23l0.18,0.48c0.32,0.85,0.65,1.72,1.2,2.54c0.77,1.15,1.8,1.81,3.07,1.97
			c0.23,0.03,0.45,0.04,0.67,0.04c1.21,0,2.38-0.41,3.49-1.23c1.24-0.92,2.1-2.15,2.87-3.33c5.38-8.18,11.48-15.91,18.14-22.98
			l0.34-0.36c1.02-1.09,2.08-2.21,3.19-3.24c0.89-0.72,0.49-1.51,0.39-1.67c-0.14-0.24-0.58-0.77-1.59-0.5l-0.26,0.06
			c-0.48,0.12-0.97,0.24-1.44,0.38c-2.58,0.77-5.14,2.12-7.81,4.13C1163.01,357.17,1158.69,361.2,1154.23,366.15z M1174.28,352.32
			c-0.29,0.3-0.58,0.61-0.86,0.91l-0.34,0.36c-6.74,7.16-12.92,14.99-18.36,23.27c-0.7,1.06-1.4,2.08-2.37,2.79
			c-0.87,0.65-1.7,0.9-2.62,0.78c-0.64-0.08-1.14-0.41-1.56-1.05c-0.42-0.62-0.69-1.35-0.98-2.11l-0.19-0.5
			c-1.33-3.4-2.65-6.81-3.96-10.22c-0.38-0.99-0.49-1.8-0.34-2.56c0.17-0.89,0.84-1.69,1.71-2.03c0.3-0.12,0.61-0.18,0.93-0.18
			c0.59,0,1.19,0.21,1.74,0.62c0.66,0.49,1.13,1.21,1.49,1.84c1.16,2.03,1.81,4.25,2.24,5.97c0.01,0.02,0.01,0.04,0.02,0.06
			l0.07,0.29h0l0.02,0.09l0,0l0.07,0.28l0.43,1.68l2.32-2.68c0.69-0.8,1.38-1.6,2.08-2.37c4.37-4.85,8.59-8.78,12.92-12.02
			C1170.63,354.12,1172.46,353.05,1174.28,352.32z"/>
		<path class="st3" d="M1159.72,323.24c-1.65-1.98-4.07-3.12-6.65-3.12c-2.58-0.01-5,1.13-6.65,3.1l-53.36,63.83
			c-2.18,2.6-2.64,6.13-1.2,9.21c1.43,3.08,4.44,4.99,7.83,5l106.53,0.15c3.39,0,6.4-1.9,7.84-4.98c1.45-3.07,1-6.6-1.17-9.21
			L1159.72,323.24z M1212.14,395.53c-1.09,2.32-3.36,3.75-5.92,3.75l-106.52-0.15c-2.57-0.01-4.83-1.45-5.91-3.77
			c-1.08-2.32-0.74-4.98,0.91-6.95l53.35-63.82c1.25-1.49,3.07-2.35,5.02-2.34c1.94,0,3.77,0.86,5.01,2.35l53.17,63.98
			C1212.89,390.55,1213.23,393.21,1212.14,395.53z"/>
		<path class="st3" d="M1160.44,309.83c-1.82-2.19-4.5-3.45-7.35-3.45c-2.85-0.01-5.53,1.24-7.35,3.43l-61.91,74.06
			c-3.76,4.49-4.55,10.58-2.08,15.89c2.48,5.31,7.66,8.61,13.51,8.62l115.37,0.16c5.85,0.01,11.04-3.28,13.53-8.58
			s1.71-11.39-2.03-15.9L1160.44,309.83z M1222.23,399.05c-2.13,4.55-6.58,7.37-11.6,7.36l-115.36-0.16
			c-5.02-0.01-9.46-2.84-11.59-7.39c-2.12-4.55-1.44-9.78,1.78-13.63l61.91-74.05c1.42-1.7,3.5-2.68,5.72-2.67
			c2.21,0,4.29,0.98,5.71,2.68l61.69,74.23C1223.7,389.29,1224.37,394.51,1222.23,399.05z"/>
		<path class="st3" d="M1177.68,354.14l-2.05,2.42c-0.96,1.13-1.91,2.25-2.87,3.37c-0.54,0.63-0.31,1.29-0.22,1.55
			c1.3,3.97,1.47,8.06,0.49,12.16c-2.69,11.36-14.59,18.77-25.99,16.17c-5.94-1.35-10.92-4.94-14.04-10.1
			c-3.1-5.16-3.94-11.21-2.36-17.05c3.11-11.55,15.03-18.48,26.58-15.45c3.13,0.82,5.97,2.27,8.47,4.33
			c0.87,0.73,1.62,0.2,1.82,0.02c1.31-1.14,2.69-2.26,4.12-3.34l0.99-0.75l-0.9-0.87c-8.5-8.19-24.58-11.64-37.65-1.92
			c-12.94,9.63-15.77,28.08-6.29,41.13c5.78,7.95,14.85,12.2,24.03,12.21c5.9,0.01,11.84-1.73,16.97-5.36
			c13.63-9.64,15.13-26.31,9.62-37.1L1177.68,354.14z M1167.55,390.92c-12.17,8.61-29.24,5.76-38.05-6.36
			c-8.79-12.11-6.17-29.23,5.84-38.17c5.21-3.87,10.92-5.5,16.37-5.49c6.78,0.01,13.15,2.54,17.62,6.4
			c-0.94,0.73-1.85,1.48-2.73,2.24c-2.62-2.06-5.59-3.53-8.84-4.39c-12.67-3.32-25.76,4.28-29.18,16.95
			c-1.73,6.41-0.8,13.05,2.6,18.7c3.41,5.67,8.88,9.61,15.38,11.09c12.74,2.9,25.54-5.07,28.55-17.76
			c1.04-4.41,0.88-8.82-0.48-13.11c0.85-1,1.71-2.01,2.56-3.02C1181.44,367.99,1179.59,382.4,1167.55,390.92z"/>
		<path class="st3" d="M877.96,358.84c2.93-3.48,4.42-8.24,4.43-14.13c0.01-5.89-1.47-10.65-4.4-14.15
			c-3.06-3.65-7.01-5.51-11.73-5.51L839.37,325l-0.09,62.8v1.03l12.82,0.02l0.04-24.89l9.4,0.01l10.13,24.9l13.97,0.02l-11.5-27.13
			C875.64,361.05,876.93,360.06,877.96,358.84z M882.52,386.83l-9.46-0.01l-10.13-24.9l-12.86-0.02l-0.04,24.89l-8.69-0.01
			l0.08-59.7l24.83,0.04c4.08,0.01,7.5,1.61,10.15,4.77c2.6,3.12,3.92,7.43,3.91,12.82c-0.01,5.4-1.34,9.71-3.95,12.81
			c-1.02,1.21-2.35,2.14-3.96,2.75l-1,0.38L882.52,386.83z"/>
		<path class="st3" d="M864.83,335.69l-14.72-0.02l-0.03,17.65l15.58,0.02c1.55,0,2.85-0.64,3.96-1.96
			c1.13-1.34,1.73-3.65,1.73-6.69c0-2.85-0.67-5.11-2-6.7C868.04,336.42,866.6,335.69,864.83,335.69z M868.04,350.05
			c-0.72,0.86-1.43,1.22-2.38,1.22l-13.5-0.02l0.02-13.52l12.66,0.02c1.13,0,2.03,0.49,2.94,1.56c1.01,1.21,1.52,3.01,1.51,5.37
			C869.28,347.2,868.84,349.1,868.04,350.05z"/>
		<path class="st3" d="M899.61,354.91L899.61,354.91c-1.97,0-3.5,0.73-4.82,2.29c-2.08,2.47-3.14,5.85-3.15,10.05
			c-0.01,4.2,0.95,7.47,2.84,9.72c1.49,1.78,3.15,2.64,5.1,2.64c1.93,0,3.6-0.86,5.09-2.63c1.89-2.25,2.86-5.52,2.86-9.72
			c0.01-4.2-1.04-7.58-3.12-10.06C903.1,355.64,901.57,354.91,899.61,354.91z M903.09,375.66c-1.07,1.27-2.22,1.89-3.51,1.89
			c-1.29,0-2.44-0.62-3.51-1.91c-1.57-1.87-2.36-4.69-2.35-8.39c0.01-3.7,0.9-6.63,2.66-8.72c0.92-1.09,1.88-1.56,3.23-1.56
			c1.34,0,2.31,0.47,3.23,1.57c1.75,2.09,2.64,5.03,2.64,8.73C905.47,370.97,904.67,373.79,903.09,375.66z"/>
		<path class="st3" d="M899.63,344.59h-0.03c-5.09,0-9.42,2.07-12.86,6.15c-3.68,4.37-5.56,9.92-5.57,16.49
			c-0.01,6.57,1.85,12.12,5.52,16.5c3.44,4.1,7.76,6.19,12.89,6.19c5.09,0,9.41-2.07,12.86-6.15c3.68-4.37,5.56-9.92,5.57-16.49
			c0.01-6.56-1.85-12.12-5.52-16.5C909.05,346.68,904.73,344.6,899.63,344.59z M910.86,382.44c-3.03,3.6-6.82,5.42-11.3,5.42
			c-4.46-0.01-8.26-1.84-11.29-5.45c-3.35-3.99-5.04-9.1-5.04-15.17c0.01-6.07,1.72-11.17,5.08-15.16c3.03-3.6,6.83-5.42,11.3-5.42
			c4.46,0.01,8.26,1.84,11.28,5.45c3.35,4,5.05,9.11,5.04,15.17C915.94,373.35,914.23,378.45,910.86,382.44z"/>
		<path class="st3" d="M949.06,349.71l-16.84-0.02l0.03-24.21l-12.82-0.02l-0.09,62.8v1.03l12.82,0.02l0.04-26.9l16.84,0.02
			L949,389.33l12.82,0.02l0.09-62.8v-1.03l-12.82-0.02L949.06,349.71z M951.16,327.56l8.69,0.01l-0.08,59.7l-8.69-0.01l0.04-26.91
			l-20.97-0.03l-0.04,26.9l-8.69-0.01l0.08-59.7l8.69,0.01l-0.04,24.21l20.97,0.03L951.16,327.56z"/>
		<path class="st3" d="M1002.71,359.66c-1.6-1.91-3.37-3.31-5.22-4.16c-5.64-3.02-10.47-5.57-14.79-7.81
			c-2.63-1.21-3.62-2.1-3.98-2.53c0,0-0.39-0.5-0.38-2.33c0-1.26,0.41-2.36,1.24-3.35c0.83-0.99,2.92-1.55,5.77-1.55
			c2.62,0,4.41,0.63,5.48,1.9c1.02,1.22,1.52,2.76,1.51,4.7l0,3.16l12.82,0.02l0-3.16c0.01-5-1.57-9.42-4.68-13.14
			c-3.63-4.32-8.91-6.52-15.73-6.53c-6.39,0-11.28,1.96-14.53,5.82c-3.12,3.71-4.71,8.12-4.71,13.12
			c-0.01,4.11,1.09,7.51,3.27,10.11c1.41,1.69,3.08,2.98,4.93,3.82c2.03,1.11,4.7,2.53,8.16,4.37c2.96,1.55,5.41,2.9,7.29,4.02
			c1.71,0.94,2.93,1.82,3.6,2.62c0.64,0.77,0.95,1.75,0.95,3.01c0,1.04-0.5,2.13-1.53,3.35c-1.26,1.5-3.33,2.23-6.34,2.23
			c-3.38,0-5.73-0.85-7.18-2.58c-0.99-1.18-1.51-3.5-1.51-6.71l0-3.16l-12.82-0.02l0,3.16c-0.01,6.35,1.47,11.33,4.39,14.82
			c4,4.77,9.65,7.2,16.87,7.21c7.32,0,12.78-2.07,16.22-6.15c3.12-3.7,4.71-8.23,4.71-13.46
			C1006.55,366.34,1005.26,362.71,1002.71,359.66L1002.71,359.66z M1000.25,382.57c-3.03,3.59-7.95,5.42-14.69,5.42
			c-6.53-0.01-11.65-2.19-15.24-6.47c-2.6-3.1-3.92-7.64-3.91-13.49l0-1.1l8.69,0.01l0,1.1c0,3.7,0.68,6.48,1.99,8.04
			c1.87,2.23,4.73,3.32,8.79,3.32c3.63,0,6.21-0.97,7.89-2.96c1.35-1.6,2.01-3.13,2.01-4.67c0-1.77-0.47-3.19-1.43-4.34
			c-0.84-1-2.25-2.05-4.17-3.09c-1.88-1.12-4.36-2.48-7.35-4.05c-3.45-1.83-6.11-3.25-8.2-4.39c-1.62-0.74-3.06-1.85-4.27-3.3
			c-1.85-2.21-2.79-5.17-2.79-8.78c0.01-4.51,1.43-8.47,4.23-11.8c2.84-3.37,7.2-5.08,12.99-5.08c6.14,0.01,10.89,1.96,14.11,5.79
			c2.79,3.33,4.2,7.31,4.2,11.81l0,1.1l-8.69-0.01l0-1.1c0-2.44-0.65-4.42-2-6.03c-1.49-1.77-3.8-2.64-7.1-2.64
			c-3.53,0-6.06,0.79-7.32,2.29c-1.16,1.38-1.73,2.9-1.73,4.67c0,2.17,0.47,3.19,0.86,3.66c0.83,1,2.41,2.03,4.66,3.06
			c4.28,2.23,9.11,4.77,14.78,7.81c1.62,0.74,3.16,1.96,4.56,3.63c2.23,2.67,3.36,5.85,3.35,9.46
			C1004.47,375.17,1003.05,379.25,1000.25,382.57z"/>
		<path class="st3" d="M580.34,336.54c-4.72-6.99-11.03-12.47-19.3-16.77c-9.7-5.04-20.22-7.59-32.17-7.78l-0.1,0
			c-0.97,0.08-1.93,0.14-2.9,0.21c-2.11,0.15-4.29,0.3-6.46,0.54c-6.45,0.71-12.82,2.44-18.95,5.12
			c-9.32,4.08-16.47,9.56-21.88,16.77c-6.09,8.12-8.67,17.15-7.67,26.85c0.39,3.74,1.43,7.48,3.11,11.13
			c3.69,8.01,9.54,14.51,17.89,19.87c9.12,5.86,19.35,9.18,31.29,10.16c1.87,0.15,3.77,0.23,5.66,0.23c4.56,0,9.18-0.44,13.73-1.32
			c9.24-1.78,17.54-5.16,24.66-10.06c6.87-4.73,11.93-10.29,15.45-17.01c3.52-6.71,4.85-13.94,3.94-21.51
			C585.96,347.26,583.84,341.72,580.34,336.54z M580.97,373.59c-3.37,6.42-8.22,11.76-14.83,16.31c-7,4.81-14.82,8-23.92,9.75
			c-6.31,1.21-12.66,1.57-18.87,1.06c-11.61-0.95-21.55-4.17-30.39-9.85c-8.02-5.16-13.64-11.39-17.17-19.05
			c-1.59-3.45-2.58-6.99-2.95-10.51c-0.95-9.19,1.5-17.77,7.29-25.48c5.2-6.92,12.1-12.21,21.1-16.15
			c5.95-2.6,12.13-4.28,18.38-4.97c2.1-0.23,4.26-0.38,6.38-0.53l0.44-0.03c0.82-0.06,1.64-0.12,2.41-0.18
			c11.64,0.19,21.88,2.67,31.29,7.56c7.97,4.14,14.05,9.42,18.58,16.13c3.33,4.92,5.34,10.16,5.98,15.58
			C585.56,360.38,584.3,367.23,580.97,373.59z"/>
		<path class="st3" d="M568.6,316.35c-11.84-7.18-24.85-10.6-41.01-10.76c-0.38,0.02-0.84,0.05-1.35,0.08l-0.17,0.01
			c-1.55,0.08-3.47,0.19-5.44,0.37c-8.19,0.73-16.09,2.76-23.48,6.01c-10.92,4.81-19.21,11.32-25.35,19.92
			c-6.11,8.55-8.92,18.01-8.34,28.09c0.42,7.2,2.69,14.1,6.76,20.53c5.65,8.9,13.49,15.74,23.98,20.9
			c10.58,5.2,22.17,7.84,34.47,7.84c2.01,0,4.06-0.07,6.09-0.21c8.06-0.55,15.79-2.27,22.98-5.1c11.15-4.39,19.79-10.57,26.43-18.9
			c5.95-7.46,9.28-15.74,9.9-24.63c0.55-7.82-1.01-15.37-4.65-22.43C584.87,329.18,578.06,322.08,568.6,316.35z M592.04,360.34
			c-0.6,8.46-3.78,16.36-9.46,23.49c-6.41,8.04-14.78,14.01-25.58,18.27c-6.99,2.75-14.52,4.42-22.37,4.96
			c-14.22,0.98-27.51-1.52-39.51-7.42c-10.14-4.99-17.71-11.58-23.15-20.15c-3.88-6.12-6.05-12.7-6.45-19.54
			c-0.55-9.61,2.12-18.61,7.96-26.77c5.92-8.28,13.94-14.57,24.5-19.23c7.19-3.17,14.87-5.13,22.83-5.84
			c1.96-0.18,3.95-0.29,5.4-0.37l0.16-0.01c0.5-0.03,0.94-0.05,1.28-0.08c15.7,0.16,28.37,3.48,39.87,10.46
			c9.12,5.53,15.69,12.36,20.08,20.89C591.07,345.73,592.56,352.91,592.04,360.34z"/>
		<path class="st3" d="M542.59,358.69c-0.36-4.67,0.83-8.93,3.54-12.66c3.28-4.5,7.7-6.89,13.14-7.1l0.99-0.04l0.02-10.61
			l-1.44-0.01c-0.3-0.01-0.57-0.01-0.84,0.02l-0.79,0.07c-0.81,0.07-1.64,0.15-2.48,0.32c-6.14,1.26-11.22,4.11-15.17,8.5l0.01-9.06
			l-1.11,0.09c-0.35,0.03-0.69,0.05-1.04,0.07c-0.73,0.04-1.42,0.08-2.13,0.19c-6.55,0.95-12.04,3.88-16.35,8.71l0.01-9.16
			l-1.15,0.13c-0.45,0.05-0.9,0.09-1.42,0.14c-0.99,0.09-2.02,0.18-3.03,0.38c-6.93,1.38-12.57,4.93-16.76,10.56
			c-5.52,7.41-7.28,15.62-5.24,24.43c2.79,12,10.21,19.45,22.07,22.11c1.13,0.25,2.27,0.34,3.38,0.42c0.5,0.04,0.99,0.08,1.49,0.13
			l1.14,0.12l0.01-8.57c0.72,0.74,1.47,1.44,2.26,2.1c3.94,3.31,8.57,5.35,13.76,6.07c0.8,0.11,1.61,0.15,2.43,0.19l0.14,0.01
			c0.31,0.02,0.63,0.03,0.95,0.05l1.1,0.07l0.01-8.45c3.77,3.89,8.48,6.56,13.71,7.74c1.32,0.3,2.65,0.44,3.96,0.57
			c0.58,0.06,1.17,0.12,1.75,0.2l1.17,0.15l0.02-10.97l-1.08,0C550.65,375.59,543.34,368.32,542.59,358.69z M517.36,384.14
			c-0.14-0.01-0.29-0.02-0.44-0.03c-1.07-0.08-2.08-0.16-3.06-0.38c-11.02-2.48-17.92-9.4-20.51-20.57
			c-1.9-8.18-0.26-15.83,4.88-22.73c3.88-5.2,9.09-8.49,15.5-9.77c0.9-0.18,1.83-0.26,2.81-0.35c0.11-0.01,0.22-0.02,0.32-0.03
			l-0.01,6.58c-5.4,0.43-9.92,2.97-13.43,7.53c-3.26,4.24-4.65,9.29-4.13,15.03c0.77,8.55,7.72,17.57,18.06,18.16L517.36,384.14z
			 M501.37,359.25c-0.47-5.2,0.78-9.77,3.71-13.58c3.24-4.21,7.41-6.49,12.42-6.76c-5.79,7.48-7.6,16.07-5.37,25.56
			c0.96,4.11,2.74,7.82,5.28,11.06C508.21,374.96,502.07,366.97,501.37,359.25z M538,384.15l-0.02,0c-0.78-0.04-1.52-0.07-2.24-0.17
			c-4.8-0.67-9.07-2.55-12.71-5.61c-4.56-3.83-7.55-8.66-8.89-14.38c-2.15-9.18-0.26-17.46,5.62-24.61
			c4.08-4.96,9.41-7.95,15.83-8.88c0.6-0.09,1.23-0.13,1.91-0.17l-0.01,6.57c-5.2,0.44-9.57,2.8-13,7.02
			c-3.41,4.2-4.95,9.23-4.59,14.97c0.55,8.79,7.46,18.09,18.11,18.73L538,384.15z M521.96,358.76c-0.33-5.2,1.06-9.75,4.13-13.54
			c3.15-3.88,7.19-6,12-6.29c-1.02,1.34-1.96,2.79-2.8,4.37c-3.28,6.13-4.21,12.93-2.75,20.21c0.88,4.39,2.78,8.53,5.5,12.04
			C528.58,374.94,522.46,366.69,521.96,358.76z M558.6,384.22c-0.22-0.02-0.44-0.05-0.66-0.07c-1.29-0.13-2.5-0.26-3.7-0.53
			c-9.89-2.23-17.62-10.28-19.67-20.51c-1.37-6.8-0.51-13.13,2.54-18.83c3.94-7.36,10.01-11.93,18.02-13.57
			c0.72-0.15,1.5-0.22,2.25-0.28l0.82-0.08c0,0,0.01,0,0.01,0l-0.01,6.58c-5.65,0.48-10.27,3.13-13.74,7.89
			c-3.01,4.13-4.34,8.86-3.94,14.03c0.8,10.28,8.53,18.27,18.08,18.78L558.6,384.22z"/>
		<path class="st3" d="M719.03,318.45c-0.31-0.54-0.9-0.85-1.45-0.8c-0.63-0.05-1.23,0.26-1.54,0.79l-7.15,12.34l17.24,0.02
			L719.03,318.45z M717.54,320l5.03,8.74l-10.08-0.01L717.54,320z"/>
		<path class="st3" d="M698,342.67c0.91,0.54,1.94,0.82,2.99,0.82c1.82,0,3.51-0.83,4.7-2.34l0.94-1.64l21.76,0.03l0.97,1.67
			l0.06,0.09c1.12,1.42,2.8,2.23,4.62,2.23c0,0,0,0,0,0c1.05,0,2.07-0.28,2.97-0.81c1.91-1.12,3.1-3.19,3.1-5.4
			c0-1.11-0.28-2.16-0.84-3.13l-15-26.07c-0.53-0.92-1.21-1.7-2.02-2.32c-1.36-1.03-2.98-1.59-4.71-1.62
			c-1.71,0.02-3.33,0.57-4.7,1.6c-0.81,0.62-1.49,1.4-2.02,2.31l-15.07,26.03C694.04,337.09,695.05,340.92,698,342.67z
			 M697.55,335.17l15.07-26.03c0.39-0.68,0.89-1.25,1.48-1.71c1-0.76,2.2-1.17,3.44-1.18c1.26,0.02,2.46,0.43,3.46,1.19
			c0.59,0.46,1.09,1.03,1.48,1.71l15,26.07c0.38,0.65,0.57,1.35,0.56,2.09c0,1.48-0.8,2.87-2.08,3.62
			c-1.62,0.95-3.73,0.57-4.87-0.83l-1.52-2.63l-24.15-0.03l-1.43,2.52c-0.73,0.92-1.83,1.46-3.01,1.46c-0.67,0-1.34-0.19-1.94-0.53
			C697.07,339.72,696.4,337.15,697.55,335.17z"/>
		<path class="st3" d="M682.01,376.76c-0.15,0.28-0.22,0.59-0.2,0.9l0.03,0.38l0.27,0.27c0.3,0.3,0.71,0.47,1.14,0.47l14-0.04
			l-8.21-14.14L682.01,376.76z M693.67,376.69l-9.24,0.02l4.61-7.96L693.67,376.69z"/>
		<path class="st3" d="M706.32,377.1l-7.65-13.29l-3.64-6.27c0.46-0.86,0.69-1.79,0.7-2.77c0-1.05-0.27-2.08-0.84-3.06
			c-0.55-0.91-1.33-1.66-2.26-2.16c-0.91-0.49-1.93-0.73-2.94-0.67c-1.6,0.07-3.1,0.83-4.16,2.13l-7.34,12.65l-7.57,13.21
			c-0.43,0.74-0.73,1.52-0.89,2.32c-0.38,1.73-0.12,3.58,0.73,5.23l0.5,0.85l0.17,0.25h0.03c0.31,0.42,0.67,0.81,1.06,1.17
			c0.27,0.24,0.57,0.47,0.84,0.64c0.11,0.08,0.22,0.14,0.34,0.22l0.13,0.08c0.49,0.27,0.95,0.47,1.39,0.61
			c0.78,0.26,1.61,0.39,2.46,0.39l9.29,0.01l20.69-0.07l0.15-0.02c1.08-0.21,2.06-0.73,2.82-1.49c0.37-0.35,0.67-0.73,0.89-1.11
			c0.52-0.83,0.8-1.79,0.82-2.78c0.03-1.02-0.21-2.04-0.69-2.93C710.35,378.37,708.44,377.18,706.32,377.1z M709.44,384.89
			l-0.01,0.01c-0.14,0.24-0.33,0.48-0.56,0.7c-0.46,0.46-1.04,0.77-1.68,0.92l-20.53,0.06l-9.29-0.01c-0.63,0-1.24-0.1-1.83-0.29
			c-0.32-0.1-0.66-0.25-1-0.43l-0.12-0.07c-0.06-0.04-0.13-0.07-0.22-0.14c-0.21-0.14-0.42-0.3-0.61-0.47
			c-0.41-0.37-0.75-0.78-1.04-1.23l-0.28-0.48c-0.61-1.19-0.8-2.55-0.52-3.83c0.12-0.59,0.34-1.16,0.65-1.71l7.57-13.21l7.22-12.47
			c0.64-0.77,1.58-1.24,2.59-1.28c0.06,0,0.13,0,0.19,0c0.58,0,1.14,0.15,1.67,0.43c0.62,0.33,1.14,0.83,1.53,1.5
			c0.32,0.57,0.49,1.23,0.49,1.9c0,0.68-0.17,1.32-0.5,1.9l-0.51,0.88l12.48,21.61l1,0c1.43,0,2.73,0.79,3.4,2.06
			c0.31,0.58,0.47,1.24,0.45,1.91C709.95,383.75,709.77,384.36,709.44,384.89z"/>
		<path class="st3" d="M764.05,377.01l-7.54-13.24l-7.27-12.63l-0.07-0.1c-1.01-1.25-2.51-2-4.11-2.08
			c-1.02-0.06-2.04,0.17-2.95,0.66c-0.94,0.5-1.72,1.24-2.26,2.14l-0.06,0.09c-0.52,0.9-0.8,1.93-0.8,2.98
			c0,0.98,0.23,1.91,0.69,2.78l-11.34,19.52c-2.12,0.06-4.03,1.25-5.03,3.12c-0.49,0.9-0.73,1.91-0.7,2.93
			c0.02,0.99,0.3,1.95,0.8,2.76c0.23,0.41,0.53,0.79,0.89,1.13c0.77,0.77,1.74,1.29,2.92,1.52l20.75,0.13l9.3,0.01
			c0.84,0,1.67-0.13,2.44-0.38c0.46-0.14,0.92-0.34,1.44-0.62l0.1-0.06c0.12-0.07,0.24-0.14,0.31-0.19c0.3-0.19,0.6-0.42,0.89-0.68
			c0.46-0.42,0.87-0.88,1.23-1.4l0.54-0.89c0.83-1.61,1.09-3.46,0.72-5.19C764.77,378.53,764.47,377.75,764.05,377.01z
			 M762.38,383.56l-0.3,0.51c-0.28,0.44-0.63,0.85-1.03,1.21c-0.2,0.18-0.41,0.34-0.66,0.5c-0.05,0.04-0.11,0.07-0.19,0.12
			l-0.08,0.04c-0.37,0.2-0.71,0.35-1.05,0.46c-0.57,0.19-1.18,0.28-1.82,0.28l-29.82-0.13c-0.64-0.15-1.23-0.47-1.69-0.93
			c-0.23-0.22-0.41-0.46-0.56-0.72c-0.32-0.52-0.5-1.12-0.51-1.75c-0.02-0.66,0.14-1.32,0.46-1.9c0.67-1.26,1.97-2.04,3.4-2.04l1,0
			l8.29-14.3l4.25-7.28l-0.51-0.88c-0.33-0.58-0.5-1.22-0.5-1.9c0-0.66,0.17-1.32,0.53-1.95c0.36-0.61,0.88-1.11,1.5-1.45
			c0.58-0.31,1.22-0.46,1.87-0.42c1,0.05,1.94,0.52,2.53,1.22l7.23,12.56l7.54,13.24c0.31,0.54,0.53,1.12,0.65,1.72
			C763.18,381.03,762.99,382.37,762.38,383.56z"/>
		<path class="st3" d="M745.65,364.69l-8.25,14.11l14,0.07c0.42,0,0.83-0.17,1.13-0.47l0.27-0.27l0.03-0.38
			c0.02-0.31-0.04-0.62-0.21-0.92L745.65,364.69z M740.99,376.75l4.65-7.93l4.59,7.99L740.99,376.75z"/>
		<path class="st3" d="M694.87,394.15c0,0-0.01,0-0.01,0c-1.62,0-2.89,0.66-3.76,1.97c-0.86,1.29-1.3,3.26-1.3,5.86
			c-0.01,5.19,1.69,7.83,5.05,7.84c0,0,0.01,0,0.01,0c1.63,0,2.9-0.66,3.78-1.96c0.86-1.28,1.3-3.25,1.3-5.86
			c0-2.58-0.41-4.54-1.24-5.84C697.85,394.82,696.56,394.15,694.87,394.15z M696.91,406.59c-0.47,0.89-1.14,1.32-2.06,1.32
			c0,0,0,0,0,0c-0.61,0-1.11-0.19-1.51-0.58c-0.41-0.4-0.73-1.02-0.94-1.85c-0.22-0.85-0.33-2.02-0.33-3.49
			c0-2.11,0.25-3.65,0.73-4.59c0.46-0.91,1.13-1.35,2.04-1.35c0,0,0,0,0.01,0c0.63,0,1.13,0.19,1.54,0.58
			c0.41,0.4,0.73,1.02,0.94,1.84c0.21,0.85,0.32,2.03,0.32,3.52C697.65,404.12,697.4,405.67,696.91,406.59z"/>
		<path class="st3" d="M706.61,394.16C706.61,394.16,706.61,394.16,706.61,394.16c-1.63,0-2.9,0.66-3.77,1.97
			c-0.86,1.29-1.3,3.26-1.3,5.86c-0.01,5.19,1.69,7.83,5.05,7.84c0,0,0.01,0,0.01,0c1.63,0,2.9-0.66,3.78-1.96
			c0.86-1.28,1.3-3.25,1.3-5.86c0-2.58-0.41-4.54-1.24-5.84C709.59,394.84,708.3,394.16,706.61,394.16z M708.65,406.61
			c-0.47,0.89-1.14,1.32-2.06,1.32c0,0,0,0,0,0c-0.61,0-1.11-0.19-1.51-0.58c-0.41-0.4-0.73-1.02-0.94-1.85
			c-0.22-0.85-0.33-2.02-0.33-3.49c0-2.11,0.25-3.65,0.73-4.59c0.46-0.91,1.13-1.35,2.04-1.35c0,0,0,0,0.01,0
			c0.63,0,1.13,0.19,1.54,0.58c0.41,0.4,0.73,1.02,0.94,1.84c0.22,0.85,0.32,2.03,0.32,3.52
			C709.39,404.14,709.14,405.68,708.65,406.61z"/>
		<path class="st3" d="M718.68,399.28C718.68,399.28,718.68,399.28,718.68,399.28c-0.87,0-1.73,0.24-2.55,0.72l0.69-3.37l5.99,0.01
			l0-2.17l-7.78-0.01l-1.54,8.06l2.07,0.25l0.07-0.1c0.6-0.9,1.43-1.34,2.54-1.34c0,0,0.01,0,0.01,0c0.88,0,1.58,0.28,2.14,0.85
			c0.55,0.56,0.83,1.35,0.83,2.34c0,0.97-0.28,1.8-0.82,2.47c-0.54,0.66-1.23,0.98-2.11,0.98c0,0,0,0,0,0
			c-0.7,0-1.28-0.21-1.75-0.65c-0.47-0.43-0.79-1.11-0.93-2l-0.03-0.18l-2.3,0.17l0.02,0.2c0.14,1.43,0.69,2.53,1.64,3.27
			c0.94,0.73,2.07,1.1,3.35,1.1c0,0,0.01,0,0.01,0c1.57,0,2.86-0.54,3.83-1.62c0.97-1.07,1.46-2.38,1.46-3.91
			c0-1.52-0.48-2.75-1.44-3.67C721.11,399.74,719.97,399.28,718.68,399.28z"/>
		<path class="st3" d="M742.6,394.32c-0.75,1.45-2.17,2.68-4.24,3.67l-0.11,0.05l0,2.19l0.27-0.11c1.37-0.54,2.52-1.19,3.41-1.95
			l-0.02,11.45l2.23,0l0.02-15.42l-1.51,0L742.6,394.32z"/>
		<path class="st3" d="M754.01,399.33c0,0-0.01,0-0.01,0c-0.87,0-1.72,0.24-2.54,0.72l0.69-3.37l5.99,0.01l0-2.17l-7.78-0.01
			l-1.54,8.06l2.07,0.25l0.07-0.1c0.6-0.9,1.43-1.34,2.54-1.34c0,0,0.01,0,0.01,0c0.87,0,1.59,0.29,2.14,0.85
			c0.55,0.57,0.83,1.35,0.83,2.34c0,0.98-0.28,1.81-0.82,2.47c-0.54,0.66-1.23,0.98-2.11,0.98c0,0,0,0,0,0
			c-0.7,0-1.28-0.21-1.75-0.65c-0.47-0.43-0.79-1.11-0.93-2l-0.03-0.18l-2.3,0.17l0.02,0.2c0.14,1.43,0.69,2.53,1.64,3.27
			c0.94,0.73,2.07,1.1,3.35,1.1c0,0,0.01,0,0.01,0c1.57,0,2.86-0.54,3.83-1.62c0.97-1.07,1.46-2.38,1.46-3.91
			c0-1.52-0.48-2.75-1.44-3.67C756.44,399.79,755.3,399.33,754.01,399.33z"/>
		<path class="st3" d="M682.85,395.86l0.26,0.06c0.56,0.13,0.76,0.23,0.83,0.28c0.1,0.07,0.19,0.19,0.23,0.35
			c0.02,0.06,0.04,0.16,0.06,0.3h0.02l0,0.23c0.01,0.16,0.02,0.35,0.02,0.61l0,1.04l-5.16,4.78l0.01-5.83
			c0-0.36,0.01-0.64,0.03-0.84c0.01-0.06,0.02-0.11,0.02-0.15c0.04-0.24,0.09-0.34,0.12-0.39c0.06-0.08,0.13-0.14,0.22-0.19
			c0.08-0.05,0.24-0.11,0.57-0.2l0.23-0.05l0-1.03l-4.88-0.01l0,1.02l0.21,0.06c0.36,0.11,0.53,0.18,0.6,0.22
			c0.09,0.05,0.16,0.11,0.21,0.19c0.04,0.06,0.09,0.17,0.12,0.39c0.03,0.2,0.05,0.53,0.05,0.98l-0.01,8.82
			c0,0.48-0.02,0.84-0.06,1.06c-0.03,0.18-0.1,0.32-0.2,0.41c-0.06,0.05-0.23,0.16-0.72,0.29l-0.22,0.05l0,1.02l4.88,0.01l0-1.02
			l-0.22-0.06c-0.36-0.09-0.53-0.17-0.61-0.21c-0.09-0.06-0.16-0.13-0.21-0.2c-0.03-0.06-0.09-0.18-0.12-0.39
			c-0.02-0.2-0.04-0.52-0.04-0.95l0-0.95l5.16-4.78l-0.01,5.73c0,0.23-0.01,0.43-0.02,0.61v0.02c-0.02,0.21-0.04,0.39-0.08,0.51
			c-0.05,0.17-0.13,0.29-0.24,0.36c-0.08,0.05-0.29,0.16-0.81,0.27l-0.27,0.05l0,1.02l5.81,0.01l0-1.02l-0.27-0.06
			c-0.36-0.08-0.54-0.14-0.63-0.17c-0.13-0.06-0.21-0.11-0.24-0.14c-0.05-0.05-0.09-0.11-0.14-0.2c-0.03-0.06-0.07-0.19-0.09-0.39
			c-0.03-0.2-0.04-0.48-0.04-0.86l0.01-8.82c0-0.53,0.03-0.91,0.1-1.12c0.05-0.17,0.12-0.3,0.24-0.37c0.08-0.05,0.29-0.16,0.82-0.27
			l0.27-0.05l0-1.03l-5.81-0.01L682.85,395.86z"/>
	</g>
	<g>
		<g>
			<rect x="292.77" y="214.86" class="st3" width="47.84" height="5.4"/>
			<rect x="292.77" y="223.9" class="st3" width="11.91" height="5.4"/>
			<rect x="310.74" y="223.9" class="st3" width="11.91" height="5.4"/>
			<rect x="328.7" y="223.9" class="st3" width="11.91" height="5.4"/>
		</g>
		<g>
			<text transform="matrix(1 0 0 1 -2.0254 172.453)" class="st3 st4 st5 st6">Designed by Qbits Technologies. All rights reserved. Assembled in Bangladesh.</text>
		</g>
		<g>
			<text transform="matrix(1 0 0 1 -1.1501 236.0897)" class="st3 st4 st5 st6">Input: +19V    3.42A, 65W</text>
		</g>
	</g>
	<text transform="matrix(1 0 0 1 1641.3438 65.6591)" class="st3 st4 st5 st6">Model: S15-5F5G</text>
	<g>
		<path class="st3" d="M597.34,29.15c-0.23-1.01-0.92-1.52-2.06-1.52h-23.74c-0.28,0-0.51-0.3-0.43-0.54l0.45-1.3l0.37-1.07
			c0.23-0.82,0.24-1.71,0.02-2.67c-0.16-0.72-0.42-1.29-0.77-1.71l-0.63-0.77L559.48,6.02c-0.34-0.38-0.7-0.57-1.08-0.57
			c-0.68,0-1.2,0.55-1.59,1.65l-4.36,12.48l-2.82,8.06l-1.06,3.04l-9.57,27.38c-0.17,0.55-0.2,1.06-0.09,1.52
			c0.23,1.02,0.94,1.52,2.12,1.52h42.59c0.8,0,1.61-0.29,2.43-0.89s1.36-1.31,1.63-2.16l9.58-27.38
			C597.42,30.13,597.45,29.62,597.34,29.15z M574.88,33.7l-7.49,21.49l-1,2.86h-6.14l9.55-27.38h6.14L574.88,33.7z"/>
		<path class="st3" d="M543.54,29.15c-0.23-1.02-0.94-1.52-2.12-1.52h-42.59c-0.8,0-1.61,0.29-2.43,0.89
			c-0.82,0.59-1.36,1.31-1.63,2.16l-9.58,27.38c-0.17,0.55-0.2,1.05-0.09,1.52c0.23,1.01,0.92,1.52,2.06,1.52h23.74
			c0.28,0,0.52,0.3,0.43,0.54l-0.45,1.3l-0.37,1.07c-0.23,0.82-0.24,1.71-0.02,2.67c0.16,0.72,0.42,1.29,0.77,1.71l0.63,0.77
			l11.08,13.56c0.34,0.38,0.7,0.57,1.08,0.57c0.68,0,1.2-0.55,1.59-1.65l4.36-12.48l2.82-8.06l1.06-3.04l9.57-27.38
			C543.61,30.12,543.64,29.62,543.54,29.15z M512.64,58.05h-6.14l1.06-3.03l7.49-21.49l1-2.86h6.14L512.64,58.05z"/>
	</g>
	<text transform="matrix(1 0 0 1 868.9302 65.6298)" class="st3 st4 st5 st6">Series: Sigma 15 </text>
	<g>
		<g>
			<polygon class="st3" points="184.09,21.77 185.13,21.77 185.13,25.04 185.91,25.04 185.91,21.77 186.95,21.77 186.95,21.14 
				184.09,21.14 			"/>
			<polygon class="st3" points="190.89,21.14 189.65,24.04 188.41,21.14 187.52,21.14 187.52,25.04 188.3,25.04 188.3,22.5 
				189.35,25.04 189.94,25.04 190.99,22.5 190.99,25.04 191.77,25.04 191.77,21.14 			"/>
		</g>
		<g>
			<path class="st7" d="M67.47,30.19l0.55-1.57c0.19-0.63,0.23-1.21,0.11-1.74c-0.26-1.16-1.07-1.74-2.42-1.74H17.05
				c-0.92,0-1.84,0.34-2.77,1.01c-0.93,0.68-1.55,1.5-1.86,2.46l-0.55,1.57h0l-9.6,27.44c-0.19,0.63-0.23,1.2-0.11,1.74
				c0.26,1.16,1.05,1.74,2.35,1.74h27.12c0.31,0,0.59,0.34,0.49,0.61l-0.52,1.49l-0.42,1.22c-0.26,0.94-0.27,1.95-0.02,3.05
				c0.19,0.82,0.48,1.47,0.88,1.95l0.72,0.88L45.41,85.8c0.39,0.43,0.8,0.65,1.24,0.65c0.77,0,1.37-0.63,1.81-1.88l4.99-14.26
				l3.22-9.2l1.21-3.48L67.47,30.19L67.47,30.19z M34.2,55.97h-7.01l0.62-1.79l8.36-23.98h7.01L34.2,55.97z"/>
			<path class="st7" d="M106.63,28.28l0.34-0.96c0.12-0.39,0.14-0.75,0.07-1.09c-0.16-0.72-0.65-1.09-1.47-1.09H88.63
				c-0.2,0-0.37-0.21-0.31-0.38l0.32-0.93l0.27-0.77c0.16-0.58,0.17-1.22,0.01-1.9c-0.12-0.51-0.3-0.92-0.55-1.22l-0.45-0.55
				l-7.9-9.67c-0.24-0.27-0.5-0.41-0.77-0.41c-0.48,0-0.86,0.39-1.13,1.17l-3.11,8.9L73,25.15l-0.76,2.17l-0.34,0.96H71.9l-5.7,16.3
				c-0.12,0.39-0.14,0.75-0.07,1.09c0.17,0.72,0.67,1.09,1.52,1.09h30.38c0.57,0,1.15-0.21,1.73-0.63c0.58-0.42,0.97-0.93,1.16-1.54
				L106.63,28.28L106.63,28.28z M86.45,42.54l-0.38,1.08H81.7l5.35-15.34h4.38L86.45,42.54z"/>
			<path class="st7" d="M182.69,26.26c-0.17-0.72-0.67-1.09-1.52-1.09h-30.38c-0.6,0-1.19,0.21-1.75,0.63
				c-0.57,0.42-0.96,0.93-1.19,1.54l-0.33,0.97h0l-1.37,3.99l-0.1,0.29l-0.8,2.31l-0.03,0.09c-0.01,0.03-0.02,0.06-0.03,0.09
				l-0.1,0.28c-0.02,0.05-0.04,0.1-0.06,0.15c-0.1,0.33-0.13,0.64-0.06,0.93c0.17,0.72,0.67,1.09,1.51,1.09h9.13v0.01h8.24
				l-0.19,0.52l-0.09,0.26l-0.08,0.24l-1.77,5.07h-4.37l0.65-1.88c0.09-0.3,0.1-0.59,0.04-0.85c-0.16-0.73-0.67-1.09-1.51-1.09
				h-10.85c-0.6,0-1.19,0.21-1.75,0.63c-0.57,0.42-0.96,0.93-1.19,1.54l-0.57,1.65h0l-0.33,0.97c-0.12,0.39-0.14,0.75-0.07,1.09
				c0.17,0.72,0.65,1.09,1.47,1.09h30.38c0.6,0,1.19-0.21,1.78-0.63c0.58-0.42,0.97-0.93,1.16-1.54l0.34-0.97h0.01l1.6-4.6h0
				l0.52-1.5c0.01-0.02,0.01-0.04,0.02-0.05l0.12-0.35c0,0,0-0.01,0.01-0.03c0.01-0.04,0.03-0.1,0.05-0.18
				c0.01-0.02,0.01-0.04,0.02-0.06c0.04-0.15,0.09-0.33,0.12-0.44c0-0.01,0.01-0.02,0.01-0.04c0-0.02,0.01-0.03,0.01-0.05
				c0.07-0.3,0.07-0.59,0.01-0.86c-0.17-0.72-0.65-1.09-1.47-1.09h-17.35l0.29-0.82h0l0.17-0.48l1.67-4.78h4.38l-0.65,1.86
				c-0.07,0.31-0.08,0.61-0.02,0.88c0.17,0.73,0.65,1.09,1.47,1.09h10.85c0.61,0,1.2-0.21,1.78-0.63c0.58-0.42,0.97-0.93,1.16-1.54
				l0.57-1.65h0l0.33-0.97C182.72,26.95,182.76,26.59,182.69,26.26z"/>
			<path class="st7" d="M125.68,27.32c0.12-0.39,0.14-0.75,0.07-1.09c-0.17-0.73-0.67-1.09-1.52-1.09h-10.85
				c-0.57,0-1.15,0.21-1.73,0.63c-0.58,0.42-0.97,0.93-1.16,1.54l-0.34,0.96h0l-5.7,16.3c-0.12,0.39-0.14,0.75-0.07,1.09
				c0.17,0.72,0.67,1.09,1.52,1.09h10.85c0.57,0,1.15-0.21,1.73-0.63c0.58-0.42,0.97-0.93,1.16-1.54l5.71-16.3L125.68,27.32z"/>
			<path class="st7" d="M142.18,33.73l4.15-11.94h18.59c0.07,0,0.14-0.01,0.2-0.02c0.26-0.02,0.49-0.16,0.63-0.34
				c0.11-0.11,0.19-0.25,0.25-0.41l0.87-2.48c0.26-0.74-0.29-1.53-1.08-1.53h-17.86l0.08-0.24l0.27-0.77
				c0.16-0.58,0.17-1.22,0.01-1.9c-0.12-0.51-0.3-0.92-0.55-1.22l-0.45-0.55l-7.9-9.67c-0.24-0.27-0.5-0.41-0.77-0.41
				c-0.48,0-0.86,0.39-1.13,1.17l-3.11,8.9l-1.64,4.68h-17.88c-0.49,0-0.92,0.31-1.09,0.77l-0.87,2.47
				c-0.26,0.75,0.29,1.53,1.08,1.53h17.15l-4.16,11.94h0l-5.1,14.64c-0.28,0.76-0.32,1.57-0.12,2.44c0.1,0.45,0.28,0.83,0.53,1.13
				l8.3,10.17c0.25,0.3,0.51,0.45,0.78,0.45c0.51,0,0.9-0.39,1.18-1.17l2.17-6.25c0,0,0,0,0-0.01c0.04-0.09,0.07-0.18,0.11-0.27
				L142.18,33.73L142.18,33.73z"/>
			<path class="st7" d="M179.4,36.33v-0.01c0,0.02-0.01,0.03-0.01,0.05C179.39,36.35,179.39,36.34,179.4,36.33z"/>
		</g>
	</g>
	<desc>BarCode licensed to MEM:TEC-IT Datenverarbeitung GmbH Internal License</desc>
</g>
<g id="Layer_2" class="st8">
	<g class="st9">
		<rect x="405.65" y="479.88" class="st10" width="10.55" height="201.15"/>
		<rect x="421.47" y="479.88" class="st10" width="5.27" height="201.15"/>
		<rect x="437.29" y="479.88" class="st10" width="5.27" height="201.15"/>
		<rect x="463.66" y="479.88" class="st10" width="5.27" height="201.15"/>
		<rect x="474.2" y="479.88" class="st10" width="5.27" height="201.15"/>
		<rect x="495.29" y="479.88" class="st10" width="10.55" height="201.15"/>
		<rect x="521.66" y="479.88" class="st10" width="5.27" height="201.15"/>
		<rect x="537.48" y="479.88" class="st10" width="15.82" height="201.15"/>
		<rect x="563.84" y="479.88" class="st10" width="10.55" height="201.15"/>
		<rect x="579.66" y="479.88" class="st10" width="10.55" height="201.15"/>
		<rect x="600.75" y="479.88" class="st10" width="5.27" height="201.15"/>
		<rect x="611.3" y="479.88" class="st10" width="15.82" height="201.15"/>
		<rect x="637.66" y="479.88" class="st10" width="5.27" height="201.15"/>
		<rect x="653.48" y="479.88" class="st10" width="10.55" height="201.15"/>
		<rect x="669.3" y="479.88" class="st10" width="15.82" height="201.15"/>
		<rect x="695.66" y="479.88" class="st10" width="5.27" height="201.15"/>
		<rect x="716.76" y="479.88" class="st10" width="10.55" height="201.15"/>
		<rect x="732.57" y="479.88" class="st10" width="5.27" height="201.15"/>
		<rect x="753.67" y="479.88" class="st10" width="5.27" height="201.15"/>
		<rect x="769.49" y="479.88" class="st10" width="15.82" height="201.15"/>
		<rect x="790.58" y="479.88" class="st10" width="10.55" height="201.15"/>
		<rect x="811.67" y="479.88" class="st10" width="10.55" height="201.15"/>
		<rect x="827.49" y="479.88" class="st10" width="15.82" height="201.15"/>
		<rect x="853.85" y="479.88" class="st10" width="5.27" height="201.15"/>
		<rect x="869.67" y="479.88" class="st10" width="10.55" height="201.15"/>
		<rect x="885.49" y="479.88" class="st10" width="15.82" height="201.15"/>
		<rect x="906.58" y="479.88" class="st10" width="5.27" height="201.15"/>
		<rect x="927.67" y="479.88" class="st10" width="10.55" height="201.15"/>
		<rect x="954.04" y="479.88" class="st10" width="5.27" height="201.15"/>
		<rect x="975.13" y="479.88" class="st10" width="5.27" height="201.15"/>
		<rect x="985.67" y="479.88" class="st10" width="15.82" height="201.15"/>
		<rect x="1006.77" y="479.88" class="st10" width="10.55" height="201.15"/>
		<rect x="1033.13" y="479.88" class="st10" width="5.27" height="201.15"/>
		<rect x="1043.68" y="479.88" class="st10" width="10.55" height="201.15"/>
		<rect x="1070.04" y="479.88" class="st10" width="5.27" height="201.15"/>
		<rect x="1080.59" y="479.88" class="st10" width="15.82" height="201.15"/>
		<rect x="1101.68" y="479.88" class="st10" width="10.55" height="201.15"/>
		<rect x="1117.5" y="479.88" class="st10" width="15.82" height="201.15"/>
		<rect x="1143.86" y="479.88" class="st10" width="5.27" height="201.15"/>
		<rect x="1159.68" y="479.88" class="st10" width="5.27" height="201.15"/>
		<rect x="1170.23" y="479.88" class="st10" width="15.82" height="201.15"/>
		<rect x="1191.32" y="479.88" class="st10" width="21.09" height="201.15"/>
		<rect x="1217.68" y="479.88" class="st10" width="5.27" height="201.15"/>
		<rect x="1228.23" y="479.88" class="st10" width="10.55" height="201.15"/>
		<rect x="1249.32" y="479.88" class="st10" width="15.82" height="201.15"/>
		<rect x="1275.69" y="479.88" class="st10" width="10.55" height="201.15"/>
		<rect x="1291.5" y="479.88" class="st10" width="15.82" height="201.15"/>
		<rect x="1312.6" y="479.88" class="st10" width="5.27" height="201.15"/>
		<rect x="1333.69" y="479.88" class="st10" width="10.55" height="201.15"/>
		<rect x="1360.05" y="479.88" class="st10" width="5.27" height="201.15"/>
		<rect x="1370.6" y="479.88" class="st10" width="5.27" height="201.15"/>
		<rect x="1391.69" y="479.88" class="st10" width="10.55" height="201.15"/>
		<rect x="1418.05" y="479.88" class="st10" width="15.82" height="201.15"/>
		<rect x="1439.15" y="479.88" class="st10" width="5.27" height="201.15"/>
		<rect x="1449.69" y="479.88" class="st10" width="10.55" height="201.15"/>
	</g>
	<g class="st9">
		<text transform="matrix(1 0 0 1 681.2456 731.806)" class="st10 st11 st12">A13-E05SIZR51251</text>
	</g>
</g>
</svg>
