<?xml version="1.0" encoding="utf-8"?>
<!-- Generator: Adobe Illustrator 24.2.0, SVG Export Plug-In . SVG Version: 6.00 Build 0)  -->
<svg version="1.1" id="Layer_1" xmlns="http://www.w3.org/2000/svg" xmlns:xlink="http://www.w3.org/1999/xlink" x="0px" y="0px"
	 viewBox="0 0 64.6 19" style="enable-background:new 0 0 64.6 19;" xml:space="preserve">
<style type="text/css">
	.st0{fill:#010101;}
</style>
<desc>BarCode licensed to MEM:TEC-IT Datenverarbeitung GmbH Internal License</desc>
<g>
	<rect x="1.7" y="1.6" class="st0" width="0.6" height="15.9"/>
	<rect x="3" y="1.6" class="st0" width="0.6" height="15.9"/>
	<rect x="4.3" y="1.6" class="st0" width="2" height="12.3"/>
	<rect x="6.8" y="1.6" class="st0" width="1.3" height="12.3"/>
	<rect x="10.1" y="1.6" class="st0" width="0.6" height="12.3"/>
	<rect x="11.4" y="1.6" class="st0" width="1.3" height="12.3"/>
	<rect x="13.3" y="1.6" class="st0" width="0.6" height="12.3"/>
	<rect x="16.6" y="1.6" class="st0" width="0.6" height="12.3"/>
	<rect x="19.8" y="1.6" class="st0" width="0.6" height="12.3"/>
	<rect x="21.1" y="1.6" class="st0" width="0.6" height="12.3"/>
	<rect x="22.4" y="1.6" class="st0" width="0.6" height="12.3"/>
	<rect x="25.6" y="1.6" class="st0" width="0.6" height="12.3"/>
	<rect x="26.9" y="1.6" class="st0" width="0.6" height="12.3"/>
	<rect x="29.4" y="1.6" class="st0" width="1.3" height="12.3"/>
	<rect x="31.4" y="1.6" class="st0" width="0.6" height="15.9"/>
	<rect x="32.7" y="1.6" class="st0" width="0.6" height="14"/>
	<rect x="34" y="1.6" class="st0" width="1.3" height="12.3"/>
	<rect x="36.5" y="1.6" class="st0" width="1.3" height="12.3"/>
	<rect x="38.5" y="1.6" class="st0" width="1.9" height="12.3"/>
	<rect x="41.7" y="1.6" class="st0" width="0.6" height="12.3"/>
	<rect x="43" y="1.6" class="st0" width="1.3" height="12.3"/>
	<rect x="44.9" y="1.6" class="st0" width="1.3" height="12.3"/>
	<rect x="47.5" y="1.6" class="st0" width="0.6" height="12.3"/>
	<rect x="49.4" y="1.6" class="st0" width="1.9" height="12.3"/>
	<rect x="52" y="1.6" class="st0" width="1.3" height="12.3"/>
	<rect x="54.6" y="1.6" class="st0" width="1.3" height="12.3"/>
	<rect x="56.5" y="1.6" class="st0" width="1.3" height="12.3"/>
	<rect x="58.5" y="1.6" class="st0" width="1.3" height="12.3"/>
	<rect x="61" y="1.6" class="st0" width="0.6" height="15.9"/>
	<rect x="62.3" y="1.6" class="st0" width="0.6" height="15.9"/>
</g>
</svg>
