<svg xmlns="http://www.w3.org/2000/svg" width="141.936" height="136.25" viewBox="0 0 141.936 136.25">
  <g id="courier_1_" data-name="courier (1)" transform="translate(0.297 0.31)">
    <path id="Path_1539" data-name="Path 1539" d="M141.335,83.9c-.277,2.549-.535,5.1-.83,7.644-.812,7.032-1.542,14.085-3.567,20.907a23.115,23.115,0,0,1-1.826,4.291,2.889,2.889,0,0,1-3.191,1.679,46.574,46.574,0,0,1-5.1-1.1,1.948,1.948,0,0,0-2.188.5c-5.135,4.752-10.3,9.467-15.454,14.2-4.187,3.844-8.946,4.42-14.233,2.7-10.57-3.438-21.113-7.013-32.111-8.88a29.091,29.091,0,0,0-5.906.111c-4.755.188-9.481.111-14.06-1.409-3.294-1.092-6.091-2.785-7.559-6.157-.14-.321-.867-.539-1.321-.542-6.95-.033-13.9-.022-20.848-.022-2.394,0-4.785.022-7.179,0C2.256,117.776.02,115.57.016,111.858q-.028-20.575,0-41.146c0-3.615,2.261-5.9,5.836-5.906q25.262-.022,50.527,0c3.047,0,4.5,1.173,5.829,4.564,3.069-1.848,6.043-3.859,9.219-5.478a76.26,76.26,0,0,1,8.537-3.442,3.19,3.19,0,0,0,2.372-2.335c.35-1.372,1.011-2.66,1.45-4.014a1.327,1.327,0,0,0-.192-1.166c-4.944-3.807-7.142-9.16-8.245-15.008-.756-4-1.037-8.1-1.542-12.237a6.467,6.467,0,0,0-1.029,1.033c-.583.874-1.044,1.834-1.612,2.723a1.861,1.861,0,0,1-2.479.874,1.754,1.754,0,0,1-1.136-2.343c1.114-3.14,2.9-5.711,6.095-7.113A2.849,2.849,0,0,0,75.029,19.4,44.008,44.008,0,0,1,80.954,8.236C85.5,2.145,91.535-.471,99.064.057c4.158.291,8.1,1.2,11.551,3.641,4.634,3.28,6.906,7.987,7.46,13.443a103.925,103.925,0,0,1,.026,10.452,3.127,3.127,0,0,0,.236,1.431,6.894,6.894,0,0,1-.439,7.692,41.811,41.811,0,0,1-4.357,4.549,11.812,11.812,0,0,0-1.317,1.535c-1.468,2.158-2.929,4.327-4.324,6.534a2.323,2.323,0,0,0-.354,1.579c.406,1.741,1.015,3.438,1.439,5.176a3.036,3.036,0,0,0,1.69,2.143A245.478,245.478,0,0,1,135.613,73.2c2.785,1.941,5.312,3.984,5.726,7.655C141.335,81.876,141.335,82.887,141.335,83.9Zm-79.2,23.176c.48.118.786.218,1.1.269,10.61,1.778,21.242,3.431,31.812,5.408,2.874.539,4.682-.273,5.984-2.56a85.592,85.592,0,0,0,4.641-8.895c1.859-4.394,3.376-8.935,5.043-13.41.546-1.461,1.553-2.051,2.712-1.6,1.177.454,1.583,1.513,1.059,2.974-1.332,3.719-2.664,7.437-4.058,11.134-1.206,3.206-1.265,3.228,1.7,5.01,5.32,3.2,10.632,6.419,16.6,8.323,2.885.919,2.985.885,3.829-1.977,2.782-9.415,3.379-19.169,4.375-28.861a5.487,5.487,0,0,0-2.708-5.611Q126.25,72.2,118.278,67.138a1.754,1.754,0,0,0-.539-.125c-.2.3-.384.561-.553.83q-3.63,5.622-7.264,11.241c-.874,1.343-1.727,1.564-3.158.871-.62-.3-1.221-.638-1.837-.952-2.649-1.354-5.3-2.7-8.02-4.088-.3.483-.553.86-.775,1.247q-2.905,5.091-5.8,10.19c-.494.871-1.033,1.738-2.184,1.572s-1.634-1.048-1.911-2.1c-.778-2.977-1.586-5.951-2.391-8.921-.207-.767-.454-1.52-.716-2.38-.369.288-.594.45-.8.627-1.564,1.358-3.1,2.756-4.693,4.073-1.8,1.479-3.52.863-3.981-1.365-.2-.944-.358-1.9-.539-2.844-.41-2.18-.823-4.361-1.273-6.736-2.94,1.845-5.637,3.593-8.4,5.239A2.436,2.436,0,0,0,62.1,75.929c.052,8.884.03,17.764.03,26.647C62.132,104.045,62.132,105.513,62.132,107.077ZM23.011,68.739c-5.9,0-11.647-.015-17.391.011C4.233,68.757,3.9,69.7,3.9,70.912q.011,20.348.011,40.692c0,1.686.457,2.121,2.136,2.121q7.93.011,15.864,0c.35,0,.7-.052,1.1-.081C23.011,98.669,23.011,83.794,23.011,68.739Zm84.369,38.593a14.859,14.859,0,0,1-.926,1.686c-1.472,2.044-2.859,4.169-4.516,6.054a6.012,6.012,0,0,1-5.77,1.922c-6.8-1.151-13.6-2.273-20.4-3.431-7.751-1.321-15.484-2.737-23.386-2.8-1.494-.011-2.35.469-2.284,1.524.085,1.413,1.122,1.457,2.2,1.45,2.3-.018,4.6-.033,6.9.011a2,2,0,0,1,2.029,2.011,2.038,2.038,0,0,1-1.826,2.084,5.229,5.229,0,0,1-1.1.03q-8.627,0-17.258,0c-.435,0-.867.037-1.483.066a7.643,7.643,0,0,0,4.516,2.97c4.457,1.424,9.042,1.465,13.661,1.254a28.049,28.049,0,0,1,6.047.052c11.123,1.937,21.825,5.467,32.52,8.972,3.756,1.232,6.984.867,9.935-1.907,4.829-4.538,9.747-8.983,14.62-13.469a5.174,5.174,0,0,0,.435-.483C116.673,112.666,112.095,110.036,107.38,107.332Zm-61.341,6.327c.015-5,2-6.932,6.888-6.84,1.679.033,3.357,0,5.11,0,.022-.244.063-.513.063-.782q.006-17.586,0-35.177c0-1.616-.542-2.129-2.18-2.132q-7.864-.017-15.727,0a10.167,10.167,0,0,0-1.048.1v44.817C41.457,113.659,43.693,113.659,46.039,113.659ZM78.113,24.273c0,1.682-.077,3.28.015,4.87.3,5.305,1.074,10.522,3.579,15.307a13.219,13.219,0,0,0,6.161,6.25c2.228,1.029,4.508.955,6.862.959a12.119,12.119,0,0,0,7.854-2.841,24.047,24.047,0,0,0,6.3-8.422,6.16,6.16,0,0,1,1.841-2.044c1.7-1.284,3.405-2.542,4.191-4.623.716-1.9.21-2.686-1.756-2.7-6.987-.074-13.975-.166-20.958-.137a6.2,6.2,0,0,1-4.582-1.66A18.3,18.3,0,0,0,78.113,24.273Zm36.147,2.52c0-2.815.221-5.715-.048-8.566-.546-5.774-3.077-10.356-8.67-12.757A19.919,19.919,0,0,0,93.357,4.344c-7.128,1.542-10.363,7.3-13.5,13.469.7-.177,1.081-.266,1.465-.373a24.238,24.238,0,0,1,10.37-.775c6.017.944,10.577,4.206,14.119,9.046.306.417.749,1.015,1.147,1.029C109.291,26.844,111.63,26.792,114.26,26.792ZM27.328,68.813v44.817h7.5V68.813ZM89.174,80.6c.52-.885.933-1.494,1.251-2.147a54.855,54.855,0,0,1,10.57-14.532c1.358-1.372,2.623-2.841,3.888-4.3a1.683,1.683,0,0,0,.5-1.181c-.439-1.811-1-3.593-1.549-5.512a15.3,15.3,0,0,1-7.758,2.667c-2.73.092-5.471-.048-8.456-.092-.708,2.708-2.586,5.316-2.14,8.839A103.15,103.15,0,0,0,89.174,80.6Zm25.219-15.672c-1.83-1.018-3.579-2.014-5.36-2.948a1,1,0,0,0-.922.166c-2.852,3.114-5.67,6.257-8.588,9.5,2.7,1.395,5.3,2.737,8.017,4.139C109.8,72.2,112.028,68.676,114.393,64.928ZM82.972,21.31A28.35,28.35,0,0,1,87.8,24.343a9.468,9.468,0,0,0,7.906,2.431c1.793-.159,3.608-.03,5.571-.03A16.7,16.7,0,0,0,82.972,21.31ZM77.383,74.081c1.542-1.35,2.988-2.608,4.42-3.885a.853.853,0,0,0,.306-.579c-.177-1.763-.395-3.52-.612-5.4-2.029.764-3.855,1.45-5.733,2.155.443,2.254.852,4.368,1.276,6.482C77.11,73.206,77.232,73.546,77.383,74.081Z" transform="translate(0)" fill="#ccc"/>
    <path id="Path_1539_-_Outline" data-name="Path 1539 - Outline" d="M100.284,135.64a12.766,12.766,0,0,0,8.9-3.621c5.154-4.73,10.319-9.444,15.454-14.2a1.948,1.948,0,0,1,2.188-.5,46.572,46.572,0,0,0,5.1,1.1,2.889,2.889,0,0,0,3.191-1.679,23.115,23.115,0,0,0,1.826-4.291c2.025-6.821,2.756-13.875,3.567-20.907.3-2.546.553-5.095.83-7.644,0-1.015,0-2.025,0-3.051-.413-3.671-2.94-5.715-5.726-7.655a245.479,245.479,0,0,0-24.939-14.963,3.036,3.036,0,0,1-1.69-2.143c-.424-1.738-1.033-3.435-1.439-5.176a2.323,2.323,0,0,1,.354-1.579c1.395-2.206,2.855-4.375,4.324-6.534a11.81,11.81,0,0,1,1.317-1.535,41.811,41.811,0,0,0,4.357-4.549,6.894,6.894,0,0,0,.439-7.692,3.127,3.127,0,0,1-.236-1.431,103.927,103.927,0,0,0-.026-10.452c-.553-5.456-2.826-10.164-7.46-13.443C107.162,1.256,103.222.348,99.064.057,91.535-.471,85.5,2.145,80.954,8.236A44.008,44.008,0,0,0,75.029,19.4a2.849,2.849,0,0,1-1.383,1.465c-3.2,1.4-4.98,3.973-6.095,7.113a1.754,1.754,0,0,0,1.136,2.343,1.861,1.861,0,0,0,2.479-.874c.568-.889,1.029-1.848,1.612-2.723a6.468,6.468,0,0,1,1.029-1.033c.505,4.139.786,8.234,1.542,12.237,1.1,5.847,3.3,11.2,8.245,15.008a1.327,1.327,0,0,1,.192,1.166c-.439,1.354-1.1,2.641-1.45,4.014a3.19,3.19,0,0,1-2.372,2.335,76.257,76.257,0,0,0-8.537,3.442c-3.176,1.62-6.15,3.63-9.219,5.478-1.328-3.39-2.782-4.56-5.829-4.564q-25.262-.022-50.527,0C2.278,64.81.02,67.1.016,70.713q-.028,20.575,0,41.146c0,3.711,2.239,5.917,5.947,5.958,2.394.026,4.785,0,7.179,0,6.95,0,13.9-.011,20.848.022.454,0,1.181.221,1.321.542,1.468,3.372,4.265,5.065,7.559,6.157,4.578,1.52,9.3,1.6,14.06,1.409a29.092,29.092,0,0,1,5.906-.111c11,1.867,21.541,5.442,32.111,8.88a17.276,17.276,0,0,0,5.337.92m-39.04-13.62c-1.166,0-2.347.089-3.507.142-4.619.21-9.2.17-13.661-1.254a7.643,7.643,0,0,1-4.516-2.97c.616-.029,1.048-.066,1.483-.066q8.627-.006,17.258,0a5.227,5.227,0,0,0,1.1-.03,2.038,2.038,0,0,0,1.826-2.084,2,2,0,0,0-2.029-2.011c-2.3-.044-4.6-.03-6.9-.011-1.077.007-2.114-.037-2.2-1.45-.066-1.055.789-1.535,2.284-1.524,7.9.066,15.635,1.483,23.386,2.8,6.8,1.158,13.6,2.28,20.4,3.431a6.012,6.012,0,0,0,5.77-1.922c1.656-1.885,3.044-4.01,4.516-6.054a14.856,14.856,0,0,0,.926-1.686c4.715,2.7,9.293,5.335,13.916,7.995a5.176,5.176,0,0,1-.435.483c-4.873,4.486-9.791,8.932-14.62,13.469-2.951,2.774-6.179,3.14-9.935,1.907-10.7-3.5-21.4-7.035-32.52-8.972a14.723,14.723,0,0,0-2.54-.193m51.441-35.882c-.841,0-1.549.61-1.975,1.751-1.668,4.475-3.184,9.016-5.043,13.41a85.59,85.59,0,0,1-4.641,8.895c-1.3,2.287-3.11,3.1-5.984,2.56-10.57-1.977-21.2-3.63-31.812-5.408-.314-.052-.62-.151-1.1-.269,0-1.564,0-3.033,0-4.5,0-8.884.022-17.764-.03-26.647a2.436,2.436,0,0,1,1.347-2.416c2.763-1.645,5.46-3.394,8.4-5.239.45,2.376.863,4.556,1.273,6.736.181.948.343,1.9.539,2.844.461,2.228,2.184,2.844,3.981,1.365,1.6-1.317,3.128-2.715,4.693-4.073.207-.177.432-.339.8-.627.262.86.509,1.612.716,2.38.8,2.97,1.612,5.943,2.391,8.921.277,1.055.767,1.937,1.911,2.1s1.69-.7,2.184-1.572q2.889-5.1,5.8-10.19c.221-.387.472-.764.775-1.247,2.719,1.387,5.371,2.734,8.02,4.088.616.314,1.217.653,1.837.952,1.431.694,2.284.472,3.158-.871q3.647-5.611,7.264-11.241c.17-.269.354-.531.553-.83a1.754,1.754,0,0,1,.539.125q7.974,5.063,15.941,10.138a5.487,5.487,0,0,1,2.708,5.611c-1,9.692-1.594,19.446-4.375,28.861-.845,2.863-.944,2.9-3.829,1.977-5.965-1.9-11.278-5.124-16.6-8.323-2.966-1.782-2.907-1.8-1.7-5.01,1.395-3.7,2.726-7.415,4.058-11.134.524-1.461.118-2.52-1.059-2.973a2.046,2.046,0,0,0-.737-.146m-99.008-17.4c3.082,0,6.185,0,9.333,0,0,15.056,0,29.931,0,44.905-.4.03-.753.081-1.1.081q-7.936.006-15.864,0c-1.679,0-2.136-.435-2.136-2.121Q3.9,91.256,3.9,70.912c0-1.21.332-2.155,1.719-2.162,2.681-.012,5.361-.015,8.058-.015m35.135-.01q3.551,0,7.1.007c1.638,0,2.18.516,2.18,2.132q.017,17.592,0,35.177c0,.269-.041.539-.063.782-1.752,0-3.431.029-5.11,0-4.885-.093-6.873,1.837-6.888,6.84-2.346,0-4.582,0-6.9-.007V68.835a10.165,10.165,0,0,1,1.048-.1q4.313-.006,8.625-.007m-21.485.088h7.5v44.817h-7.5V68.813M87.617,55.5c2.985.044,5.726.184,8.456.092a15.3,15.3,0,0,0,7.758-2.667c.553,1.918,1.11,3.7,1.549,5.512a1.683,1.683,0,0,1-.5,1.181c-1.265,1.461-2.531,2.929-3.888,4.3a54.854,54.854,0,0,0-10.57,14.532c-.317.653-.73,1.262-1.251,2.147a103.149,103.149,0,0,1-3.7-16.258c-.446-3.523,1.431-6.131,2.14-8.839m21.149,6.426a.592.592,0,0,1,.267.052c1.782.933,3.531,1.929,5.36,2.948-2.365,3.748-4.589,7.271-6.855,10.854-2.715-1.4-5.312-2.745-8.017-4.139,2.918-3.239,5.737-6.382,8.588-9.5a1.009,1.009,0,0,1,.656-.218M81.5,64.212c.218,1.885.435,3.641.612,5.4a.853.853,0,0,1-.306.579c-1.431,1.276-2.878,2.534-4.42,3.885-.151-.535-.273-.874-.343-1.232-.424-2.114-.834-4.228-1.276-6.482,1.878-.7,3.7-1.391,5.733-2.154M78.113,24.273a18.3,18.3,0,0,1,9.511,4.955,6.2,6.2,0,0,0,4.582,1.66c6.984-.029,13.971.063,20.958.137,1.966.018,2.472.8,1.756,2.7-.786,2.081-2.49,3.339-4.191,4.623a6.16,6.16,0,0,0-1.841,2.044,24.047,24.047,0,0,1-6.3,8.422,12.121,12.121,0,0,1-7.854,2.841h-.7a14.086,14.086,0,0,1-6.158-.959,13.219,13.219,0,0,1-6.161-6.25c-2.5-4.785-3.28-10-3.579-15.307-.092-1.59-.015-3.187-.015-4.87m10.025-3.819a16.622,16.622,0,0,1,13.144,6.291c-1.963,0-3.778-.129-5.571.03A9.468,9.468,0,0,1,87.8,24.343a28.349,28.349,0,0,0-4.833-3.033,15.539,15.539,0,0,1,5.166-.857m.236-4.043a26.167,26.167,0,0,0-7.055,1.03c-.384.107-.767.2-1.465.373,3.14-6.165,6.375-11.927,13.5-13.469a19.919,19.919,0,0,1,12.185,1.125c5.593,2.4,8.124,6.984,8.67,12.757.269,2.852.048,5.751.048,8.566-2.63,0-4.969.052-7.3-.052-.4-.015-.841-.612-1.147-1.029-3.542-4.84-8.1-8.1-14.119-9.046a21.36,21.36,0,0,0-3.316-.256M100.284,135.94a17.663,17.663,0,0,1-5.43-.935l-2.3-.749c-9.632-3.143-19.593-6.393-29.772-8.121a10.138,10.138,0,0,0-1.708-.13c-.788,0-1.605.065-2.4.129-.571.046-1.162.093-1.741.116-1.252.05-2.343.074-3.336.074a33.772,33.772,0,0,1-10.83-1.5,15.5,15.5,0,0,1-4.551-2.269,9.941,9.941,0,0,1-3.189-4.053,1.618,1.618,0,0,0-1.048-.362c-4.41-.021-8.8-.024-12.5-.024l-8.342,0q-1.133,0-2.266,0t-2.266,0c-1.015,0-1.857,0-2.65-.013a6.4,6.4,0,0,1-4.571-1.69,6.282,6.282,0,0,1-1.673-4.568c-.018-13.651-.018-27.5,0-41.146a6.266,6.266,0,0,1,1.666-4.518,6.115,6.115,0,0,1,4.47-1.688c8.388-.007,16.888-.011,25.264-.011s16.876,0,25.264.011a5.712,5.712,0,0,1,3.744,1.076,7.869,7.869,0,0,1,2.231,3.348c.82-.5,1.643-1.011,2.442-1.509,2.095-1.307,4.26-2.658,6.494-3.8a64.142,64.142,0,0,1,7.344-3.011q.614-.222,1.226-.446a2.887,2.887,0,0,0,2.185-2.127,19.229,19.229,0,0,1,.833-2.374c.217-.541.442-1.1.622-1.659a1.163,1.163,0,0,0-.089-.835c-4.384-3.376-7.039-8.2-8.358-15.19-.522-2.765-.825-5.63-1.117-8.4-.114-1.077-.231-2.185-.36-3.289a3.209,3.209,0,0,0-.55.595c-.306.46-.586.957-.857,1.437-.238.423-.485.861-.752,1.28a2.261,2.261,0,0,1-1.9,1.2,2.413,2.413,0,0,1-.949-.21,2.044,2.044,0,0,1-1.3-2.719,14.228,14.228,0,0,1,2.316-4.3,10.277,10.277,0,0,1,3.941-2.99,2.567,2.567,0,0,0,1.223-1.294A44.122,44.122,0,0,1,80.713,8.056,20.848,20.848,0,0,1,88,1.752a20.276,20.276,0,0,1,9.2-2.061c.611,0,1.243.023,1.877.067,4.906.344,8.625,1.518,11.7,3.7,4.432,3.137,6.984,7.732,7.585,13.658a54.326,54.326,0,0,1,.1,7.088c-.034,1.114-.068,2.266-.068,3.394a2.891,2.891,0,0,0,.2,1.289,7.173,7.173,0,0,1-.458,8.008,22.022,22.022,0,0,1-2.928,3.161c-.487.461-.99.938-1.458,1.423a11.558,11.558,0,0,0-1.285,1.495c-1.639,2.409-3,4.441-4.318,6.525a2.036,2.036,0,0,0-.315,1.351c.21.9.482,1.813.744,2.693.241.808.49,1.644.694,2.479a2.745,2.745,0,0,0,1.539,1.95,241.7,241.7,0,0,1,24.97,14.982c2.84,1.978,5.425,4.069,5.852,7.868l0,.017v.017c0,1.025,0,2.054,0,3.05l0,.032q-.137,1.264-.27,2.529c-.178,1.678-.362,3.413-.56,5.118q-.072.628-.144,1.257c-.748,6.519-1.521,13.261-3.433,19.7a23.246,23.246,0,0,1-1.849,4.347,3.231,3.231,0,0,1-2.872,1.892,3.548,3.548,0,0,1-.638-.06l-.684-.124a39.805,39.805,0,0,1-4.447-.98,2.484,2.484,0,0,0-.716-.125,1.669,1.669,0,0,0-1.181.556c-3.7,3.42-7.469,6.877-11.117,10.22q-2.169,1.988-4.338,3.977a14.36,14.36,0,0,1-4.362,2.807A12.713,12.713,0,0,1,100.284,135.94Zm-39.04-14.22a15.005,15.005,0,0,1,2.591.2c11,1.915,21.742,5.437,32.134,8.842l.428.14a11.843,11.843,0,0,0,3.707.657,8.385,8.385,0,0,0,5.93-2.5c3.292-3.093,6.679-6.193,9.955-9.191,1.532-1.4,3.115-2.851,4.668-4.281.063-.058.122-.121.177-.182-4.536-2.61-8.9-5.119-13.333-7.66-.043.085-.085.17-.127.253a8.4,8.4,0,0,1-.678,1.192c-.359.5-.72,1.012-1.069,1.508a53.413,53.413,0,0,1-3.465,4.569,6.151,6.151,0,0,1-4.743,2.132,7.863,7.863,0,0,1-1.3-.112c-3-.508-6.055-1.019-9.008-1.513-3.734-.625-7.595-1.271-11.39-1.918l-1.558-.266c-7.095-1.215-14.431-2.471-21.78-2.533h-.048a2.381,2.381,0,0,0-1.708.472.928.928,0,0,0-.226.733c.06,1,.59,1.169,1.754,1.169H52.3c1.137-.009,2.349-.018,3.555-.018,1.24,0,2.337.01,3.355.029a2.353,2.353,0,0,1,.26,4.688,2.544,2.544,0,0,1-.55.051c-.108,0-.215,0-.319-.008s-.2-.007-.3-.007c-5.657,0-11.507,0-17.258,0-.285,0-.577.017-.915.036h0a7.713,7.713,0,0,0,4.043,2.414,32.059,32.059,0,0,0,9.934,1.333c1.078,0,2.229-.03,3.622-.093.325-.015.659-.033.982-.05C59.538,121.767,60.4,121.721,61.245,121.721Zm51.441-35.882a2.349,2.349,0,0,1,.844.166,2.192,2.192,0,0,1,1.341,1.287,3.029,3.029,0,0,1-.108,2.068c-1.31,3.659-2.665,7.44-4.06,11.139l-.049.13c-.538,1.429-.835,2.217-.654,2.729s.866.939,2.278,1.788l.245.147c5.137,3.089,10.449,6.283,16.29,8.147a8.578,8.578,0,0,0,2.094.52c.616,0,.807-.435,1.357-2.3,2.344-7.935,3.147-16.262,3.922-24.315.142-1.472.289-3,.442-4.492a5.209,5.209,0,0,0-2.571-5.328c-5.794-3.69-11.009-7.006-15.941-10.138a.733.733,0,0,0-.221-.049l-.015,0-.092.136c-.123.182-.24.353-.349.526l-2,3.1c-1.723,2.671-3.5,5.433-5.266,8.144a2.437,2.437,0,0,1-2.047,1.391,3.442,3.442,0,0,1-1.493-.414c-.376-.181-.75-.38-1.112-.572-.239-.127-.486-.258-.731-.383-1.529-.782-3.092-1.577-4.6-2.347l-3.173-1.617-.122.192c-.188.3-.351.551-.5.812-1.9,3.335-3.871,6.784-5.8,10.189-.418.736-.99,1.744-2.168,1.744a2.249,2.249,0,0,1-.32-.024A2.72,2.72,0,0,1,85.947,85.9c-.715-2.734-1.467-5.51-2.194-8.194l-.2-.724c-.145-.539-.312-1.075-.488-1.643l-.1-.313c-.178.136-.318.244-.446.353-.519.45-1.045.915-1.554,1.364-1.02.9-2.075,1.832-3.144,2.713a3.372,3.372,0,0,1-2.088.875c-1.176,0-2.065-.9-2.377-2.41-.127-.611-.241-1.234-.351-1.837-.061-.332-.124-.676-.188-1.012-.385-2.048-.777-4.117-1.191-6.3-.713.448-1.415.893-2.1,1.324C67.5,71.376,65.575,72.594,63.6,73.77a2.144,2.144,0,0,0-1.2,2.157c.04,6.834.036,13.78.032,20.5q0,3.075,0,6.151c0,1.394,0,2.794,0,4.267l.234.062c.239.064.427.114.614.145,2.952.495,5.954.988,8.857,1.464,7.536,1.237,15.329,2.517,22.962,3.945a8.375,8.375,0,0,0,1.528.155,4.415,4.415,0,0,0,4.14-2.569l.233-.408a81.523,81.523,0,0,0,4.393-8.455c1.286-3.039,2.428-6.205,3.532-9.267.489-1.356.995-2.758,1.506-4.131C110.9,86.53,111.7,85.839,112.686,85.839Zm-99.008-16.8c-3.223,0-5.708,0-8.057.015-1.009.005-1.421.545-1.421,1.862,0,6.029,0,12.158,0,18.085,0,7.409,0,15.07.007,22.606,0,.8.1,1.238.349,1.479a2.116,2.116,0,0,0,1.487.342c2.057,0,4.248,0,6.7,0q4.579,0,9.159,0c.221,0,.447-.022.686-.045l.121-.012c0-14.781,0-29.142,0-44.33l-4.416,0ZM39.44,113.352c2.112.006,4.156.006,6.3.006.046-2.416.565-4.061,1.624-5.163,1.1-1.146,2.765-1.68,5.233-1.68.11,0,.221,0,.334,0,.543.011,1.118.016,1.811.016.534,0,1.083,0,1.614-.006.46,0,.933-.005,1.409-.006a4.568,4.568,0,0,0,.033-.482v-.086c0-11.5.007-23.391,0-35.09,0-1.435-.4-1.829-1.881-1.833-2.224,0-4.547-.007-7.1-.007-2.506,0-5.247,0-8.624.007a5.317,5.317,0,0,0-.684.061l-.064.008Zm-11.813-.023h6.9V69.113h-6.9ZM87.845,55.806A23.986,23.986,0,0,1,87,58.134,11.957,11.957,0,0,0,85.775,64.3a101.019,101.019,0,0,0,3.494,15.554l.137-.224c.292-.478.544-.891.749-1.312a54.866,54.866,0,0,1,10.626-14.612c1.3-1.317,2.542-2.748,3.74-4.132l.134-.155a1.482,1.482,0,0,0,.433-.914c-.324-1.338-.711-2.651-1.12-4.042-.1-.351-.209-.711-.315-1.075a15.35,15.35,0,0,1-7.571,2.5c-.616.021-1.261.031-1.97.031-1.257,0-2.507-.032-3.831-.065C89.491,55.84,88.675,55.819,87.845,55.806Zm12.16,15.748,4.83,2.494,2.6,1.341c2.006-3.173,4.093-6.477,6.538-10.353l-.933-.522c-1.42-.794-2.761-1.544-4.143-2.268a.339.339,0,0,0-.128-.018.772.772,0,0,0-.437.123c-2.329,2.543-4.6,5.064-7,7.732Zm-23.9-5,.318,1.625c.311,1.588.6,3.089.909,4.607.044.223.11.442.193.719l.011.038.613-.536c1.2-1.045,2.324-2.032,3.452-3.038a.66.66,0,0,0,.207-.327c-.129-1.286-.279-2.558-.437-3.905q-.065-.55-.13-1.112Zm2.306-41.93c0,.415-.009.826-.014,1.226-.017,1.129-.033,2.2.03,3.271.263,4.662.889,10.112,3.545,15.185a12.8,12.8,0,0,0,6.021,6.116,13.95,13.95,0,0,0,6.032.932h.721a11.82,11.82,0,0,0,7.65-2.775,23.362,23.362,0,0,0,6.224-8.321,6.322,6.322,0,0,1,1.929-2.151l.095-.071c1.674-1.263,3.256-2.457,4-4.418.33-.876.378-1.466.147-1.8s-.754-.487-1.625-.5l-2.759-.03c-5.065-.055-10.3-.112-15.45-.112-.938,0-1.862,0-2.745.006h-.049a6.483,6.483,0,0,1-4.736-1.738A18.059,18.059,0,0,0,78.412,24.628Zm5.285-3.24c.316.18.639.355.955.527a15.89,15.89,0,0,1,3.358,2.209,8.7,8.7,0,0,0,6.33,2.414c.424,0,.877-.021,1.345-.062.619-.055,1.283-.08,2.09-.08.559,0,1.112.012,1.7.024.386.008.78.017,1.179.021a16.4,16.4,0,0,0-12.513-5.687A15.35,15.35,0,0,0,83.7,21.388Zm4.676-5.278a21.77,21.77,0,0,1,3.362.259,20.357,20.357,0,0,1,8.106,3.108,24.465,24.465,0,0,1,6.208,6.057c.2.268.659.9.916.907,1.29.057,2.564.064,3.531.064.589,0,1.176,0,1.8-.006.541,0,1.1-.006,1.666-.006,0-.779.023-1.571.042-2.341a50.27,50.27,0,0,0-.089-5.9c-.58-6.131-3.436-10.34-8.489-12.51a19.322,19.322,0,0,0-7.67-1.577,20.517,20.517,0,0,0-4.333.47c-6.586,1.425-9.726,6.362-13,12.724l.015,0c.326-.081.562-.14.8-.206A26.252,26.252,0,0,1,88.374,16.11Z" transform="translate(0)" fill="#ccc"/>
    <path id="Path_1540" data-name="Path 1540" d="M230.379,246.688c.055-1.985.716-2.955,2.155-2.929,1.409.026,2.033,1.07,1.918,3.3-.03.539-.015,1.24-.328,1.564-.52.531-1.361,1.21-1.94,1.107-.672-.118-1.277-.963-1.771-1.6C230.213,247.876,230.379,247.334,230.379,246.688Z" transform="translate(-145.345 -153.837)" fill="#ccc"/>
    <path id="Path_1541" data-name="Path 1541" d="M227.969,269.857c.074-2.191.694-3.114,2.1-3.088,1.527.03,2.147,1.015,1.97,3.239a4.562,4.562,0,0,1-.406,1.712,1.692,1.692,0,0,1-2.313.915c-.6-.31-.956-1.166-1.332-1.826C227.851,270.565,227.969,270.178,227.969,269.857Z" transform="translate(-143.835 -168.358)" fill="#ccc"/>
  </g>
</svg>
