<?xml version="1.0" encoding="utf-8"?>
<!-- Generator: Adobe Illustrator 25.4.1, SVG Export Plug-In . SVG Version: 6.00 Build 0)  -->
<svg version="1.1" id="Layer_1" xmlns="http://www.w3.org/2000/svg" xmlns:xlink="http://www.w3.org/1999/xlink" x="0px" y="0px"
	 viewBox="0 0 16 16" style="enable-background:new 0 0 16 16;" xml:space="preserve">
<style type="text/css">
	.st0{fill:none;}
</style>
<g id="Group_1164" transform="translate(-1506 1198)">
	<g id="Ellipse_3" transform="translate(1510 -1198)">
		<g>
			<circle class="st0" cx="4" cy="4.1" r="2.4"/>
		</g>
	</g>
	<g id="Path_6" transform="translate(1506 -1199.793)">
		<g>
			<path class="st0" d="M14.3,16.1H1.7v-1.1c0-1.1,1-2,1.6-2.4c1.2-0.8,2.9-1.2,4.7-1.2s3.5,0.5,4.7,1.2c0.6,0.4,1.6,1.2,1.6,2.4
				V16.1z"/>
			<rect x="0.2" y="17.6" class="st0" width="15.6" height="0"/>
		</g>
	</g>
</g>
<circle cx="8" cy="4.1" r="2.4"/>
<path d="M0,0v16h16V0H0z M5.5,1.1c0.2-0.2,0.4-0.3,0.6-0.4c0.3-0.2,0.7-0.3,1.1-0.4C7.5,0.2,7.7,0.2,8,0.2s0.5,0,0.8,0.1
	c0.4,0.1,0.7,0.2,1.1,0.4c0.2,0.1,0.4,0.3,0.6,0.4c0.9,0.7,1.4,1.8,1.4,3C11.9,6.2,10.2,8,8,8S4.1,6.2,4.1,4.1
	C4.1,2.9,4.7,1.8,5.5,1.1z M15.8,15.8H0.2v-2.5c0-2.8,3.5-5.1,7.8-5.1s7.8,2.3,7.8,5.1V15.8z M12.7,10.9C11.5,10.1,9.8,9.7,8,9.7
	s-3.5,0.5-4.7,1.2c-0.6,0.4-1.6,1.2-1.6,2.4v1.1h12.7v-1.1C14.3,12.2,13.3,11.3,12.7,10.9z"/>
</svg>
