<?xml version="1.0" encoding="utf-8"?>
<!-- Generator: Adobe Illustrator 25.4.1, SVG Export Plug-In . SVG Version: 6.00 Build 0)  -->
<svg version="1.1" id="Layer_1" xmlns="http://www.w3.org/2000/svg" xmlns:xlink="http://www.w3.org/1999/xlink" x="0px" y="0px"
	 viewBox="0 0 329 170" style="enable-background:new 0 0 329 170;" xml:space="preserve">
<style type="text/css">
	.st0{fill:#707070;}
	.st1{fill:#1486F9;}
	.st2{fill:#999999;}
	.st3{fill:#777777;}
	.st4{fill:#5C5C5C;}
	.st5{enable-background:new    ;}
	.st6{fill:#A1A1A6;}
</style>
<g id="SSD" transform="translate(-468 -2412)">
	<g id="Group_889" transform="translate(-58 -2)">
		<g id="Group_920">
			<g id="Line_76">
				<rect x="602" y="2414.5" class="st0" width="1" height="116.5"/>
			</g>
			<g id="Line_76-2">
				<rect x="665" y="2414.5" class="st0" width="1" height="116.5"/>
			</g>
			<g id="Line_76-3">
				<rect x="728" y="2414.5" class="st0" width="1" height="116.5"/>
			</g>
			<g id="Line_76-4">
				<rect x="791" y="2414.5" class="st0" width="1" height="116.5"/>
			</g>
			<g id="Line_76-5">
				<rect x="854" y="2414.5" class="st0" width="1" height="116.5"/>
			</g>
		</g>
		<g id="Rectangle_1479">
			<rect x="602" y="2414" class="st1" width="253" height="16"/>
		</g>
		<g id="Rectangle_1480">
			<rect x="602" y="2444.5" class="st2" width="42" height="16"/>
		</g>
		<g id="Rectangle_1481">
			<rect x="602" y="2474.5" class="st3" width="34" height="16"/>
		</g>
		<g id="Rectangle_1482">
			<rect x="602" y="2504.5" class="st4" width="23" height="16"/>
		</g>
		<g id="Line_77">
			<rect x="602.5" y="2530" class="st0" width="252" height="1"/>
		</g>
		<g class="st5">
			<path class="st1" d="M528.9,2420l3.3,8.1l3.3-8.1h1.7v10h-1.3v-3.9l0.1-4.2l-3.3,8.1h-1l-3.3-8l0.1,4.2v3.9h-1.3v-10H528.9z"/>
			<path class="st1" d="M539.2,2429.3c0-0.2,0.1-0.4,0.2-0.5s0.3-0.2,0.6-0.2s0.5,0.1,0.6,0.2s0.2,0.3,0.2,0.5
				c0,0.2-0.1,0.4-0.2,0.5s-0.3,0.2-0.6,0.2s-0.5-0.1-0.6-0.2S539.2,2429.5,539.2,2429.3z"/>
			<path class="st1" d="M549.3,2430h-6.5v-0.9l3.4-3.8c0.5-0.6,0.9-1,1.1-1.4c0.2-0.4,0.3-0.7,0.3-1.1c0-0.5-0.2-0.9-0.5-1.3
				s-0.7-0.5-1.3-0.5c-0.6,0-1.1,0.2-1.5,0.5c-0.3,0.4-0.5,0.9-0.5,1.5h-1.3c0-0.9,0.3-1.7,0.9-2.2s1.4-0.8,2.4-0.8
				c0.9,0,1.7,0.2,2.2,0.7c0.5,0.5,0.8,1.1,0.8,1.9c0,1-0.6,2.1-1.9,3.5l-2.7,2.9h5V2430z"/>
			<path class="st1" d="M562,2430h-1.3l-5-7.7v7.7h-1.3v-10h1.3l5,7.7v-7.7h1.3V2430z"/>
			<path class="st1" d="M567.7,2428.3l2.8-8.2h1.4l-3.7,10h-1.2l-3.7-10h1.4L567.7,2428.3z"/>
			<path class="st1" d="M574.3,2422.6l0,0.8c0.5-0.6,1.3-1,2.2-1c1,0,1.7,0.4,2.1,1.2c0.2-0.4,0.6-0.6,1-0.9s0.9-0.3,1.4-0.3
				c1.6,0,2.4,0.9,2.5,2.6v5h-1.3v-4.9c0-0.5-0.1-0.9-0.4-1.2c-0.2-0.3-0.6-0.4-1.2-0.4c-0.5,0-0.9,0.1-1.2,0.4
				c-0.3,0.3-0.5,0.7-0.5,1.1v4.9h-1.3v-4.8c0-1.1-0.5-1.6-1.6-1.6c-0.8,0-1.4,0.4-1.7,1.1v5.4h-1.3v-7.4H574.3z"/>
			<path class="st1" d="M588.4,2430.1c-1,0-1.8-0.3-2.4-1c-0.6-0.7-0.9-1.5-0.9-2.6v-0.2c0-0.7,0.1-1.4,0.4-2c0.3-0.6,0.7-1,1.2-1.4
				c0.5-0.3,1-0.5,1.6-0.5c1,0,1.7,0.3,2.2,1s0.8,1.5,0.8,2.7v0.5h-5c0,0.7,0.2,1.3,0.6,1.8c0.4,0.4,0.9,0.7,1.6,0.7
				c0.4,0,0.8-0.1,1.1-0.3s0.6-0.4,0.8-0.7l0.8,0.6C590.6,2429.7,589.7,2430.1,588.4,2430.1z M588.3,2423.5c-0.5,0-0.9,0.2-1.3,0.6
				c-0.3,0.4-0.6,0.9-0.6,1.6h3.7v-0.1c0-0.6-0.2-1.1-0.5-1.5C589.2,2423.7,588.8,2423.5,588.3,2423.5z"/>
		</g>
		<g class="st5">
			<path class="st2" d="M528.9,2447.5l3.3,8.1l3.3-8.1h1.7v10h-1.3v-3.9l0.1-4.2l-3.3,8.1h-1l-3.3-8l0.1,4.2v3.9h-1.3v-10H528.9z"/>
			<path class="st2" d="M539.2,2456.8c0-0.2,0.1-0.4,0.2-0.5s0.3-0.2,0.6-0.2s0.5,0.1,0.6,0.2s0.2,0.3,0.2,0.5
				c0,0.2-0.1,0.4-0.2,0.5s-0.3,0.2-0.6,0.2s-0.5-0.1-0.6-0.2S539.2,2457,539.2,2456.8z"/>
			<path class="st2" d="M549.3,2457.5h-6.5v-0.9l3.4-3.8c0.5-0.6,0.9-1,1.1-1.4c0.2-0.4,0.3-0.7,0.3-1.1c0-0.5-0.2-0.9-0.5-1.3
				s-0.7-0.5-1.3-0.5c-0.6,0-1.1,0.2-1.5,0.5c-0.3,0.4-0.5,0.9-0.5,1.5h-1.3c0-0.9,0.3-1.7,0.9-2.2s1.4-0.8,2.4-0.8
				c0.9,0,1.7,0.2,2.2,0.7c0.5,0.5,0.8,1.1,0.8,1.9c0,1-0.6,2.1-1.9,3.5l-2.7,2.9h5V2457.5z"/>
			<path class="st2" d="M562,2457.5h-1.3l-5-7.7v7.7h-1.3v-10h1.3l5,7.7v-7.7h1.3V2457.5z"/>
			<path class="st2" d="M571.7,2456.2c-0.3,0.5-0.8,0.8-1.4,1.1c-0.6,0.2-1.3,0.4-2.1,0.4c-0.8,0-1.5-0.2-2.2-0.6
				c-0.6-0.4-1.1-0.9-1.5-1.6s-0.5-1.5-0.5-2.4v-0.9c0-1.5,0.3-2.7,1-3.5s1.7-1.2,2.9-1.2c1,0,1.9,0.3,2.5,0.8
				c0.6,0.5,1,1.3,1.2,2.3h-1.3c-0.2-1.3-1-2-2.4-2c-0.9,0-1.5,0.3-2,0.9c-0.5,0.6-0.7,1.5-0.7,2.7v0.8c0,1.1,0.3,2,0.8,2.7
				s1.2,1,2.1,1c0.5,0,0.9-0.1,1.3-0.2c0.4-0.1,0.7-0.3,0.9-0.6v-2.2h-2.3v-1.1h3.6V2456.2z"/>
			<path class="st2" d="M579.4,2453.1h-4.2v4.4h-1.3v-10h6.2v1.1h-4.9v3.4h4.2V2453.1z"/>
			<path class="st2" d="M587.1,2453.1H583v4.4h-1.3v-10h6.2v1.1H583v3.4h4.2V2453.1z"/>
		</g>
		<g class="st5">
			<path class="st3" d="M531.1,2482.1c-1.1-0.3-1.9-0.7-2.5-1.2c-0.5-0.5-0.8-1.1-0.8-1.7c0-0.8,0.3-1.4,0.9-1.9
				c0.6-0.5,1.4-0.8,2.4-0.8c0.7,0,1.3,0.1,1.8,0.4s1,0.6,1.2,1.1s0.4,1,0.4,1.5h-1.3c0-0.6-0.2-1.1-0.6-1.4
				c-0.4-0.3-0.9-0.5-1.6-0.5c-0.6,0-1.2,0.1-1.5,0.4c-0.4,0.3-0.5,0.7-0.5,1.2c0,0.4,0.2,0.8,0.5,1c0.3,0.3,0.9,0.5,1.8,0.8
				c0.8,0.2,1.5,0.5,1.9,0.8c0.5,0.3,0.8,0.6,1,1s0.3,0.8,0.3,1.3c0,0.8-0.3,1.5-0.9,1.9c-0.6,0.5-1.5,0.7-2.5,0.7
				c-0.7,0-1.3-0.1-1.9-0.4c-0.6-0.3-1-0.6-1.4-1.1s-0.5-1-0.5-1.6h1.3c0,0.6,0.2,1.1,0.7,1.4c0.4,0.3,1,0.5,1.8,0.5
				c0.7,0,1.2-0.1,1.6-0.4s0.6-0.7,0.6-1.2s-0.2-0.9-0.5-1.1C532.6,2482.6,532,2482.3,531.1,2482.1z"/>
			<path class="st3" d="M539.4,2482.1c-1.1-0.3-1.9-0.7-2.5-1.2c-0.5-0.5-0.8-1.1-0.8-1.7c0-0.8,0.3-1.4,0.9-1.9
				c0.6-0.5,1.4-0.8,2.4-0.8c0.7,0,1.3,0.1,1.8,0.4s1,0.6,1.2,1.1s0.4,1,0.4,1.5h-1.3c0-0.6-0.2-1.1-0.6-1.4
				c-0.4-0.3-0.9-0.5-1.6-0.5c-0.6,0-1.2,0.1-1.5,0.4c-0.4,0.3-0.5,0.7-0.5,1.2c0,0.4,0.2,0.8,0.5,1c0.3,0.3,0.9,0.5,1.8,0.8
				c0.8,0.2,1.5,0.5,1.9,0.8c0.5,0.3,0.8,0.6,1,1s0.3,0.8,0.3,1.3c0,0.8-0.3,1.5-0.9,1.9c-0.6,0.5-1.5,0.7-2.5,0.7
				c-0.7,0-1.3-0.1-1.9-0.4c-0.6-0.3-1-0.6-1.4-1.1s-0.5-1-0.5-1.6h1.3c0,0.6,0.2,1.1,0.7,1.4c0.4,0.3,1,0.5,1.8,0.5
				c0.7,0,1.2-0.1,1.6-0.4s0.6-0.7,0.6-1.2s-0.2-0.9-0.5-1.1C540.9,2482.6,540.3,2482.3,539.4,2482.1z"/>
			<path class="st3" d="M544.8,2486.5v-10h2.8c0.9,0,1.6,0.2,2.3,0.6s1.2,0.9,1.5,1.6s0.5,1.5,0.6,2.4v0.6c0,0.9-0.2,1.8-0.5,2.5
				s-0.9,1.2-1.6,1.6s-1.5,0.6-2.3,0.6H544.8z M546.1,2477.6v7.8h1.4c1,0,1.8-0.3,2.4-0.9c0.6-0.6,0.8-1.5,0.8-2.7v-0.6
				c0-1.1-0.3-2-0.8-2.6c-0.5-0.6-1.3-0.9-2.3-1H546.1z"/>
		</g>
		<g class="st5">
			<path class="st4" d="M535.8,2516.5h-1.3v-4.6h-5v4.6h-1.3v-10h1.3v4.3h5v-4.3h1.3V2516.5z"/>
			<path class="st4" d="M538.1,2516.5v-10h2.8c0.9,0,1.6,0.2,2.3,0.6s1.2,0.9,1.5,1.6s0.5,1.5,0.6,2.4v0.6c0,0.9-0.2,1.8-0.5,2.5
				s-0.9,1.2-1.6,1.6s-1.5,0.6-2.3,0.6H538.1z M539.4,2507.6v7.8h1.4c1,0,1.8-0.3,2.4-0.9c0.6-0.6,0.8-1.5,0.8-2.7v-0.6
				c0-1.1-0.3-2-0.8-2.6c-0.5-0.6-1.3-0.9-2.3-1H539.4z"/>
			<path class="st4" d="M547.3,2516.5v-10h2.8c0.9,0,1.6,0.2,2.3,0.6s1.2,0.9,1.5,1.6s0.5,1.5,0.6,2.4v0.6c0,0.9-0.2,1.8-0.5,2.5
				s-0.9,1.2-1.6,1.6s-1.5,0.6-2.3,0.6H547.3z M548.6,2507.6v7.8h1.4c1,0,1.8-0.3,2.4-0.9c0.6-0.6,0.8-1.5,0.8-2.7v-0.6
				c0-1.1-0.3-2-0.8-2.6c-0.5-0.6-1.3-0.9-2.3-1H548.6z"/>
		</g>
	</g>
	<g id="Group_888" transform="translate(-65 -73)">
		<g class="st5">
			<path class="st6" d="M667.7,2645.9c-1.3-0.4-2.2-0.8-2.8-1.4s-0.9-1.2-0.9-2c0-0.9,0.4-1.6,1.1-2.2c0.7-0.6,1.6-0.9,2.8-0.9
				c0.8,0,1.5,0.2,2.1,0.5c0.6,0.3,1.1,0.7,1.4,1.2s0.5,1.1,0.5,1.7h-1.5c0-0.7-0.2-1.2-0.7-1.6s-1.1-0.6-1.9-0.6
				c-0.7,0-1.3,0.2-1.7,0.5s-0.6,0.8-0.6,1.4c0,0.5,0.2,0.9,0.6,1.2c0.4,0.3,1.1,0.6,2,0.9c0.9,0.3,1.7,0.6,2.2,0.9
				c0.5,0.3,0.9,0.7,1.2,1.1s0.4,0.9,0.4,1.5c0,0.9-0.4,1.7-1.1,2.2s-1.7,0.8-2.9,0.8c-0.8,0-1.5-0.1-2.2-0.4
				c-0.7-0.3-1.2-0.7-1.6-1.2s-0.6-1.1-0.6-1.8h1.5c0,0.7,0.3,1.2,0.8,1.6s1.2,0.6,2,0.6c0.8,0,1.4-0.2,1.8-0.5s0.6-0.8,0.6-1.3
				s-0.2-1-0.6-1.3S668.7,2646.2,667.7,2645.9z"/>
			<path class="st6" d="M680.7,2646.9c0,1.3-0.3,2.3-0.9,3.1c-0.6,0.8-1.4,1.2-2.4,1.2c-1,0-1.8-0.3-2.4-1v4.1h-1.4v-11.7h1.3
				l0.1,0.9c0.6-0.7,1.4-1.1,2.5-1.1c1,0,1.8,0.4,2.4,1.1c0.6,0.8,0.9,1.8,0.9,3.2V2646.9z M679.3,2646.7c0-1-0.2-1.7-0.6-2.3
				s-1-0.8-1.7-0.8c-0.9,0-1.5,0.4-2,1.2v4c0.4,0.8,1.1,1.2,2,1.2c0.7,0,1.2-0.3,1.7-0.8C679.1,2648.6,679.3,2647.8,679.3,2646.7z"
				/>
			<path class="st6" d="M686.1,2651.2c-1.1,0-2.1-0.4-2.8-1.1s-1.1-1.8-1.1-3v-0.3c0-0.8,0.2-1.6,0.5-2.2s0.8-1.2,1.3-1.5
				c0.6-0.4,1.2-0.6,1.9-0.6c1.1,0,2,0.4,2.6,1.1s0.9,1.8,0.9,3.1v0.6h-5.7c0,0.8,0.3,1.5,0.7,2c0.5,0.5,1.1,0.8,1.8,0.8
				c0.5,0,0.9-0.1,1.3-0.3c0.4-0.2,0.7-0.5,0.9-0.8l0.9,0.7C688.5,2650.6,687.5,2651.2,686.1,2651.2z M685.9,2643.6
				c-0.6,0-1.1,0.2-1.5,0.6c-0.4,0.4-0.6,1-0.7,1.8h4.2v-0.1c0-0.7-0.2-1.3-0.6-1.7C687,2643.8,686.5,2643.6,685.9,2643.6z"/>
			<path class="st6" d="M694.5,2651.2c-1.1,0-2.1-0.4-2.8-1.1s-1.1-1.8-1.1-3v-0.3c0-0.8,0.2-1.6,0.5-2.2s0.8-1.2,1.3-1.5
				c0.6-0.4,1.2-0.6,1.9-0.6c1.1,0,2,0.4,2.6,1.1s0.9,1.8,0.9,3.1v0.6h-5.7c0,0.8,0.3,1.5,0.7,2c0.5,0.5,1.1,0.8,1.8,0.8
				c0.5,0,0.9-0.1,1.3-0.3c0.4-0.2,0.7-0.5,0.9-0.8l0.9,0.7C697,2650.6,696,2651.2,694.5,2651.2z M694.4,2643.6
				c-0.6,0-1.1,0.2-1.5,0.6c-0.4,0.4-0.6,1-0.7,1.8h4.2v-0.1c0-0.7-0.2-1.3-0.6-1.7C695.5,2643.8,695,2643.6,694.4,2643.6z"/>
			<path class="st6" d="M699.2,2646.7c0-1.3,0.3-2.3,0.9-3.1c0.6-0.8,1.4-1.2,2.4-1.2c1,0,1.8,0.3,2.4,1v-4.4h1.4v12H705l-0.1-0.9
				c-0.6,0.7-1.4,1.1-2.4,1.1c-1,0-1.8-0.4-2.4-1.2s-0.9-1.8-0.9-3.1V2646.7z M700.6,2646.9c0,1,0.2,1.7,0.6,2.2
				c0.4,0.5,0.9,0.8,1.6,0.8c0.9,0,1.6-0.4,2-1.2v-3.9c-0.4-0.8-1.1-1.2-2-1.2c-0.7,0-1.3,0.3-1.7,0.8
				C700.8,2645,700.6,2645.8,700.6,2646.9z"/>
			<path class="st6" d="M712.4,2646.4c0-1.2,0.2-2.3,0.5-3.4c0.3-1.1,0.8-2.1,1.4-3s1.3-1.5,1.9-1.9l0.3,1c-0.8,0.6-1.4,1.5-1.9,2.7
				c-0.5,1.2-0.8,2.5-0.8,4l0,0.7c0,2,0.4,3.8,1.1,5.2c0.4,0.9,1,1.6,1.6,2.1l-0.3,0.9c-0.7-0.4-1.4-1-2-1.9
				C713.1,2651,712.4,2648.8,712.4,2646.4z"/>
			<path class="st6" d="M721.9,2640.3c0-0.2,0.1-0.4,0.2-0.6c0.1-0.2,0.4-0.2,0.6-0.2s0.5,0.1,0.6,0.2c0.1,0.2,0.2,0.4,0.2,0.6
				s-0.1,0.4-0.2,0.6c-0.1,0.2-0.4,0.2-0.6,0.2s-0.5-0.1-0.6-0.2C722,2640.7,721.9,2640.5,721.9,2640.3z M723.5,2651h-1.4v-8.5h1.4
				V2651z"/>
			<path class="st6" d="M727.2,2642.5l0,1.1c0.6-0.8,1.5-1.2,2.5-1.2c1.8,0,2.7,1,2.7,3v5.6H731v-5.6c0-0.6-0.1-1.1-0.4-1.4
				s-0.7-0.4-1.3-0.4c-0.5,0-0.9,0.1-1.2,0.4c-0.4,0.2-0.6,0.6-0.8,1v6h-1.4v-8.5H727.2z"/>
			<path class="st6" d="M740.8,2639.6l3.7,9.3l3.7-9.3h1.9v11.4h-1.5v-4.4l0.1-4.8l-3.7,9.2h-1.1l-3.7-9.2l0.1,4.8v4.4h-1.5v-11.4
				H740.8z"/>
			<path class="st6" d="M752.8,2651v-11.4h3.7c1.2,0,2.2,0.3,2.8,0.8c0.6,0.5,0.9,1.3,0.9,2.3c0,0.5-0.2,1-0.5,1.4
				c-0.3,0.4-0.7,0.7-1.2,0.9c0.6,0.2,1.1,0.5,1.5,1c0.4,0.5,0.5,1.1,0.5,1.7c0,1-0.3,1.8-1,2.4c-0.7,0.6-1.6,0.9-2.8,0.9H752.8z
				 M754.3,2644.5h2.3c0.7,0,1.2-0.2,1.6-0.5c0.4-0.3,0.6-0.8,0.6-1.3c0-0.6-0.2-1.1-0.5-1.4c-0.4-0.3-0.9-0.4-1.7-0.4h-2.2V2644.5z
				 M754.3,2645.7v4.1h2.5c0.7,0,1.2-0.2,1.7-0.5c0.4-0.4,0.6-0.9,0.6-1.5c0-1.4-0.7-2.1-2.2-2.1H754.3z"/>
			<path class="st6" d="M764.3,2646.5v4.5h-1.5v-11.4h4.2c1.2,0,2.2,0.3,2.9,1c0.7,0.6,1.1,1.5,1.1,2.5c0,1.1-0.3,2-1,2.6
				c-0.7,0.6-1.7,0.9-3,0.9H764.3z M764.3,2645.3h2.7c0.8,0,1.4-0.2,1.8-0.6c0.4-0.4,0.6-0.9,0.6-1.6c0-0.7-0.2-1.2-0.6-1.6
				c-0.4-0.4-1-0.6-1.8-0.6h-2.8V2645.3z"/>
			<path class="st6" d="M776.2,2645.9c-1.3-0.4-2.2-0.8-2.8-1.4s-0.9-1.2-0.9-2c0-0.9,0.4-1.6,1.1-2.2c0.7-0.6,1.6-0.9,2.8-0.9
				c0.8,0,1.5,0.2,2.1,0.5c0.6,0.3,1.1,0.7,1.4,1.2s0.5,1.1,0.5,1.7h-1.5c0-0.7-0.2-1.2-0.7-1.6s-1.1-0.6-1.9-0.6
				c-0.7,0-1.3,0.2-1.7,0.5s-0.6,0.8-0.6,1.4c0,0.5,0.2,0.9,0.6,1.2c0.4,0.3,1.1,0.6,2,0.9c0.9,0.3,1.7,0.6,2.2,0.9
				c0.5,0.3,0.9,0.7,1.2,1.1s0.4,0.9,0.4,1.5c0,0.9-0.4,1.7-1.1,2.2s-1.7,0.8-2.9,0.8c-0.8,0-1.5-0.1-2.2-0.4
				c-0.7-0.3-1.2-0.7-1.6-1.2s-0.6-1.1-0.6-1.8h1.5c0,0.7,0.3,1.2,0.8,1.6s1.2,0.6,2,0.6c0.8,0,1.4-0.2,1.8-0.5s0.6-0.8,0.6-1.3
				s-0.2-1-0.6-1.3S777.2,2646.2,776.2,2645.9z"/>
			<path class="st6" d="M785.5,2646.5c0,1.2-0.2,2.3-0.5,3.3s-0.8,2-1.4,2.9c-0.6,0.9-1.3,1.5-2,1.9l-0.3-0.9
				c0.8-0.6,1.4-1.6,1.9-2.9c0.5-1.3,0.7-2.7,0.7-4.3v-0.2c0-1.1-0.1-2.1-0.3-3.1c-0.2-0.9-0.5-1.8-1-2.5c-0.4-0.7-0.9-1.3-1.4-1.7
				l0.3-0.9c0.7,0.4,1.3,1,2,1.9c0.6,0.9,1.1,1.9,1.4,2.9C785.3,2644.1,785.5,2645.2,785.5,2646.5z"/>
		</g>
		<g class="st5">
			<path class="st6" d="M607.1,2617.1c0,1.7-0.3,3-0.9,3.8s-1.5,1.2-2.7,1.2c-1.2,0-2.1-0.4-2.7-1.2c-0.6-0.8-0.9-2-0.9-3.6v-1.9
				c0-1.7,0.3-2.9,0.9-3.7s1.5-1.2,2.7-1.2c1.2,0,2.1,0.4,2.7,1.2s0.9,2,0.9,3.6V2617.1z M605.6,2615.2c0-1.2-0.2-2.1-0.5-2.7
				s-0.9-0.8-1.6-0.8c-0.7,0-1.3,0.3-1.6,0.8c-0.3,0.6-0.5,1.4-0.5,2.6v2.3c0,1.2,0.2,2.1,0.5,2.7c0.4,0.6,0.9,0.9,1.6,0.9
				c0.7,0,1.2-0.3,1.6-0.8c0.3-0.6,0.5-1.4,0.5-2.6V2615.2z"/>
		</g>
		<g class="st5">
			<path class="st6" d="M653.5,2617c-0.3,0.4-0.7,0.6-1.1,0.9c-0.4,0.2-0.9,0.3-1.4,0.3c-0.7,0-1.2-0.2-1.7-0.5
				c-0.5-0.3-0.9-0.8-1.1-1.4s-0.4-1.2-0.4-1.9c0-0.8,0.1-1.4,0.4-2.1s0.7-1.1,1.2-1.4s1.2-0.5,1.9-0.5c1.1,0,2,0.4,2.7,1.3
				s1,2,1,3.4v0.4c0,2.2-0.4,3.8-1.3,4.8s-2.2,1.5-4,1.6h-0.3v-1.2h0.3c1.2,0,2.1-0.3,2.8-0.9S653.5,2618.3,653.5,2617z M651.3,2617
				c0.5,0,0.9-0.1,1.3-0.4c0.4-0.3,0.7-0.7,0.9-1.1v-0.6c0-0.9-0.2-1.7-0.6-2.3c-0.4-0.6-0.9-0.9-1.6-0.9c-0.6,0-1.1,0.2-1.5,0.7
				c-0.4,0.5-0.6,1.1-0.6,1.9c0,0.8,0.2,1.4,0.6,1.9C650.2,2616.7,650.7,2617,651.3,2617z"/>
			<path class="st6" d="M664.1,2617.1c0,1.7-0.3,3-0.9,3.8s-1.5,1.2-2.7,1.2c-1.2,0-2.1-0.4-2.7-1.2c-0.6-0.8-0.9-2-0.9-3.6v-1.9
				c0-1.7,0.3-2.9,0.9-3.7s1.5-1.2,2.7-1.2c1.2,0,2.1,0.4,2.7,1.2s0.9,2,0.9,3.6V2617.1z M662.7,2615.2c0-1.2-0.2-2.1-0.5-2.7
				s-0.9-0.8-1.6-0.8c-0.7,0-1.3,0.3-1.6,0.8c-0.3,0.6-0.5,1.4-0.5,2.6v2.3c0,1.2,0.2,2.1,0.5,2.7c0.4,0.6,0.9,0.9,1.6,0.9
				c0.7,0,1.2-0.3,1.6-0.8c0.3-0.6,0.5-1.4,0.5-2.6V2615.2z"/>
			<path class="st6" d="M673.1,2617.1c0,1.7-0.3,3-0.9,3.8s-1.5,1.2-2.7,1.2c-1.2,0-2.1-0.4-2.7-1.2c-0.6-0.8-0.9-2-0.9-3.6v-1.9
				c0-1.7,0.3-2.9,0.9-3.7s1.5-1.2,2.7-1.2c1.2,0,2.1,0.4,2.7,1.2s0.9,2,0.9,3.6V2617.1z M671.6,2615.2c0-1.2-0.2-2.1-0.5-2.7
				s-0.9-0.8-1.6-0.8c-0.7,0-1.3,0.3-1.6,0.8c-0.3,0.6-0.5,1.4-0.5,2.6v2.3c0,1.2,0.2,2.1,0.5,2.7c0.4,0.6,0.9,0.9,1.6,0.9
				c0.7,0,1.2-0.3,1.6-0.8c0.3-0.6,0.5-1.4,0.5-2.6V2615.2z"/>
		</g>
		<g class="st5">
			<path class="st6" d="M706.8,2622h-1.5v-9.6l-2.9,1.1v-1.3l4.1-1.6h0.2V2622z"/>
			<path class="st6" d="M717.9,2613.6c0,0.6-0.1,1.1-0.4,1.5s-0.7,0.8-1.2,1c0.6,0.3,1.1,0.6,1.4,1.1s0.5,1,0.5,1.7
				c0,1-0.3,1.8-1,2.4s-1.5,0.9-2.6,0.9c-1.1,0-2-0.3-2.6-0.9s-1-1.4-1-2.3c0-0.6,0.2-1.2,0.5-1.7s0.8-0.9,1.4-1.1
				c-0.5-0.2-0.9-0.6-1.2-1s-0.4-0.9-0.4-1.5c0-1,0.3-1.7,0.9-2.3s1.4-0.8,2.4-0.8c1,0,1.8,0.3,2.4,0.8S717.9,2612.6,717.9,2613.6z
				 M716.7,2618.9c0-0.6-0.2-1.2-0.6-1.6s-0.9-0.6-1.6-0.6s-1.2,0.2-1.6,0.6s-0.6,0.9-0.6,1.6s0.2,1.2,0.6,1.5s0.9,0.6,1.6,0.6
				c0.7,0,1.2-0.2,1.6-0.6S716.7,2619.5,716.7,2618.9z M714.5,2611.7c-0.6,0-1,0.2-1.4,0.5s-0.5,0.8-0.5,1.4c0,0.6,0.2,1,0.5,1.4
				s0.8,0.5,1.4,0.5s1-0.2,1.4-0.5s0.5-0.8,0.5-1.4s-0.2-1-0.5-1.4S715.1,2611.7,714.5,2611.7z"/>
			<path class="st6" d="M727.1,2617.1c0,1.7-0.3,3-0.9,3.8s-1.5,1.2-2.7,1.2c-1.2,0-2.1-0.4-2.7-1.2s-0.9-2-0.9-3.6v-1.9
				c0-1.7,0.3-2.9,0.9-3.7s1.5-1.2,2.7-1.2c1.2,0,2.1,0.4,2.7,1.2s0.9,2,0.9,3.6V2617.1z M725.7,2615.2c0-1.2-0.2-2.1-0.5-2.7
				s-0.9-0.8-1.6-0.8c-0.7,0-1.3,0.3-1.6,0.8s-0.5,1.4-0.5,2.6v2.3c0,1.2,0.2,2.1,0.5,2.7s0.9,0.9,1.6,0.9c0.7,0,1.2-0.3,1.6-0.8
				s0.5-1.4,0.5-2.6V2615.2z"/>
			<path class="st6" d="M736.1,2617.1c0,1.7-0.3,3-0.9,3.8s-1.5,1.2-2.7,1.2c-1.2,0-2.1-0.4-2.7-1.2s-0.9-2-0.9-3.6v-1.9
				c0-1.7,0.3-2.9,0.9-3.7s1.5-1.2,2.7-1.2c1.2,0,2.1,0.4,2.7,1.2s0.9,2,0.9,3.6V2617.1z M734.6,2615.2c0-1.2-0.2-2.1-0.5-2.7
				s-0.9-0.8-1.6-0.8c-0.7,0-1.3,0.3-1.6,0.8s-0.5,1.4-0.5,2.6v2.3c0,1.2,0.2,2.1,0.5,2.7s0.9,0.9,1.6,0.9c0.7,0,1.2-0.3,1.6-0.8
				s0.5-1.4,0.5-2.6V2615.2z"/>
		</g>
		<g class="st5">
			<path class="st6" d="M772.5,2622H765v-1l3.9-4.4c0.6-0.7,1-1.2,1.2-1.6c0.2-0.4,0.3-0.8,0.3-1.3c0-0.6-0.2-1.1-0.5-1.5
				s-0.8-0.6-1.4-0.6c-0.7,0-1.3,0.2-1.7,0.6s-0.6,1-0.6,1.7h-1.4c0-1,0.3-1.9,1-2.5c0.7-0.6,1.6-1,2.7-1c1.1,0,1.9,0.3,2.5,0.8
				c0.6,0.6,0.9,1.3,0.9,2.2c0,1.1-0.7,2.5-2.1,4l-3,3.3h5.7V2622z"/>
			<path class="st6" d="M781.3,2611.4l-4.7,10.6h-1.5l4.7-10.2h-6.2v-1.2h7.7V2611.4z"/>
			<path class="st6" d="M790.1,2617.1c0,1.7-0.3,3-0.9,3.8s-1.5,1.2-2.7,1.2c-1.2,0-2.1-0.4-2.7-1.2c-0.6-0.8-0.9-2-0.9-3.6v-1.9
				c0-1.7,0.3-2.9,0.9-3.7s1.5-1.2,2.7-1.2c1.2,0,2.1,0.4,2.7,1.2s0.9,2,0.9,3.6V2617.1z M788.7,2615.2c0-1.2-0.2-2.1-0.5-2.7
				s-0.9-0.8-1.6-0.8c-0.7,0-1.3,0.3-1.6,0.8c-0.3,0.6-0.5,1.4-0.5,2.6v2.3c0,1.2,0.2,2.1,0.5,2.7c0.4,0.6,0.9,0.9,1.6,0.9
				c0.7,0,1.2-0.3,1.6-0.8c0.3-0.6,0.5-1.4,0.5-2.6V2615.2z"/>
			<path class="st6" d="M799.1,2617.1c0,1.7-0.3,3-0.9,3.8s-1.5,1.2-2.7,1.2c-1.2,0-2.1-0.4-2.7-1.2c-0.6-0.8-0.9-2-0.9-3.6v-1.9
				c0-1.7,0.3-2.9,0.9-3.7s1.5-1.2,2.7-1.2c1.2,0,2.1,0.4,2.7,1.2s0.9,2,0.9,3.6V2617.1z M797.6,2615.2c0-1.2-0.2-2.1-0.5-2.7
				s-0.9-0.8-1.6-0.8c-0.7,0-1.3,0.3-1.6,0.8c-0.3,0.6-0.5,1.4-0.5,2.6v2.3c0,1.2,0.2,2.1,0.5,2.7c0.4,0.6,0.9,0.9,1.6,0.9
				c0.7,0,1.2-0.3,1.6-0.8c0.3-0.6,0.5-1.4,0.5-2.6V2615.2z"/>
		</g>
		<g class="st5">
			<path class="st6" d="M829.1,2615.6h1.1c0.7,0,1.2-0.2,1.6-0.5s0.6-0.8,0.6-1.4c0-1.3-0.7-2-2-2c-0.6,0-1.1,0.2-1.5,0.5
				c-0.4,0.4-0.6,0.8-0.6,1.4h-1.4c0-0.9,0.3-1.6,1-2.2c0.7-0.6,1.5-0.9,2.5-0.9c1.1,0,1.9,0.3,2.5,0.9s0.9,1.4,0.9,2.4
				c0,0.5-0.2,1-0.5,1.4s-0.8,0.8-1.3,1c0.6,0.2,1.1,0.5,1.4,1c0.3,0.5,0.5,1,0.5,1.7c0,1-0.3,1.8-1,2.4c-0.7,0.6-1.5,0.9-2.6,0.9
				c-1.1,0-1.9-0.3-2.6-0.9c-0.7-0.6-1-1.3-1-2.3h1.5c0,0.6,0.2,1.1,0.6,1.4s0.9,0.5,1.6,0.5c0.7,0,1.2-0.2,1.6-0.5
				c0.4-0.4,0.6-0.9,0.6-1.6c0-0.7-0.2-1.2-0.6-1.5s-1-0.5-1.8-0.5h-1.1V2615.6z"/>
			<path class="st6" d="M841.7,2610.6v1.2h-0.3c-1.1,0-2,0.4-2.7,1c-0.7,0.6-1.1,1.6-1.2,2.7c0.6-0.7,1.4-1,2.5-1c1,0,1.8,0.3,2.4,1
				c0.6,0.7,0.9,1.6,0.9,2.7c0,1.2-0.3,2.1-1,2.8c-0.6,0.7-1.5,1.1-2.6,1.1c-1.1,0-2-0.4-2.6-1.3c-0.7-0.8-1-1.9-1-3.2v-0.6
				c0-2.1,0.4-3.7,1.3-4.8c0.9-1.1,2.2-1.7,4-1.7H841.7z M839.8,2615.7c-0.5,0-1,0.1-1.4,0.4c-0.4,0.3-0.7,0.7-0.9,1.1v0.5
				c0,0.9,0.2,1.7,0.6,2.3s0.9,0.9,1.6,0.9c0.7,0,1.2-0.2,1.5-0.7c0.4-0.5,0.6-1.1,0.6-1.9c0-0.8-0.2-1.4-0.6-1.9
				C840.9,2616,840.4,2615.7,839.8,2615.7z"/>
			<path class="st6" d="M852.1,2617.1c0,1.7-0.3,3-0.9,3.8s-1.5,1.2-2.7,1.2c-1.2,0-2.1-0.4-2.7-1.2c-0.6-0.8-0.9-2-0.9-3.6v-1.9
				c0-1.7,0.3-2.9,0.9-3.7s1.5-1.2,2.7-1.2c1.2,0,2.1,0.4,2.7,1.2s0.9,2,0.9,3.6V2617.1z M850.7,2615.2c0-1.2-0.2-2.1-0.5-2.7
				s-0.9-0.8-1.6-0.8c-0.7,0-1.3,0.3-1.6,0.8c-0.3,0.6-0.5,1.4-0.5,2.6v2.3c0,1.2,0.2,2.1,0.5,2.7c0.4,0.6,0.9,0.9,1.6,0.9
				c0.7,0,1.2-0.3,1.6-0.8c0.3-0.6,0.5-1.4,0.5-2.6V2615.2z"/>
			<path class="st6" d="M861.1,2617.1c0,1.7-0.3,3-0.9,3.8s-1.5,1.2-2.7,1.2c-1.2,0-2.1-0.4-2.7-1.2c-0.6-0.8-0.9-2-0.9-3.6v-1.9
				c0-1.7,0.3-2.9,0.9-3.7s1.5-1.2,2.7-1.2c1.2,0,2.1,0.4,2.7,1.2s0.9,2,0.9,3.6V2617.1z M859.6,2615.2c0-1.2-0.2-2.1-0.5-2.7
				s-0.9-0.8-1.6-0.8c-0.7,0-1.3,0.3-1.6,0.8c-0.3,0.6-0.5,1.4-0.5,2.6v2.3c0,1.2,0.2,2.1,0.5,2.7c0.4,0.6,0.9,0.9,1.6,0.9
				c0.7,0,1.2-0.3,1.6-0.8c0.3-0.6,0.5-1.4,0.5-2.6V2615.2z"/>
		</g>
	</g>
</g>
</svg>
