<?xml version="1.0" encoding="utf-8"?>
<!-- Generator: Adobe Illustrator 25.4.1, SVG Export Plug-In . SVG Version: 6.00 Build 0)  -->
<svg version="1.1" id="Layer_1" xmlns="http://www.w3.org/2000/svg" xmlns:xlink="http://www.w3.org/1999/xlink" x="0px" y="0px"
	 viewBox="0 0 1940.9 904.4" style="enable-background:new 0 0 1940.9 904.4;" xml:space="preserve">
	 <style type="text/css">
	.st0{fill:#ffffff;}
</style>
<g>
	<path class="st0" d="M702.5,299.9l5.9-16.9c2.1-6.8,2.5-13,1.2-18.7c-2.8-12.5-11.5-18.7-26-18.7H160.8c-9.8,0-19.8,3.6-29.8,10.9
		c-10,7.3-16.7,16.1-20,26.5l-5.9,16.9l0,0L1.9,594.8c-2.1,6.7-2.5,12.9-1.2,18.7C3.6,625.9,12,632.1,26,632.1h291.4
		c3.4,0,6.3,3.7,5.3,6.6l-5.6,16l-4.6,13.1c-2.8,10.1-2.9,21-0.2,32.8c2,8.8,5.2,15.8,9.5,21l7.7,9.4l136,166.4
		c4.2,4.7,8.6,7,13.3,7c8.3,0,14.8-6.8,19.5-20.2L551.8,731l34.6-98.9l13-37.4L702.5,299.9L702.5,299.9z M345.1,576.9h-75.4
		l6.7-19.2L366.3,300h75.3L345.1,576.9z"/>
	<path class="st0" d="M1123.3,279.4l3.6-10.3c1.3-4.2,1.6-8.1,0.7-11.7c-1.8-7.8-7-11.7-15.8-11.7h-182c-2.1,0-3.9-2.3-3.3-4.1l3.5-10l2.9-8.2
		c1.8-6.3,1.8-13.1,0.1-20.4c-1.3-5.5-3.2-9.9-5.9-13.1l-4.8-5.9L837.4,80.1c-2.6-2.9-5.4-4.4-8.3-4.4c-5.2,0-9.2,4.2-12.2,12.6
		L783.6,184L762,245.8l-8.2,23.3l-3.6,10.3h-0.1l-61.2,175.2c-1.3,4.2-1.6,8.1-0.8,11.7c1.8,7.8,7.2,11.7,16.3,11.7h326.4
		c6.1,0,12.4-2.3,18.6-6.8s10.4-10,12.5-16.5l61.3-175.2h0.1V279.4z M906.5,432.6l-4,11.6h-47.1l57.5-164.8H960L906.5,432.6z"/>
	<path class="st0" d="M1940.5,257.6c-1.8-7.8-7.2-11.7-16.3-11.7h-326.4c-6.5,0-12.7,2.3-18.8,6.8c-6.1,4.6-10.3,10-12.7,16.5l-3.6,10.4l0,0
		l-14.8,42.9l-1.1,3.1l-8.6,24.8l-0.3,1c-0.1,0.3-0.2,0.7-0.3,1l-1.1,3c-0.2,0.6-0.4,1.1-0.6,1.7c-1.1,3.6-1.4,6.9-0.6,10
		c1.8,7.8,7.2,11.7,16.2,11.7h98.1v0.1h88.6l-2,5.5l-1,2.8l-0.9,2.6l-19,54.5h-47l7-20.2c0.9-3.3,1.1-6.3,0.4-9.2
		c-1.8-7.8-7.2-11.7-16.2-11.7H1543c-6.5,0-12.7,2.2-18.8,6.8c-6.1,4.5-10.3,10-12.7,16.5l-6.1,17.7l0,0l-3.6,10.4
		c-1.3,4.2-1.6,8.1-0.7,11.7c1.8,7.8,7,11.7,15.8,11.7h326.4c6.5,0,12.8-2.3,19.1-6.8c6.2-4.5,10.4-10,12.5-16.5l3.6-10.4h0.1
		l17.2-49.4l0,0l5.6-16.1c0.1-0.2,0.1-0.4,0.2-0.6l1.3-3.8c0,0,0-0.1,0.1-0.3c0.1-0.4,0.3-1.1,0.6-2c0.1-0.2,0.1-0.5,0.2-0.7
		c0.4-1.6,1-3.5,1.3-4.7c0-0.1,0.1-0.3,0.1-0.4c0-0.2,0.1-0.4,0.1-0.5c0.7-3.3,0.8-6.3,0.1-9.2c-1.8-7.8-7-11.7-15.8-11.7H1703
		l3.1-8.8l0,0l1.8-5.1l17.9-51.3h47l-6.9,19.9c-0.8,3.4-0.9,6.5-0.2,9.5c1.8,7.8,7,11.7,15.8,11.7H1898c6.5,0,12.8-2.2,19.1-6.8
		c6.2-4.5,10.4-10,12.5-16.5l6.1-17.8l0,0l3.6-10.4C1940.9,265.1,1941.3,261.2,1940.5,257.6z"/>
	<path class="st0" d="M1328,269.1c1.3-4.2,1.6-8.1,0.7-11.7c-1.8-7.8-7.2-11.7-16.3-11.7h-116.5c-6.2,0-12.4,2.2-18.6,6.8
		c-6.3,4.5-10.4,10-12.5,16.5l-3.6,10.3l0,0l-61.3,175.2c-1.3,4.2-1.6,8.1-0.8,11.7c1.8,7.8,7.2,11.7,16.3,11.7H1232
		c6.2,0,12.4-2.2,18.6-6.8c6.2-4.5,10.4-10,12.5-16.5l61.3-175.2L1328,269.1z"/>
	<path class="st0" d="M1505.3,338l44.6-128.2h199.8c0.7,0,1.5-0.1,2.1-0.2c2.8-0.3,5.2-1.7,6.8-3.7c1.2-1.2,2.1-2.7,2.7-4.4l9.3-26.6
		c2.8-8-3.1-16.4-11.6-16.4h-191.9l0.9-2.6l2.9-8.2c1.8-6.3,1.8-13.1,0.1-20.4c-1.3-5.5-3.2-9.9-5.9-13.1l-4.8-5.9L1475.4,4.4
		c-2.6-2.9-5.3-4.4-8.3-4.4c-5.2,0-9.2,4.2-12.2,12.6l-33.4,95.6l-17.6,50.2h-192.1c-5.3,0-9.9,3.3-11.7,8.3l-9.3,26.6
		c-2.8,8,3.1,16.4,11.6,16.4h184.3L1342.1,338l0,0l-54.8,157.3c-3,8.1-3.4,16.8-1.3,26.3c1.1,4.8,3,8.9,5.6,12.1l89.1,109.3
		c2.7,3.2,5.5,4.9,8.4,4.9c5.5,0,9.7-4.2,12.6-12.6l23.3-67.1c0,0,0,0,0-0.1c0.4-0.9,0.8-1.9,1.2-2.9L1505.3,338L1505.3,338z"/>
	<path class="st0" d="M1905.1,365.9v-0.1c0,0.2-0.1,0.4-0.1,0.5C1905.1,366.1,1905.1,366,1905.1,365.9z"/>
</g>
</svg>
