<svg xmlns="http://www.w3.org/2000/svg" width="29.42" height="22.065" viewBox="0 0 29.42 22.065">
  <path id="Icon_ionic-md-laptop" data-name="Icon ionic-md-laptop" d="M25.13,24.726a2.459,2.459,0,0,0,2.452-2.452V6.952A2.459,2.459,0,0,0,25.13,4.5H4.29A2.459,2.459,0,0,0,1.839,6.952V22.275A2.459,2.459,0,0,0,4.29,24.726H0c0,1.349,3.677,1.839,5.516,1.839H23.9c1.839,0,5.516-.49,5.516-1.839ZM4.29,6.952H25.13V22.581H4.29ZM14.71,25.8a1.226,1.226,0,1,1,1.226-1.226A1.23,1.23,0,0,1,14.71,25.8Z" transform="translate(0 -4.5)" fill="#272727"/>
</svg>
