<svg xmlns="http://www.w3.org/2000/svg" width="22.313" height="22.683" viewBox="0 0 22.313 22.683">
  <g id="Union_3" data-name="Union 3" transform="translate(14934.4 3720.998)" fill="#272727">
    <path d="M -14912.587890625 -3698.90625 L -14923.578125 -3700.75439453125 L -14923.578125 -3708.658203125 L -14912.587890625 -3708.658203125 L -14912.587890625 -3698.90625 Z M -14925.3427734375 -3701.178955078125 L -14933.900390625 -3702.80322265625 L -14933.900390625 -3708.658203125 L -14925.3427734375 -3708.658203125 L -14925.3427734375 -3701.178955078125 Z M -14925.3466796875 -3710.3291015625 L -14933.900390625 -3710.3291015625 L -14933.900390625 -3716.581298828125 L -14925.3466796875 -3718.12841796875 L -14925.3466796875 -3710.3291015625 Z M -14912.587890625 -3710.332763671875 L -14923.578125 -3710.332763671875 L -14923.578125 -3718.48291015625 L -14912.587890625 -3720.4033203125 L -14912.587890625 -3710.332763671875 Z" stroke="none"/>
    <path d="M -14913.087890625 -3699.497314453125 L -14913.087890625 -3708.158203125 L -14923.078125 -3708.158203125 L -14923.078125 -3701.177490234375 L -14913.087890625 -3699.497314453125 M -14925.8427734375 -3701.782958984375 L -14925.8427734375 -3708.158203125 L -14933.400390625 -3708.158203125 L -14933.400390625 -3703.21728515625 L -14925.8427734375 -3701.782958984375 M -14925.8466796875 -3710.8291015625 L -14925.8466796875 -3717.530029296875 L -14933.400390625 -3716.16357421875 L -14933.400390625 -3710.8291015625 L -14925.8466796875 -3710.8291015625 M -14913.087890625 -3710.832763671875 L -14913.087890625 -3719.808349609375 L -14923.078125 -3718.062744140625 L -14923.078125 -3710.832763671875 L -14913.087890625 -3710.832763671875 M -14912.087890625 -3698.315185546875 L -14924.078125 -3700.33154296875 L -14924.078125 -3709.158203125 L -14912.087890625 -3709.158203125 L -14912.087890625 -3698.315185546875 Z M -14924.8427734375 -3700.5751953125 L -14934.400390625 -3702.38916015625 L -14934.400390625 -3709.158203125 L -14924.8427734375 -3709.158203125 L -14924.8427734375 -3700.5751953125 Z M -14924.8466796875 -3709.8291015625 L -14934.400390625 -3709.8291015625 L -14934.400390625 -3716.9990234375 L -14924.8466796875 -3718.72705078125 L -14924.8466796875 -3709.8291015625 Z M -14912.087890625 -3709.832763671875 L -14924.078125 -3709.832763671875 L -14924.078125 -3718.903076171875 L -14912.087890625 -3720.998291015625 L -14912.087890625 -3709.832763671875 Z" stroke="none" fill="#272727"/>
  </g>
</svg>
