<svg xmlns="http://www.w3.org/2000/svg" width="103.048" height="101" viewBox="0 0 103.048 101">
  <g id="cash-on-delivery-delivery-icon-vector-29129993" transform="translate(1.006 0.003)">
    <path id="Path_1545" data-name="Path 1545" d="M114.884,158.12a7.137,7.137,0,0,1-7.243-3.276c-1.39-2.024-2.94-3.94-4.421-5.9,2.878-.012,5.756-.055,8.634-.025a2.981,2.981,0,0,1,3.03,3.1C114.926,154.051,114.886,156.087,114.884,158.12Z" transform="translate(-79.774 -115.063)" fill="#dce2e9"/>
    <path id="Path_1550" data-name="Path 1550" d="M82.361,197.773c-.03-.305-.088-.611-.088-.914-.007-2.573,0-5.143,0-7.97,1.518,1.325,2.885,2.475,4.2,3.678,4.571,4.176,4.345,3.819,10.207,3.815.5,0,1,.035,1.5.053a2.992,2.992,0,0,1-2.869,1.346C90.995,197.769,86.678,197.776,82.361,197.773Z" transform="translate(-63.599 -145.956)" fill="#dce2e9"/>
    <path id="Path_1542" data-name="Path 1542" d="M13.694,14.853a11.414,11.414,0,0,1,3.277.481,11.237,11.237,0,0,1,5.768,3.987,10.886,10.886,0,0,1,2.249,6.574,10.253,10.253,0,0,1-2.393,6.83,12.906,12.906,0,0,1-5.283,3.646c1.107,1.31,2.142,2.669,3.149,3.992,1.314,1.725,2.673,3.51,4.151,5.125l.03.032.027.035c.458.6.933,1.2,1.392,1.79C27.084,48.653,28.143,50,29.115,51.4a6.1,6.1,0,0,0,5.277,2.861,8.968,8.968,0,0,0,1.03-.062l.09-.01.09.006c1.128.072,2.325.1,3.88.1.739,0,1.493-.007,2.222-.014s1.492-.014,2.241-.014c.464,0,.885,0,1.286.008a5.663,5.663,0,0,1,3.645,1.235A4.5,4.5,0,0,1,49.163,62,5.487,5.487,0,0,1,45.2,63.535c-1.086,0-2.178,0-3.008,0H39.8c-1.068,0-2.331,0-3.6,0-.23,0-.48.027-.744.055-.14.015-.284.03-.432.042l-.059,0-.059,0c-.162-.006-.324-.013-.486-.021-.339-.016-.66-.031-.979-.031-.454,0-.872,0-1.259.006-.37,0-.711,0-1.027,0a9.23,9.23,0,0,1-4.3-.674,20.938,20.938,0,0,1-4.29-3.344c-.814-.73-1.651-1.444-2.533-2.194,0,1.953,0,3.813,0,5.668a3.981,3.981,0,0,0,.045.483c.013.1.027.207.038.318l.017.17-.04.166a8.59,8.59,0,0,0-.117,2.316c.014.387.029.787.022,1.192-.023,1.513-.019,3.058-.014,4.552,0,.851.005,1.731,0,2.6-.006,2.412-1.187,3.636-3.509,3.636l-.157,0H16.3c0,.031,0,.066,0,.106.021,7.581.04,17.586,0,27.758a6.85,6.85,0,0,1-2.03,4.924,6.685,6.685,0,0,1-4.7,1.912,7.1,7.1,0,0,1-3.4-.881,6.477,6.477,0,0,1-3.486-6.047q0-4.013,0-8.025c0-6.317,0-12.849.012-19.273v-.106c0-.127,0-.284-.005-.4-.052,0-.125-.006-.206,0H2.4A3.026,3.026,0,0,1-.528,75.554a3.306,3.306,0,0,1-.016-.477v-.005c.131-5.1-.042-10.295-.21-15.318-.109-3.275-.222-6.661-.251-10a41.385,41.385,0,0,1,.793-8.222,10.53,10.53,0,0,1,2.553-5.261,10.536,10.536,0,0,1,3.5-2.436,11.92,11.92,0,0,1-1.629-1.982,10.964,10.964,0,0,1,.158-12.1A11.215,11.215,0,0,1,13.694,14.853Zm9.412,31.953c-1.527-1.673-2.9-3.481-4.237-5.231-1.276-1.676-2.6-3.409-4.029-4.993l-1.06-1.173,1.514-.455c4.984-1.5,7.716-4.713,7.693-9.048a9.205,9.205,0,0,0-6.59-8.656,9.417,9.417,0,0,0-2.7-.4,9.217,9.217,0,0,0-7.663,4.019,8.659,8.659,0,0,0-1.417,6.639A9.352,9.352,0,0,0,8.382,33.4l1.536,1.188-1.859.561a8.308,8.308,0,0,0-6.308,6.767A39.384,39.384,0,0,0,1,49.738c.028,3.313.141,6.686.25,9.949.169,5.051.343,10.275.211,15.432a1.865,1.865,0,0,0,0,.2v.012c.058.517.34,1.121.945,1.121h.024l.119,0A2.154,2.154,0,0,1,4.155,77a2.434,2.434,0,0,1,.535,1.862v.1c-.013,6.422-.012,12.953-.012,19.268q0,4.013,0,8.025a4.471,4.471,0,0,0,2.436,4.287,5.122,5.122,0,0,0,2.454.641,4.752,4.752,0,0,0,4.734-4.843c.036-10.166.016-20.167,0-27.745a2.172,2.172,0,0,1,.5-1.608,2,2,0,0,1,1.467-.5l.213,0c1.111,0,1.506-.248,1.509-1.641,0-.862,0-1.739,0-2.587,0-1.5-.009-3.058.014-4.591.006-.354-.007-.71-.021-1.087a10.794,10.794,0,0,1,.131-2.679l-.014-.1a5.611,5.611,0,0,1-.062-.74c-.006-2.014-.005-4.036,0-6.176V53.041l1.652,1.422q.757.651,1.47,1.255c.956.813,1.859,1.58,2.747,2.377,3.793,3.408,4,3.506,7.252,3.506.313,0,.65,0,1.015,0,.39,0,.811-.005,1.27-.006.367,0,.726.017,1.073.033l.406.018c.106-.009.215-.021.328-.033a9.389,9.389,0,0,1,.944-.066c1.273,0,2.538,0,3.607,0h2.391c.829,0,1.919,0,3,0a3.516,3.516,0,0,0,2.542-.935,2.361,2.361,0,0,0,.675-1.735c-.029-1.571-1.257-2.564-3.206-2.591-.392-.006-.8-.008-1.258-.008-.739,0-1.493.007-2.222.014s-1.492.014-2.241.014c-1.56,0-2.774-.032-3.92-.1a10.906,10.906,0,0,1-1.17.065,8.081,8.081,0,0,1-6.917-3.715c-.941-1.347-1.983-2.677-2.99-3.963C24.032,48,23.563,47.4,23.107,46.805Z" transform="translate(0 -12.188)" fill="#707070"/>
    <path id="Path_1543" data-name="Path 1543" d="M265.321,14.671a11.171,11.171,0,0,1,5.745,1.617,11.463,11.463,0,0,1,4.206,4.41A10.856,10.856,0,0,1,276.4,27.56a11.3,11.3,0,0,1-3.22,6.134,10.251,10.251,0,0,1,6.143,8.185,55.306,55.306,0,0,1,.635,12.573c-.323,5.919-.453,12.292-.41,20.055a4,4,0,0,1-.8,2.768,3.756,3.756,0,0,1-2.422,1.046c0,.905,0,1.823,0,2.712q0,1.072,0,2.144,0,3.1,0,6.2c0,5.573,0,11.335-.008,17a6.6,6.6,0,0,1-5.8,6.561,7.657,7.657,0,0,1-1.012.068,6.931,6.931,0,0,1-4.122-1.317,6.585,6.585,0,0,1-2.461-3.545,7.984,7.984,0,0,1-.222-2.287q0-.123,0-.245,0-2.273,0-4.546c0-7.381-.006-15.014.023-22.52,0-.082,0-.147,0-.2-.046,0-.106,0-.168,0l-.16,0c-2.136,0-3.363-1.291-3.366-3.542-.009-8.151-.018-16.574.01-24.905a16.676,16.676,0,0,1-7.826,1.615c-.249,0-.511,0-.78-.008-2.135-.043-4.452-.063-7.289-.063-1.67,0-3.37.007-5.013.013s-3.347.013-5.021.013a4.282,4.282,0,0,1-4.248-2.593,4.138,4.138,0,0,1,.779-4.671,4.65,4.65,0,0,1,3.641-1.423h.017q3.492.007,6.985,0l3.874,0c3.031,0,5.353.006,7.529.02h.055a4.978,4.978,0,0,0,3.565-1.315c1.687-1.505,3.385-2.923,5.182-4.424l1.08-.9a13.739,13.739,0,0,1-5.388-3.909,9.92,9.92,0,0,1-2.153-7.038,11.024,11.024,0,0,1,2.752-6.673,11.621,11.621,0,0,1,6.358-3.643A10.529,10.529,0,0,1,265.321,14.671Zm6.192,20.521-.021,0a1.241,1.241,0,0,1-1.055-1.337l.032-.43.334-.272c4.269-3.469,4.435-8.279,2.706-11.507a9.429,9.429,0,0,0-8.188-4.971,8.525,8.525,0,0,0-1.769.185,9.187,9.187,0,0,0-7.529,8.487c-.355,5.583,4.049,8.274,7.806,9.549l1.675.568L264.154,36.6c-.8.678-1.606,1.35-2.384,2-1.785,1.49-3.47,2.9-5.131,4.379a6.933,6.933,0,0,1-4.9,1.824h-.068c-2.172-.014-4.49-.02-7.516-.02l-3.873,0q-3.495,0-6.991,0h-.013a2.705,2.705,0,0,0-2.167.774,2.157,2.157,0,0,0-.42,2.52,2.292,2.292,0,0,0,2.414,1.392c1.67,0,3.369-.007,5.013-.013s3.347-.013,5.021-.013c2.851,0,5.18.02,7.33.063.256.005.5.008.739.008a14.132,14.132,0,0,0,7.222-1.561,2.428,2.428,0,0,1,1.187-.384,1.322,1.322,0,0,1,.946.385,2.16,2.16,0,0,1,.472,1.61c-.03,8.437-.021,16.978-.012,25.238,0,1.3.481,1.544,1.366,1.544h.1l.144,0a2.11,2.11,0,0,1,1.551.53,2.238,2.238,0,0,1,.533,1.678c-.029,7.5-.026,15.131-.023,22.51q0,2.273,0,4.547,0,.127,0,.254a6.267,6.267,0,0,0,.145,1.727,4.7,4.7,0,0,0,4.66,3.412,5.654,5.654,0,0,0,.747-.05,4.615,4.615,0,0,0,4.06-4.583c.012-5.665.01-11.426.008-17q0-3.1,0-6.2,0-1.074,0-2.147c0-.936,0-1.9,0-2.855v-.019a1.993,1.993,0,0,1,.208-1.03,1.587,1.587,0,0,1,1.332-.767,1.411,1.411,0,0,0,1.678-1.84c-.043-7.8.088-14.215.413-20.176a53.338,53.338,0,0,0-.609-12.123A8.311,8.311,0,0,0,271.513,35.192Z" transform="translate(-178.015 -12.048)" fill="#1486f9"/>
    <path id="Path_1544" data-name="Path 1544" d="M193.6,14.174Q182.958,7.254,172.354.275c-.595-.391-.9-.421-1.325.241-1.858,2.919-3.743,5.825-5.682,8.691-.514.759-.317,1.053.37,1.49q4.48,2.849,8.893,5.8l6.563,4.3c1.844,1.187,3.7,2.35,5.5,3.6.74.516,1.106.458,1.592-.312q2.745-4.341,5.617-8.6C194.317,14.838,194.229,14.578,193.6,14.174ZM174.038,12.92c-.557.874-1.166,1.013-2,.391-.555-.414-1.164-.756-1.742-1.138-.886-.588-2.094-.974-1.356-2.5a1.207,1.207,0,0,0-.335-1.291c-.715-.662-.534-1.212,0-1.848a8.734,8.734,0,0,0,.826-1.252c.541-.93,1.013-1.855,2.415-1.339a1.53,1.53,0,0,0,1.564-.569c.437-.507.752-.451,1.238-.106.942.669,1.92,1.282,2.892,1.909a1.161,1.161,0,0,1,.68.969,1.461,1.461,0,0,1-.322.877C176.613,8.989,175.3,10.942,174.038,12.92Zm1.952-.59a3.629,3.629,0,1,1,3.627,3.63A3.629,3.629,0,0,1,175.991,12.33Zm14.961,5.335c-.68.981-1.321,1.989-1.976,2.987-.174.264-.342.541-.768.294a2.388,2.388,0,0,0-2.686.708c-.31.363-.521.127-.77-.035q-1.593-1.044-3.19-2.087a1.062,1.062,0,0,1-.34-1.67q2.03-3.092,4.048-6.186a1.082,1.082,0,0,1,1.682-.34c1.034.669,2.054,1.36,3.093,2.022a.67.67,0,0,1,.319.951,2.238,2.238,0,0,0,.479,2.464C191.118,17.068,191.2,17.3,190.951,17.665Z" transform="translate(-127.724)" fill="#0071e3"/>
    <path id="Path_1548" data-name="Path 1548" d="M181.221,60c-.474,1.284-.854,2.4-1.3,3.486-.294.713-.8.2-1.164.069q-8.162-3.043-16.307-6.128c-2.448-.921-4.888-1.865-7.35-2.741-.708-.252-.856-.523-.562-1.235.733-1.777,1.363-3.595,2.07-5.383.09-.227.009-.856.6-.551.384.2.886.389.548,1.029-.178.335-.268.719-.419,1.073-.372.884-.821,1.723.393,2.408a1.357,1.357,0,0,1,.5,1.462c-.261.992.349,1.166,1.032,1.4q1.471.507,2.917,1.09a1.084,1.084,0,0,0,1.622-.74c.241-.648.477-1.3.747-1.936.107-.248.065-.71.528-.6a.69.69,0,0,1,.215.088,3.527,3.527,0,0,0-.083.77,3.632,3.632,0,0,0,5.619,3.035c.416.058.83.146,1.24.243a2.463,2.463,0,0,1-.146,1.631.922.922,0,0,0,.5,1.349c1.279.527,2.586.988,3.884,1.467.134.049.391.095.428.037.738-1.147,1.339-.157,1.837.2.756.541,1.224.581,1.652-.333A2.4,2.4,0,0,1,181.221,60Z" transform="translate(-119.45 -36.465)" fill="#0071e3"/>
    <path id="Path_1549" data-name="Path 1549" d="M180.313,86.942a1.43,1.43,0,0,1,0,.345c-.289,1.182.111,2.878-.754,3.452-.759.5-2.274-.1-3.449-.261-7.465-1.046-14.926-2.119-22.393-3.139-.773-.106-.967-.359-.844-1.09.254-1.518.449-3.042.666-4.567.046-.328,0-.784.558-.6.333.111.812.141.692.722-.056.264-.065.534-.116.8-.12.622-.051,1.062.666,1.351a1.875,1.875,0,0,1,1.187,1.717c.021.65.312.854.9.918,1.108.123,2.212.289,3.313.463,1.02.16,1.524-.268,1.6-1.286.037-.484-.042-1.233.382-1.339a1.7,1.7,0,0,1,1.536.618,4.376,4.376,0,0,0,3.662,1.427c1.122.023,2.542.208,3.153,1.617.187.433.652.518,1.08.555a17.235,17.235,0,0,1,5.9,1.45c.581.273.879.176,1.083-.465.3-.942.682-1.853,1.032-2.778Z" transform="translate(-118.249 -62.626)" fill="#0071e3"/>
    <path id="Path_1557" data-name="Path 1557" d="M220.587,45.29a.608.608,0,0,0,.215.088,1.117,1.117,0,0,0,.268.023,1.7,1.7,0,0,0,.576-.12,1.3,1.3,0,0,0,.245-.132.644.644,0,0,0,.174-.171.811.811,0,0,0,.13-.324l-.051-.016a.665.665,0,0,1-.113.1.439.439,0,0,1-.144.06.444.444,0,0,1-.166,0,.436.436,0,0,1-.183-.081.543.543,0,0,1-.157-.16.514.514,0,0,1-.076-.19.535.535,0,0,1,0-.2.512.512,0,0,1,.083-.19.7.7,0,0,1,.13-.136.477.477,0,0,1,.2-.1.639.639,0,0,1,.273,0,.925.925,0,0,1,.34.16,1.09,1.09,0,0,1,.331.338.915.915,0,0,1,.127.377.978.978,0,0,1-.042.389,1.309,1.309,0,0,1-.178.365,1.413,1.413,0,0,1-.335.347,1.687,1.687,0,0,1-.407.217,1.964,1.964,0,0,1-.44.106,2.094,2.094,0,0,1-.433.009,1.79,1.79,0,0,1-.386-.072,1.067,1.067,0,0,1-.3-.139.978.978,0,0,1-.155-.136,1.116,1.116,0,0,1-.155-.206,1.193,1.193,0,0,1-.116-.271,1.1,1.1,0,0,1-.037-.333,1.386,1.386,0,0,1,.081-.393,1.938,1.938,0,0,1,.234-.446l.9-1.3-.567-.389.317-.46.567.389.465-.678L221.8,41.6a.236.236,0,0,1-.046-.019.289.289,0,0,1-.13-.116.365.365,0,0,1-.046-.118.387.387,0,0,1,0-.127.3.3,0,0,1,.051-.123.39.39,0,0,1,.1-.1.372.372,0,0,1,.153-.06.5.5,0,0,1,.185,0,.51.51,0,0,1,.2.088.5.5,0,0,1,.192.227.571.571,0,0,1,.035.273.976.976,0,0,1-.079.291,1.748,1.748,0,0,1-.157.28l-.386.562,1.818,1.249-.317.46-1.818-1.249-.849,1.238a2.226,2.226,0,0,0-.173.294,1.126,1.126,0,0,0-.081.227.488.488,0,0,0-.012.169.475.475,0,0,0,.032.12.3.3,0,0,0,.055.079C220.555,45.265,220.571,45.281,220.587,45.29Z" transform="translate(-169.809 -31.466)" fill="#0071e3"/>
  </g>
</svg>
